<svg width="85" height="85" viewBox="0 0 85 85" fill="none" xmlns="http://www.w3.org/2000/svg">
<g clip-path="url(#clip0_10_1744)">
<mask id="mask0_10_1744" style="mask-type:luminance" maskUnits="userSpaceOnUse" x="0" y="0" width="85" height="85">
<path d="M0 0H85V85H0V0Z" fill="white"/>
</mask>
<g mask="url(#mask0_10_1744)">
<path d="M79.475 42.2875C79.475 62.7141 50.4687 79.6875 42.5 79.6875C34.5312 79.6875 5.52499 62.7141 5.52499 42.2875C5.52499 21.8609 22.0734 5.3125 42.5 5.3125C62.9266 5.3125 79.475 21.8609 79.475 42.2875Z" fill="url(#paint0_radial_10_1744)"/>
<path d="M79.475 42.2875C79.475 62.7141 50.4687 79.6875 42.5 79.6875C34.5312 79.6875 5.52499 62.7141 5.52499 42.2875C5.52499 21.8609 22.0734 5.3125 42.5 5.3125C62.9266 5.3125 79.475 21.8609 79.475 42.2875Z" fill="url(#paint1_radial_10_1744)"/>
<path d="M79.475 42.2875C79.475 62.7141 50.4687 79.6875 42.5 79.6875C34.5312 79.6875 5.52499 62.7141 5.52499 42.2875C5.52499 21.8609 22.0734 5.3125 42.5 5.3125C62.9266 5.3125 79.475 21.8609 79.475 42.2875Z" fill="url(#paint2_radial_10_1744)"/>
<g filter="url(#filter0_f_10_1744)">
<path d="M69.8725 37.2787C73.9028 33.4252 72.4699 25.3855 66.6719 19.3214C60.8739 13.2574 52.9065 11.4654 48.8762 15.3189C44.8459 19.1723 46.2788 27.2121 52.0768 33.2761C57.8748 39.3402 65.8422 41.1322 69.8725 37.2787Z" fill="#9EFCA0"/>
</g>
<g filter="url(#filter1_f_10_1744)">
<path d="M11.0529 32.514C9.83089 31.6709 11.0372 27.8032 13.7473 23.8752C16.4573 19.9472 19.6449 17.4463 20.8669 18.2894C22.0888 19.1325 20.8825 23.0003 18.1725 26.9283C15.4624 30.8563 12.2749 33.3571 11.0529 32.514Z" fill="#BAEEBC" fill-opacity="0.75"/>
</g>
<g filter="url(#filter2_f_10_1744)">
<path d="M33.8141 56.2966C27.6648 62.6237 19.6669 60.0923 13.4884 53.7359C7.30733 47.3795 5.3178 39.6658 11.4697 33.3094C12.9134 31.8058 14.646 30.6095 16.5636 29.7923C18.4812 28.9751 20.5441 28.5538 22.6286 28.5538C24.713 28.5538 26.776 28.9751 28.6936 29.7923C30.6112 30.6095 32.3438 31.8058 33.7875 33.3094C39.9394 39.6366 39.9951 49.9694 33.8141 56.2966Z" fill="#608D6A" fill-opacity="0.75"/>
</g>
<g filter="url(#filter3_f_10_1744)">
<path d="M48.264 56.8172C53.1808 62.2466 59.5717 60.0738 64.5123 54.6152C69.4503 49.1592 71.0387 42.5399 66.1247 37.0839C61.2106 31.6253 53.2047 31.6519 48.2879 37.0839C43.3739 42.5133 43.3287 51.3852 48.2667 56.8146" fill="#608D6A" fill-opacity="0.75"/>
</g>
<path d="M35.4875 55.1969C29.6969 60.9875 23.6406 57.6406 17.8234 51.8235C12.0062 46.0063 8.65937 39.9766 14.45 34.1594C20.2406 28.3422 29.6703 28.3688 35.4609 34.1594C41.2516 39.95 41.3047 49.4063 35.4875 55.1969Z" fill="url(#paint3_radial_10_1744)"/>
<path d="M35.4875 55.1969C29.6969 60.9875 23.6406 57.6406 17.8234 51.8235C12.0062 46.0063 8.65937 39.9766 14.45 34.1594C20.2406 28.3422 29.6703 28.3688 35.4609 34.1594C41.2516 39.95 41.3047 49.4063 35.4875 55.1969Z" fill="url(#paint4_radial_10_1744)"/>
<path d="M35.4875 55.1969C29.6969 60.9875 23.6406 57.6406 17.8234 51.8235C12.0062 46.0063 8.65937 39.9766 14.45 34.1594C20.2406 28.3422 29.6703 28.3688 35.4609 34.1594C41.2516 39.95 41.3047 49.4063 35.4875 55.1969Z" fill="url(#paint5_radial_10_1744)"/>
<path d="M49.5125 55.1969C55.3031 60.9875 61.3594 57.6406 67.1766 51.8235C72.9938 46.0063 76.3406 39.9766 70.55 34.1594C64.7594 28.3422 55.3297 28.3688 49.5391 34.1594C43.7484 39.95 43.7219 49.4063 49.5125 55.1969Z" fill="url(#paint6_radial_10_1744)"/>
<path d="M49.5125 55.1969C55.3031 60.9875 61.3594 57.6406 67.1766 51.8235C72.9938 46.0063 76.3406 39.9766 70.55 34.1594C64.7594 28.3422 55.3297 28.3688 49.5391 34.1594C43.7484 39.95 43.7219 49.4063 49.5125 55.1969Z" fill="url(#paint7_radial_10_1744)"/>
<path d="M49.5125 55.1969C55.3031 60.9875 61.3594 57.6406 67.1766 51.8235C72.9938 46.0063 76.3406 39.9766 70.55 34.1594C64.7594 28.3422 55.3297 28.3688 49.5391 34.1594C43.7484 39.95 43.7219 49.4063 49.5125 55.1969Z" fill="url(#paint8_radial_10_1744)"/>
<path d="M49.5125 55.1969C55.3031 60.9875 61.3594 57.6406 67.1766 51.8235C72.9938 46.0063 76.3406 39.9766 70.55 34.1594C64.7594 28.3422 55.3297 28.3688 49.5391 34.1594C43.7484 39.95 43.7219 49.4063 49.5125 55.1969Z" fill="url(#paint9_radial_10_1744)"/>
<g filter="url(#filter4_f_10_1744)">
<path d="M67.8008 35.2378C72.1384 37.3548 71.7028 41.7961 69.4609 44.2026" stroke="#686061" stroke-width="0.75" stroke-linecap="round"/>
</g>
<path d="M68.1859 34.8234C70.2578 36.8953 70.6297 39.8703 69.0094 41.4906C67.3891 43.1109 64.4141 42.7391 62.3422 40.6672C60.2703 38.5953 59.8984 35.6203 61.5187 34C63.1391 32.3797 66.1406 32.7781 68.1859 34.8234Z" fill="url(#paint10_linear_10_1744)"/>
<g filter="url(#filter5_f_10_1744)">
<path d="M33.83 38.1013C35.0041 39.7614 36.2366 44.6516 34.3081 50.4608" stroke="#686061" stroke-width="0.75" stroke-linecap="round"/>
</g>
<path d="M32.9109 34.8234C34.9828 36.8953 35.3547 39.8703 33.7343 41.4906C32.114 43.1109 29.139 42.7391 27.0672 40.6672C24.9953 38.5953 24.6234 35.6203 26.2437 34C27.864 32.3797 30.839 32.7781 32.9109 34.8234Z" fill="url(#paint11_linear_10_1744)"/>
<path d="M37.1663 66.5311C37.1663 66.5311 39.2647 68.773 42.5425 68.773C45.8203 68.773 47.8338 66.5311 47.8338 66.5311" stroke="url(#paint12_radial_10_1744)" stroke-width="1.8" stroke-linecap="round" stroke-linejoin="round"/>
</g>
</g>
<defs>
<filter id="filter0_f_10_1744" x="42.5879" y="9.28784" width="33.5729" height="34.0219" filterUnits="userSpaceOnUse" color-interpolation-filters="sRGB">
<feFlood flood-opacity="0" result="BackgroundImageFix"/>
<feBlend mode="normal" in="SourceGraphic" in2="BackgroundImageFix" result="shape"/>
<feGaussianBlur stdDeviation="2" result="effect1_foregroundBlur_10_1744"/>
</filter>
<filter id="filter1_f_10_1744" x="7.57581" y="15.1259" width="16.7681" height="20.5516" filterUnits="userSpaceOnUse" color-interpolation-filters="sRGB">
<feFlood flood-opacity="0" result="BackgroundImageFix"/>
<feBlend mode="normal" in="SourceGraphic" in2="BackgroundImageFix" result="shape"/>
<feGaussianBlur stdDeviation="1.5" result="effect1_foregroundBlur_10_1744"/>
</filter>
<filter id="filter2_f_10_1744" x="3.7341" y="24.5538" width="38.6916" height="39.4056" filterUnits="userSpaceOnUse" color-interpolation-filters="sRGB">
<feFlood flood-opacity="0" result="BackgroundImageFix"/>
<feBlend mode="normal" in="SourceGraphic" in2="BackgroundImageFix" result="shape"/>
<feGaussianBlur stdDeviation="2" result="effect1_foregroundBlur_10_1744"/>
</filter>
<filter id="filter3_f_10_1744" x="40.5828" y="28.9999" width="32.5261" height="34.9599" filterUnits="userSpaceOnUse" color-interpolation-filters="sRGB">
<feFlood flood-opacity="0" result="BackgroundImageFix"/>
<feBlend mode="normal" in="SourceGraphic" in2="BackgroundImageFix" result="shape"/>
<feGaussianBlur stdDeviation="2" result="effect1_foregroundBlur_10_1744"/>
</filter>
<filter id="filter4_f_10_1744" x="65.9257" y="33.3627" width="7.06915" height="12.7149" filterUnits="userSpaceOnUse" color-interpolation-filters="sRGB">
<feFlood flood-opacity="0" result="BackgroundImageFix"/>
<feBlend mode="normal" in="SourceGraphic" in2="BackgroundImageFix" result="shape"/>
<feGaussianBlur stdDeviation="0.75" result="effect1_foregroundBlur_10_1744"/>
</filter>
<filter id="filter5_f_10_1744" x="31.955" y="36.2262" width="5.23395" height="16.1097" filterUnits="userSpaceOnUse" color-interpolation-filters="sRGB">
<feFlood flood-opacity="0" result="BackgroundImageFix"/>
<feBlend mode="normal" in="SourceGraphic" in2="BackgroundImageFix" result="shape"/>
<feGaussianBlur stdDeviation="0.75" result="effect1_foregroundBlur_10_1744"/>
</filter>
<radialGradient id="paint0_radial_10_1744" cx="0" cy="0" r="1" gradientUnits="userSpaceOnUse" gradientTransform="translate(63.6286 77.3636) rotate(-124.672) scale(77.9187 227.98)">
<stop offset="0.393" stop-color="#92E65B"/>
<stop offset="1" stop-color="#6BD179"/>
</radialGradient>
<radialGradient id="paint1_radial_10_1744" cx="0" cy="0" r="1" gradientUnits="userSpaceOnUse" gradientTransform="translate(46.8648 47.3154) rotate(-153.522) scale(49.1499 59.1499)">
<stop offset="0.553" stop-color="#67B077" stop-opacity="0"/>
<stop offset="1" stop-color="#67B077"/>
</radialGradient>
<radialGradient id="paint2_radial_10_1744" cx="0" cy="0" r="1" gradientUnits="userSpaceOnUse" gradientTransform="translate(46.8647 47.314) rotate(-137.076) scale(55.0925 54.4207)">
<stop offset="0.76" stop-color="#608D6A" stop-opacity="0"/>
<stop offset="1" stop-color="#608D6A"/>
</radialGradient>
<radialGradient id="paint3_radial_10_1744" cx="0" cy="0" r="1" gradientUnits="userSpaceOnUse" gradientTransform="translate(32.2601 66.7197) rotate(-106.489) scale(31.0893 38.5804)">
<stop stop-color="#482641"/>
<stop offset="0.234" stop-color="#4A2943"/>
<stop offset="1" stop-color="#654F5F"/>
</radialGradient>
<radialGradient id="paint4_radial_10_1744" cx="0" cy="0" r="1" gradientUnits="userSpaceOnUse" gradientTransform="translate(29.678 47.6468) rotate(-142.786) scale(29.4977 18.9474)">
<stop offset="0.531" stop-color="#1A1819" stop-opacity="0"/>
<stop offset="0.979" stop-color="#1A1819"/>
</radialGradient>
<radialGradient id="paint5_radial_10_1744" cx="0" cy="0" r="1" gradientUnits="userSpaceOnUse" gradientTransform="translate(44.8733 54.8677) rotate(-153.486) scale(41.28 31.3961)">
<stop offset="0.858" stop-color="#A28D8F" stop-opacity="0"/>
<stop offset="1" stop-color="#A28D8F"/>
</radialGradient>
<radialGradient id="paint6_radial_10_1744" cx="0" cy="0" r="1" gradientUnits="userSpaceOnUse" gradientTransform="translate(65.9972 66.7197) rotate(-106.483) scale(31.0885 38.568)">
<stop stop-color="#482641"/>
<stop offset="0.234" stop-color="#4A2943"/>
<stop offset="1" stop-color="#654F5F"/>
</radialGradient>
<radialGradient id="paint7_radial_10_1744" cx="0" cy="0" r="1" gradientUnits="userSpaceOnUse" gradientTransform="translate(62.7991 45.6556) rotate(-139.304) scale(24.305 20.8941)">
<stop offset="0.495" stop-color="#1A1819" stop-opacity="0"/>
<stop offset="0.979" stop-color="#1A1819"/>
</radialGradient>
<radialGradient id="paint8_radial_10_1744" cx="0" cy="0" r="1" gradientUnits="userSpaceOnUse" gradientTransform="translate(46.1996 35.1961) rotate(22.793) scale(33.8547 54.1208)">
<stop offset="0.713" stop-color="#1A1819" stop-opacity="0"/>
<stop offset="0.979" stop-color="#1A1819"/>
</radialGradient>
<radialGradient id="paint9_radial_10_1744" cx="0" cy="0" r="1" gradientUnits="userSpaceOnUse" gradientTransform="translate(78.6037 54.8675) rotate(-153.478) scale(41.2683 31.394)">
<stop offset="0.858" stop-color="#A28D8F" stop-opacity="0"/>
<stop offset="1" stop-color="#A28D8F"/>
</radialGradient>
<linearGradient id="paint10_linear_10_1744" x1="65.2641" y1="32.0184" x2="65.0303" y2="42.5" gradientUnits="userSpaceOnUse">
<stop offset="0.198" stop-color="white"/>
<stop offset="1" stop-color="white" stop-opacity="0"/>
</linearGradient>
<linearGradient id="paint11_linear_10_1744" x1="29.989" y1="32.0184" x2="29.7553" y2="42.5" gradientUnits="userSpaceOnUse">
<stop offset="0.198" stop-color="white"/>
<stop offset="1" stop-color="white" stop-opacity="0"/>
</linearGradient>
<radialGradient id="paint12_radial_10_1744" cx="0" cy="0" r="1" gradientUnits="userSpaceOnUse" gradientTransform="translate(42.9622 59.2689) rotate(90) scale(30.132 26.1283)">
<stop offset="0.07" stop-color="#2E1529"/>
<stop offset="0.297" stop-color="#5F4357"/>
<stop offset="0.438" stop-color="#4B2744"/>
</radialGradient>
<clipPath id="clip0_10_1744">
<rect width="85" height="85" fill="white"/>
</clipPath>
</defs>
</svg>
