<svg width="86" height="86" viewBox="0 0 86 86" fill="none" xmlns="http://www.w3.org/2000/svg">
<g clip-path="url(#clip0_6_244)">
<g filter="url(#filter0_d_6_244)">
<path d="M52.4062 80.625C12.0427 80.625 6.71875 49.7188 6.71875 24.1875H33.5938C36.2812 32.25 39.6729 44.6743 57.7812 41.6562C73.9062 38.9688 80.625 51.6726 80.625 59.125C80.625 64.5 79.2812 80.625 52.4062 80.625Z" fill="url(#paint0_radial_6_244)"/>
<path d="M20.1562 5.375C19.0871 5.375 18.0617 5.79972 17.3057 6.55573C16.5497 7.31173 16.125 8.3371 16.125 9.40625V13.0021L24.1875 12.6393V9.40625C24.1875 8.3371 23.7628 7.31173 23.0068 6.55573C22.2508 5.79972 21.2254 5.375 20.1562 5.375Z" fill="#2EC262"/>
<path d="M20.1562 5.375C19.0871 5.375 18.0617 5.79972 17.3057 6.55573C16.5497 7.31173 16.125 8.3371 16.125 9.40625V13.0021L24.1875 12.6393V9.40625C24.1875 8.3371 23.7628 7.31173 23.0068 6.55573C22.2508 5.79972 21.2254 5.375 20.1562 5.375Z" fill="url(#paint1_radial_6_244)"/>
<path d="M20.1562 5.375C19.0871 5.375 18.0617 5.79972 17.3057 6.55573C16.5497 7.31173 16.125 8.3371 16.125 9.40625V13.0021L24.1875 12.6393V9.40625C24.1875 8.3371 23.7628 7.31173 23.0068 6.55573C22.2508 5.79972 21.2254 5.375 20.1562 5.375Z" fill="url(#paint2_radial_6_244)"/>
<path d="M20.1562 5.375C19.0871 5.375 18.0617 5.79972 17.3057 6.55573C16.5497 7.31173 16.125 8.3371 16.125 9.40625V13.0021L24.1875 12.6393V9.40625C24.1875 8.3371 23.7628 7.31173 23.0068 6.55573C22.2508 5.79972 21.2254 5.375 20.1562 5.375Z" fill="url(#paint3_radial_6_244)"/>
<path d="M16.125 11.4783C9.89 13.4671 5.375 19.3097 5.375 26.2031V26.875C5.375 28.3585 6.70531 29.6109 7.84481 28.6595C8.43875 28.165 8.9225 27.52 9.40625 26.875C10.4141 25.5312 11.4219 24.1875 13.4375 24.1875C15.4531 24.1875 16.4609 25.5312 17.4688 26.875C18.4766 28.2188 19.4844 29.5625 21.5 29.5625C23.5156 29.5625 24.5234 28.2188 25.5312 26.875C26.5391 25.5312 27.5469 24.1875 29.5625 24.1875C31.5459 24.1875 32.4892 25.4882 33.4459 26.8105L33.8759 27.3964C34.8139 28.6326 36.2812 27.7538 36.2812 26.2031C36.2812 18.8232 31.1078 13.0129 24.1875 11.4783C24.1875 11.4783 22.2552 11.0859 20.1562 11.0859C18.0573 11.0859 16.125 11.4783 16.125 11.4783Z" fill="#28A964"/>
<path d="M16.125 11.4783C9.89 13.4671 5.375 19.3097 5.375 26.2031V26.875C5.375 28.3585 6.70531 29.6109 7.84481 28.6595C8.43875 28.165 8.9225 27.52 9.40625 26.875C10.4141 25.5312 11.4219 24.1875 13.4375 24.1875C15.4531 24.1875 16.4609 25.5312 17.4688 26.875C18.4766 28.2188 19.4844 29.5625 21.5 29.5625C23.5156 29.5625 24.5234 28.2188 25.5312 26.875C26.5391 25.5312 27.5469 24.1875 29.5625 24.1875C31.5459 24.1875 32.4892 25.4882 33.4459 26.8105L33.8759 27.3964C34.8139 28.6326 36.2812 27.7538 36.2812 26.2031C36.2812 18.8232 31.1078 13.0129 24.1875 11.4783C24.1875 11.4783 22.2552 11.0859 20.1562 11.0859C18.0573 11.0859 16.125 11.4783 16.125 11.4783Z" fill="url(#paint4_radial_6_244)"/>
<g filter="url(#filter1_f_6_244)">
<path d="M73.9736 58.0632C75.743 55.8959 75.8789 53.079 74.2773 51.7714C72.6756 50.4639 69.9429 51.1609 68.1736 53.3283C66.4042 55.4956 66.2683 58.3125 67.8699 59.6201C69.4716 60.9276 72.2043 60.2306 73.9736 58.0632Z" fill="#B685FF"/>
</g>
</g>
</g>
<defs>
<filter id="filter0_d_6_244" x="3.375" y="5.375" width="83.25" height="83.25" filterUnits="userSpaceOnUse" color-interpolation-filters="sRGB">
<feFlood flood-opacity="0" result="BackgroundImageFix"/>
<feColorMatrix in="SourceAlpha" type="matrix" values="0 0 0 0 0 0 0 0 0 0 0 0 0 0 0 0 0 0 127 0" result="hardAlpha"/>
<feOffset dx="2" dy="4"/>
<feGaussianBlur stdDeviation="2"/>
<feComposite in2="hardAlpha" operator="out"/>
<feColorMatrix type="matrix" values="0 0 0 0 0 0 0 0 0 0 0 0 0 0 0 0 0 0 0.1 0"/>
<feBlend mode="normal" in2="BackgroundImageFix" result="effect1_dropShadow_6_244"/>
<feBlend mode="normal" in="SourceGraphic" in2="effect1_dropShadow_6_244" result="shape"/>
</filter>
<filter id="filter1_f_6_244" x="63.7523" y="48.1119" width="14.6427" height="15.1677" filterUnits="userSpaceOnUse" color-interpolation-filters="sRGB">
<feFlood flood-opacity="0" result="BackgroundImageFix"/>
<feBlend mode="normal" in="SourceGraphic" in2="BackgroundImageFix" result="shape"/>
<feGaussianBlur stdDeviation="1.5" result="effect1_foregroundBlur_6_244"/>
</filter>
<radialGradient id="paint0_radial_6_244" cx="0" cy="0" r="1" gradientUnits="userSpaceOnUse" gradientTransform="translate(57.782 32.7557) rotate(106.422) scale(49.9071 65.3546)">
<stop offset="0.138" stop-color="#8A59E8"/>
<stop offset="0.302" stop-color="#7E2EF2"/>
<stop offset="0.446" stop-color="#894AFF"/>
<stop offset="0.506" stop-color="#8A4CFF"/>
<stop offset="0.767" stop-color="#6A26FF"/>
<stop offset="1" stop-color="#542BFF"/>
</radialGradient>
<radialGradient id="paint1_radial_6_244" cx="0" cy="0" r="1" gradientUnits="userSpaceOnUse" gradientTransform="translate(23.1797 9.18856) rotate(90) scale(8.11219 6.38281)">
<stop stop-color="#3EF797"/>
<stop offset="1" stop-color="#3FF693" stop-opacity="0"/>
</radialGradient>
<radialGradient id="paint2_radial_6_244" cx="0" cy="0" r="1" gradientUnits="userSpaceOnUse" gradientTransform="translate(21.3334 9.8255) rotate(90) scale(5.375 3.35937)">
<stop stop-color="#47F99C"/>
<stop offset="1" stop-color="#42F799" stop-opacity="0"/>
</radialGradient>
<radialGradient id="paint3_radial_6_244" cx="0" cy="0" r="1" gradientUnits="userSpaceOnUse" gradientTransform="translate(21.6485 7.85293) rotate(138.424) scale(1.74016 1.79818)">
<stop stop-color="#5AFEA6"/>
<stop offset="1" stop-color="#8CFFC2" stop-opacity="0"/>
</radialGradient>
<radialGradient id="paint4_radial_6_244" cx="0" cy="0" r="1" gradientUnits="userSpaceOnUse" gradientTransform="translate(30.5703 16.7969) rotate(130.732) scale(23.9395 23.6284)">
<stop offset="0.231" stop-color="#46FFA1"/>
<stop offset="0.937" stop-color="#35FF99" stop-opacity="0"/>
</radialGradient>
<clipPath id="clip0_6_244">
<rect width="86" height="86" fill="white"/>
</clipPath>
</defs>
</svg>
