<svg width="85" height="85" viewBox="0 0 85 85" fill="none" xmlns="http://www.w3.org/2000/svg">
<path d="M45.1562 28.1719C45.1562 17.1693 36.2369 8.25 25.2344 8.25C14.2318 8.25 5.3125 17.1693 5.3125 28.1719V46.7656C5.3125 57.7682 14.2318 66.6875 25.2344 66.6875C36.2369 66.6875 45.1562 57.7682 45.1562 46.7656V28.1719Z" fill="#D3D3D3"/>
<path d="M45.1562 28.1719C45.1562 17.1693 36.2369 8.25 25.2344 8.25C14.2318 8.25 5.3125 17.1693 5.3125 28.1719V46.7656C5.3125 57.7682 14.2318 66.6875 25.2344 66.6875C36.2369 66.6875 45.1562 57.7682 45.1562 46.7656V28.1719Z" fill="url(#paint0_radial_10_1601)"/>
<path d="M45.1562 28.1719C45.1562 17.1693 36.2369 8.25 25.2344 8.25C14.2318 8.25 5.3125 17.1693 5.3125 28.1719V46.7656C5.3125 57.7682 14.2318 66.6875 25.2344 66.6875C36.2369 66.6875 45.1562 57.7682 45.1562 46.7656V28.1719Z" fill="url(#paint1_linear_10_1601)"/>
<path d="M45.1562 28.1719C45.1562 17.1693 36.2369 8.25 25.2344 8.25C14.2318 8.25 5.3125 17.1693 5.3125 28.1719V46.7656C5.3125 57.7682 14.2318 66.6875 25.2344 66.6875C36.2369 66.6875 45.1562 57.7682 45.1562 46.7656V28.1719Z" fill="url(#paint2_radial_10_1601)"/>
<path d="M45.1562 28.1719C45.1562 17.1693 36.2369 8.25 25.2344 8.25C14.2318 8.25 5.3125 17.1693 5.3125 28.1719V46.7656C5.3125 57.7682 14.2318 66.6875 25.2344 66.6875C36.2369 66.6875 45.1562 57.7682 45.1562 46.7656V28.1719Z" fill="url(#paint3_radial_10_1601)"/>
<path d="M45.1562 28.1719C45.1562 17.1693 36.2369 8.25 25.2344 8.25C14.2318 8.25 5.3125 17.1693 5.3125 28.1719V46.7656C5.3125 57.7682 14.2318 66.6875 25.2344 66.6875C36.2369 66.6875 45.1562 57.7682 45.1562 46.7656V28.1719Z" fill="url(#paint4_radial_10_1601)"/>
<path d="M45.1562 28.1719C45.1562 17.1693 36.2369 8.25 25.2344 8.25C14.2318 8.25 5.3125 17.1693 5.3125 28.1719V46.7656C5.3125 57.7682 14.2318 66.6875 25.2344 66.6875C36.2369 66.6875 45.1562 57.7682 45.1562 46.7656V28.1719Z" fill="url(#paint5_radial_10_1601)"/>
<path d="M45.1562 28.1719C45.1562 17.1693 36.2369 8.25 25.2344 8.25C14.2318 8.25 5.3125 17.1693 5.3125 28.1719V46.7656C5.3125 57.7682 14.2318 66.6875 25.2344 66.6875C36.2369 66.6875 45.1562 57.7682 45.1562 46.7656V28.1719Z" fill="url(#paint6_radial_10_1601)"/>
<g filter="url(#filter0_f_10_1601)">
<path d="M43.4935 22.9842C43.4935 21.7109 42.4612 20.6786 41.1878 20.6786C39.9145 20.6786 38.8822 21.7109 38.8822 22.9842V49.3608C38.8822 50.6341 39.9145 51.6664 41.1878 51.6664C42.4612 51.6664 43.4935 50.6341 43.4935 49.3608V22.9842Z" fill="#6F6873"/>
</g>
<path d="M79.6875 28.1719C79.6875 17.1693 70.7682 8.25 59.7656 8.25C48.7631 8.25 39.8438 17.1693 39.8438 28.1719V46.7656C39.8438 57.7682 48.7631 66.6875 59.7656 66.6875C70.7682 66.6875 79.6875 57.7682 79.6875 46.7656V28.1719Z" fill="url(#paint7_radial_10_1601)"/>
<path d="M79.6875 28.1719C79.6875 17.1693 70.7682 8.25 59.7656 8.25C48.7631 8.25 39.8438 17.1693 39.8438 28.1719V46.7656C39.8438 57.7682 48.7631 66.6875 59.7656 66.6875C70.7682 66.6875 79.6875 57.7682 79.6875 46.7656V28.1719Z" fill="url(#paint8_linear_10_1601)"/>
<path d="M79.6875 28.1719C79.6875 17.1693 70.7682 8.25 59.7656 8.25C48.7631 8.25 39.8438 17.1693 39.8438 28.1719V46.7656C39.8438 57.7682 48.7631 66.6875 59.7656 66.6875C70.7682 66.6875 79.6875 57.7682 79.6875 46.7656V28.1719Z" fill="url(#paint9_radial_10_1601)"/>
<path d="M61.0938 30.8281C61.0938 25.6936 56.9314 21.5312 51.7969 21.5312C46.6624 21.5312 42.5 25.6936 42.5 30.8281V44.1094C42.5 49.2439 46.6624 53.4062 51.7969 53.4062C56.9314 53.4062 61.0938 49.2439 61.0938 44.1094V30.8281Z" fill="url(#paint10_linear_10_1601)"/>
<path d="M61.0938 30.8281C61.0938 25.6936 56.9314 21.5312 51.7969 21.5312C46.6624 21.5312 42.5 25.6936 42.5 30.8281V44.1094C42.5 49.2439 46.6624 53.4062 51.7969 53.4062C56.9314 53.4062 61.0938 49.2439 61.0938 44.1094V30.8281Z" fill="url(#paint11_radial_10_1601)"/>
<path d="M26.7299 30.8281C26.7299 25.6936 22.5675 21.5312 17.433 21.5312C12.2985 21.5312 8.13611 25.6936 8.13611 30.8281V44.1094C8.13611 49.2439 12.2985 53.4062 17.433 53.4062C22.5675 53.4062 26.7299 49.2439 26.7299 44.1094V30.8281Z" fill="url(#paint12_linear_10_1601)"/>
<path d="M26.7299 30.8281C26.7299 25.6936 22.5675 21.5312 17.433 21.5312C12.2985 21.5312 8.13611 25.6936 8.13611 30.8281V44.1094C8.13611 49.2439 12.2985 53.4062 17.433 53.4062C22.5675 53.4062 26.7299 49.2439 26.7299 44.1094V30.8281Z" fill="url(#paint13_radial_10_1601)"/>
<path d="M23.2123 31.7868C24.1989 30.9655 24.1534 29.2843 23.1107 28.0317C22.068 26.779 20.4229 26.4293 19.4364 27.2505C18.4498 28.0717 18.4953 29.7529 19.538 31.0056C20.5807 32.2582 22.2258 32.608 23.2123 31.7868Z" fill="url(#paint14_radial_10_1601)"/>
<path d="M57.733 31.7868C58.7195 30.9655 58.674 29.2843 57.6313 28.0317C56.5886 26.779 54.9436 26.4293 53.957 27.2505C52.9704 28.0717 53.0159 29.7529 54.0586 31.0056C55.1014 32.2582 56.7464 32.608 57.733 31.7868Z" fill="url(#paint15_radial_10_1601)"/>
<defs>
<filter id="filter0_f_10_1601" x="37.6822" y="19.4786" width="7.01127" height="33.3878" filterUnits="userSpaceOnUse" color-interpolation-filters="sRGB">
<feFlood flood-opacity="0" result="BackgroundImageFix"/>
<feBlend mode="normal" in="SourceGraphic" in2="BackgroundImageFix" result="shape"/>
<feGaussianBlur stdDeviation="0.6" result="effect1_foregroundBlur_10_1601"/>
</filter>
<radialGradient id="paint0_radial_10_1601" cx="0" cy="0" r="1" gradientUnits="userSpaceOnUse" gradientTransform="translate(31.9578 22.8589) rotate(101.077) scale(56.1635 43.4334)">
<stop stop-color="#FAF7FC"/>
<stop offset="0.457" stop-color="#D8D0DD"/>
<stop offset="0.708" stop-color="#D0B3E3"/>
<stop offset="1" stop-color="#CFABE4"/>
</radialGradient>
<linearGradient id="paint1_linear_10_1601" x1="-3.07062" y1="41.7852" x2="22.533" y2="45.2542" gradientUnits="userSpaceOnUse">
<stop offset="0.399" stop-color="#9B969E"/>
<stop offset="1" stop-color="#9A959E" stop-opacity="0"/>
</linearGradient>
<radialGradient id="paint2_radial_10_1601" cx="0" cy="0" r="1" gradientUnits="userSpaceOnUse" gradientTransform="translate(42.1945 49.5281) rotate(-133.794) scale(53.2913 57.6834)">
<stop offset="0.844" stop-color="#9A959E" stop-opacity="0"/>
<stop offset="0.949" stop-color="#949296"/>
</radialGradient>
<radialGradient id="paint3_radial_10_1601" cx="0" cy="0" r="1" gradientUnits="userSpaceOnUse" gradientTransform="translate(50.7426 46.9659) rotate(-155.387) scale(22.8012 55.4402)">
<stop offset="0.022" stop-color="#D1AFE5"/>
<stop offset="1" stop-color="#D1AFE5" stop-opacity="0"/>
</radialGradient>
<radialGradient id="paint4_radial_10_1601" cx="0" cy="0" r="1" gradientUnits="userSpaceOnUse" gradientTransform="translate(43.2623 43.3311) rotate(180) scale(14.7458 41.8864)">
<stop stop-color="#ABA5B0"/>
<stop offset="1" stop-color="#ABA5B0" stop-opacity="0"/>
</radialGradient>
<radialGradient id="paint5_radial_10_1601" cx="0" cy="0" r="1" gradientUnits="userSpaceOnUse" gradientTransform="translate(49.8879 49.3135) rotate(-137.153) scale(20.1123 55.4157)">
<stop stop-color="#B689D0"/>
<stop offset="1" stop-color="#B689D0" stop-opacity="0"/>
</radialGradient>
<radialGradient id="paint6_radial_10_1601" cx="0" cy="0" r="1" gradientUnits="userSpaceOnUse" gradientTransform="translate(38.4044 19.0583) rotate(140.964) scale(9.33616 17.7589)">
<stop stop-color="#F3F2F4"/>
<stop offset="1" stop-color="#F3F2F4" stop-opacity="0"/>
</radialGradient>
<radialGradient id="paint7_radial_10_1601" cx="0" cy="0" r="1" gradientUnits="userSpaceOnUse" gradientTransform="translate(67.9809 26.8434) rotate(103.51) scale(52.5879 40.6683)">
<stop stop-color="#FAF7FC"/>
<stop offset="0.457" stop-color="#D8D0DD"/>
<stop offset="0.708" stop-color="#D0B3E3"/>
<stop offset="1" stop-color="#CFABE4"/>
</radialGradient>
<linearGradient id="paint8_linear_10_1601" x1="31.4606" y1="41.7852" x2="56.695" y2="44.1094" gradientUnits="userSpaceOnUse">
<stop offset="0.212" stop-color="#9B969E"/>
<stop offset="1" stop-color="#9A959E" stop-opacity="0"/>
</linearGradient>
<radialGradient id="paint9_radial_10_1601" cx="0" cy="0" r="1" gradientUnits="userSpaceOnUse" gradientTransform="translate(72.9355 19.0579) rotate(140.964) scale(9.33616 17.7589)">
<stop stop-color="#F3F2F4"/>
<stop offset="1" stop-color="#F3F2F4" stop-opacity="0"/>
</radialGradient>
<linearGradient id="paint10_linear_10_1601" x1="51.7969" y1="21.5312" x2="51.7969" y2="53.4062" gradientUnits="userSpaceOnUse">
<stop offset="0.354" stop-color="#232224"/>
<stop offset="1" stop-color="#623C86"/>
</linearGradient>
<radialGradient id="paint11_radial_10_1601" cx="0" cy="0" r="1" gradientUnits="userSpaceOnUse" gradientTransform="translate(54.2034 35.8086) rotate(90) scale(17.5977 5.77424)">
<stop offset="0.354" stop-color="#443753"/>
<stop offset="1" stop-color="#433750" stop-opacity="0"/>
</radialGradient>
<linearGradient id="paint12_linear_10_1601" x1="17.433" y1="21.5312" x2="17.433" y2="53.4062" gradientUnits="userSpaceOnUse">
<stop offset="0.354" stop-color="#232224"/>
<stop offset="1" stop-color="#623C86"/>
</linearGradient>
<radialGradient id="paint13_radial_10_1601" cx="0" cy="0" r="1" gradientUnits="userSpaceOnUse" gradientTransform="translate(19.8395 35.8086) rotate(90) scale(17.5977 5.77424)">
<stop offset="0.354" stop-color="#443753"/>
<stop offset="1" stop-color="#433750" stop-opacity="0"/>
</radialGradient>
<radialGradient id="paint14_radial_10_1601" cx="0" cy="0" r="1" gradientUnits="userSpaceOnUse" gradientTransform="translate(19.9217 27.7589) rotate(87.7401) scale(6.31352 6.64426)">
<stop stop-color="white"/>
<stop offset="1" stop-color="#F4F4F4" stop-opacity="0"/>
</radialGradient>
<radialGradient id="paint15_radial_10_1601" cx="0" cy="0" r="1" gradientUnits="userSpaceOnUse" gradientTransform="translate(54.4444 27.7572) rotate(87.7401) scale(6.31352 6.64426)">
<stop stop-color="white"/>
<stop offset="1" stop-color="#F4F4F4" stop-opacity="0"/>
</radialGradient>
</defs>
</svg>
