<svg width="84" height="84" viewBox="0 0 84 84" fill="none" xmlns="http://www.w3.org/2000/svg">
<g clip-path="url(#clip0_6_343)">
<g filter="url(#filter0_d_6_343)">
<path d="M42.8557 79.6294C63.1522 79.6294 79.6057 63.1758 79.6057 42.8794C79.6057 22.5829 63.1522 6.12938 42.8557 6.12938C22.5593 6.12938 6.10574 22.5829 6.10574 42.8794C6.10574 63.1758 22.5593 79.6294 42.8557 79.6294Z" fill="url(#paint0_radial_6_343)"/>
<path d="M42.8557 79.6294C63.1522 79.6294 79.6057 63.1758 79.6057 42.8794C79.6057 22.5829 63.1522 6.12938 42.8557 6.12938C22.5593 6.12938 6.10574 22.5829 6.10574 42.8794C6.10574 63.1758 22.5593 79.6294 42.8557 79.6294Z" fill="url(#paint1_radial_6_343)"/>
<path d="M42.8557 79.6294C63.1522 79.6294 79.6057 63.1758 79.6057 42.8794C79.6057 22.5829 63.1522 6.12938 42.8557 6.12938C22.5593 6.12938 6.10574 22.5829 6.10574 42.8794C6.10574 63.1758 22.5593 79.6294 42.8557 79.6294Z" fill="url(#paint2_radial_6_343)"/>
<path d="M25.7932 42.8794C30.8673 42.8794 34.9807 38.766 34.9807 33.6919C34.9807 28.6178 30.8673 24.5044 25.7932 24.5044C20.7191 24.5044 16.6057 28.6178 16.6057 33.6919C16.6057 38.766 20.7191 42.8794 25.7932 42.8794Z" fill="url(#paint3_linear_6_343)"/>
<g filter="url(#filter1_f_6_343)">
<path d="M42.7245 63.7481V63.8531L42.8295 63.8768C43.8017 64.0742 44.8056 64.053 45.7686 63.8149C46.7316 63.5767 47.6296 63.1275 48.3977 62.4997C49.1658 61.8719 49.7847 61.0812 50.2098 60.1849C50.6348 59.2885 50.8553 58.3089 50.8553 57.3169C50.8553 56.3249 50.6348 55.3453 50.2098 54.4489C49.7847 53.5526 49.1658 52.7619 48.3977 52.1341C47.6296 51.5063 46.7316 51.0571 45.7686 50.8189C44.8056 50.5807 43.8017 50.5596 42.8295 50.757L42.7245 50.778V50.8856V63.7481Z" stroke="url(#paint4_linear_6_343)" stroke-width="0.1"/>
</g>
<g filter="url(#filter2_f_6_343)">
<path d="M59.9183 37.6294C63.5426 37.6294 66.4808 34.6912 66.4808 31.0669C66.4808 27.4425 63.5426 24.5044 59.9183 24.5044C56.2939 24.5044 53.3558 27.4425 53.3558 31.0669C53.3558 34.6912 56.2939 37.6294 59.9183 37.6294Z" fill="url(#paint5_radial_6_343)"/>
<path d="M59.9183 37.8919C63.6876 37.8919 66.7433 34.8362 66.7433 31.0669C66.7433 27.2975 63.6876 24.2419 59.9183 24.2419C56.1489 24.2419 53.0933 27.2975 53.0933 31.0669C53.0933 34.8362 56.1489 37.8919 59.9183 37.8919Z" stroke="url(#paint6_linear_6_343)" stroke-width="0.2"/>
</g>
<path d="M44.1682 63.8794C47.7926 63.8794 50.7307 60.9412 50.7307 57.3169C50.7307 53.6925 47.7926 50.7544 44.1682 50.7544C40.5438 50.7544 37.6057 53.6925 37.6057 57.3169C37.6057 60.9412 40.5438 63.8794 44.1682 63.8794Z" fill="url(#paint7_linear_6_343)"/>
<path fill-rule="evenodd" clip-rule="evenodd" d="M27.6019 76.3245C21.9432 73.7343 17.0317 69.7548 13.3245 64.7561C14.0796 63.8057 15.0155 63.0143 16.0782 62.4276C17.141 61.841 18.3094 61.4708 19.516 61.3384C20.7227 61.2059 21.9436 61.3139 23.1082 61.6561C24.2729 61.9983 25.3582 62.5679 26.3014 63.332C27.2446 64.0961 28.0271 65.0395 28.6036 66.1078C29.1801 67.176 29.5392 68.3479 29.6601 69.5558C29.781 70.7636 29.6614 71.9835 29.3081 73.1448C28.9548 74.3061 28.3749 75.3886 27.6019 76.3245Z" fill="url(#paint8_linear_6_343)"/>
<g filter="url(#filter3_f_6_343)">
<path d="M76.3612 56.6213C74.0328 62.286 70.4418 67.0215 65.7772 70.8514C64.3387 69.2291 63.8557 67.5308 63.8557 65.1919C63.8557 62.7552 64.8237 60.4183 66.5467 58.6953C68.2697 56.9723 70.6065 56.0044 73.0432 56.0044C74.4082 56.0044 75.1957 56.0884 76.3612 56.6213Z" stroke="url(#paint9_linear_6_343)" stroke-width="0.3"/>
</g>
<path fill-rule="evenodd" clip-rule="evenodd" d="M76.8626 56.8339C74.5467 62.4604 70.8735 67.426 66.171 71.2871C64.772 69.711 63.9574 67.7019 63.8638 65.5965C63.7701 63.4911 64.4031 61.4176 65.6566 59.7234C66.9101 58.0293 68.7079 56.8176 70.7487 56.2916C72.7894 55.7655 74.9463 55.9569 76.8626 56.8339Z" fill="url(#paint10_linear_6_343)"/>
<path fill-rule="evenodd" clip-rule="evenodd" d="M76.8626 56.8339C74.5467 62.4604 70.8735 67.426 66.171 71.2871C64.772 69.711 63.9574 67.7019 63.8638 65.5965C63.7701 63.4911 64.4031 61.4176 65.6566 59.7234C66.9101 58.0293 68.7079 56.8176 70.7487 56.2916C72.7894 55.7655 74.9463 55.9569 76.8626 56.8339Z" fill="url(#paint11_radial_6_343)"/>
<path fill-rule="evenodd" clip-rule="evenodd" d="M76.8626 56.8339C74.5467 62.4604 70.8735 67.426 66.171 71.2871C64.772 69.711 63.9574 67.7019 63.8638 65.5965C63.7701 63.4911 64.4031 61.4176 65.6566 59.7234C66.9101 58.0293 68.7079 56.8176 70.7487 56.2916C72.7894 55.7655 74.9463 55.9569 76.8626 56.8339Z" fill="url(#paint12_radial_6_343)"/>
<g filter="url(#filter4_i_6_343)">
<path fill-rule="evenodd" clip-rule="evenodd" d="M42.8557 6.12938V79.6294C22.5592 79.6294 6.10574 63.1759 6.10574 42.8794C6.10574 22.5829 22.5592 6.12938 42.8557 6.12938Z" fill="url(#paint13_radial_6_343)"/>
<path fill-rule="evenodd" clip-rule="evenodd" d="M42.8557 6.12938V79.6294C22.5592 79.6294 6.10574 63.1759 6.10574 42.8794C6.10574 22.5829 22.5592 6.12938 42.8557 6.12938Z" fill="url(#paint14_radial_6_343)"/>
</g>
<g filter="url(#filter5_f_6_343)">
<path d="M25.7932 42.8794C30.8673 42.8794 34.9807 38.766 34.9807 33.6919C34.9807 28.6178 30.8673 24.5044 25.7932 24.5044C20.7191 24.5044 16.6057 28.6178 16.6057 33.6919C16.6057 38.766 20.7191 42.8794 25.7932 42.8794Z" stroke="url(#paint15_linear_6_343)" stroke-width="0.2"/>
</g>
<path d="M25.7932 42.8794C30.8673 42.8794 34.9807 38.766 34.9807 33.6919C34.9807 28.6178 30.8673 24.5044 25.7932 24.5044C20.7191 24.5044 16.6057 28.6178 16.6057 33.6919C16.6057 38.766 20.7191 42.8794 25.7932 42.8794Z" fill="url(#paint16_radial_6_343)"/>
<path d="M25.7932 42.8794C30.8673 42.8794 34.9807 38.766 34.9807 33.6919C34.9807 28.6178 30.8673 24.5044 25.7932 24.5044C20.7191 24.5044 16.6057 28.6178 16.6057 33.6919C16.6057 38.766 20.7191 42.8794 25.7932 42.8794Z" fill="url(#paint17_radial_6_343)"/>
<path d="M25.7932 42.8794C30.8673 42.8794 34.9807 38.766 34.9807 33.6919C34.9807 28.6178 30.8673 24.5044 25.7932 24.5044C20.7191 24.5044 16.6057 28.6178 16.6057 33.6919C16.6057 38.766 20.7191 42.8794 25.7932 42.8794Z" fill="url(#paint18_radial_6_343)"/>
<path fill-rule="evenodd" clip-rule="evenodd" d="M27.6019 76.3245C21.9432 73.7343 17.0317 69.7548 13.3245 64.7561C14.0796 63.8057 15.0155 63.0143 16.0782 62.4276C17.141 61.841 18.3094 61.4708 19.516 61.3384C20.7227 61.2059 21.9436 61.3139 23.1082 61.6561C24.2729 61.9983 25.3582 62.5679 26.3014 63.332C27.2446 64.0961 28.0271 65.0395 28.6036 66.1078C29.1801 67.176 29.5392 68.3479 29.6601 69.5558C29.781 70.7636 29.6614 71.9835 29.3081 73.1448C28.9548 74.3061 28.3749 75.3886 27.6019 76.3245Z" fill="url(#paint19_linear_6_343)"/>
<path d="M42.8557 63.7481C43.8088 63.9417 44.793 63.9209 45.7372 63.6874C46.6813 63.454 47.5617 63.0135 48.3147 62.398C49.0678 61.7826 49.6746 61.0074 50.0913 60.1286C50.508 59.2498 50.7241 58.2894 50.7241 57.3169C50.7241 56.3443 50.508 55.3839 50.0913 54.5051C49.6746 53.6264 49.0678 52.8512 48.3147 52.2357C47.5617 51.6202 46.6813 51.1798 45.7372 50.9463C44.793 50.7128 43.8088 50.6921 42.8557 50.8856V63.7481Z" fill="url(#paint20_radial_6_343)"/>
<path d="M42.8557 63.7481C43.8088 63.9417 44.793 63.9209 45.7372 63.6874C46.6813 63.454 47.5617 63.0135 48.3147 62.398C49.0678 61.7826 49.6746 61.0074 50.0913 60.1286C50.508 59.2498 50.7241 58.2894 50.7241 57.3169C50.7241 56.3443 50.508 55.3839 50.0913 54.5051C49.6746 53.6264 49.0678 52.8512 48.3147 52.2357C47.5617 51.6202 46.6813 51.1798 45.7372 50.9463C44.793 50.7128 43.8088 50.6921 42.8557 50.8856V63.7481Z" fill="url(#paint21_radial_6_343)"/>
<path d="M42.8558 50.8856C41.3723 51.1869 40.0385 51.9917 39.0805 53.1638C38.1225 54.3359 37.5992 55.8031 37.5992 57.3169C37.5992 58.8306 38.1225 60.2979 39.0805 61.47C40.0385 62.642 41.3723 63.4469 42.8558 63.7481V50.8856Z" fill="url(#paint22_radial_6_343)"/>
<path d="M42.8558 50.8856C41.3723 51.1869 40.0385 51.9917 39.0805 53.1638C38.1225 54.3359 37.5992 55.8031 37.5992 57.3169C37.5992 58.8306 38.1225 60.2979 39.0805 61.47C40.0385 62.642 41.3723 63.4469 42.8558 63.7481V50.8856Z" fill="url(#paint23_radial_6_343)"/>
<g filter="url(#filter6_f_6_343)">
<path fill-rule="evenodd" clip-rule="evenodd" d="M42.8557 19.005V11.4319C44.5856 11.9831 45.822 13.4689 45.822 15.2198C45.822 16.968 44.5856 18.4564 42.8557 19.005Z" fill="url(#paint24_radial_6_343)"/>
</g>
<g filter="url(#filter7_f_6_343)">
<path fill-rule="evenodd" clip-rule="evenodd" d="M42.8557 11.4319C42.3802 11.2817 41.8844 11.2056 41.3857 11.2061C38.9313 11.2061 36.9442 13.0016 36.9442 15.2198C36.9442 17.4353 38.9313 19.2308 41.3831 19.2308C41.9002 19.2308 42.3963 19.152 42.8557 19.005V11.4319Z" fill="url(#paint25_radial_6_343)"/>
<path fill-rule="evenodd" clip-rule="evenodd" d="M42.8557 11.4319C42.3802 11.2817 41.8844 11.2056 41.3857 11.2061C38.9313 11.2061 36.9442 13.0016 36.9442 15.2198C36.9442 17.4353 38.9313 19.2308 41.3831 19.2308C41.9002 19.2308 42.3963 19.152 42.8557 19.005V11.4319Z" fill="url(#paint26_radial_6_343)"/>
</g>
</g>
</g>
<defs>
<filter id="filter0_d_6_343" x="5.10574" y="6.12938" width="79.5" height="80.5" filterUnits="userSpaceOnUse" color-interpolation-filters="sRGB">
<feFlood flood-opacity="0" result="BackgroundImageFix"/>
<feColorMatrix in="SourceAlpha" type="matrix" values="0 0 0 0 0 0 0 0 0 0 0 0 0 0 0 0 0 0 127 0" result="hardAlpha"/>
<feOffset dx="2" dy="4"/>
<feGaussianBlur stdDeviation="1.5"/>
<feComposite in2="hardAlpha" operator="out"/>
<feColorMatrix type="matrix" values="0 0 0 0 0 0 0 0 0 0 0 0 0 0 0 0 0 0 0.1 0"/>
<feBlend mode="normal" in2="BackgroundImageFix" result="effect1_dropShadow_6_343"/>
<feBlend mode="normal" in="SourceGraphic" in2="effect1_dropShadow_6_343" result="shape"/>
</filter>
<filter id="filter1_f_6_343" x="42.4745" y="50.3731" width="8.63077" height="13.8875" filterUnits="userSpaceOnUse" color-interpolation-filters="sRGB">
<feFlood flood-opacity="0" result="BackgroundImageFix"/>
<feBlend mode="normal" in="SourceGraphic" in2="BackgroundImageFix" result="shape"/>
<feGaussianBlur stdDeviation="0.1" result="effect1_foregroundBlur_6_343"/>
</filter>
<filter id="filter2_f_6_343" x="52.7933" y="23.9419" width="14.25" height="14.25" filterUnits="userSpaceOnUse" color-interpolation-filters="sRGB">
<feFlood flood-opacity="0" result="BackgroundImageFix"/>
<feBlend mode="normal" in="SourceGraphic" in2="BackgroundImageFix" result="shape"/>
<feGaussianBlur stdDeviation="0.1" result="effect1_foregroundBlur_6_343"/>
</filter>
<filter id="filter3_f_6_343" x="63.4057" y="55.5544" width="13.4491" height="15.8045" filterUnits="userSpaceOnUse" color-interpolation-filters="sRGB">
<feFlood flood-opacity="0" result="BackgroundImageFix"/>
<feBlend mode="normal" in="SourceGraphic" in2="BackgroundImageFix" result="shape"/>
<feGaussianBlur stdDeviation="0.15" result="effect1_foregroundBlur_6_343"/>
</filter>
<filter id="filter4_i_6_343" x="6.10574" y="5.72938" width="37" height="73.9" filterUnits="userSpaceOnUse" color-interpolation-filters="sRGB">
<feFlood flood-opacity="0" result="BackgroundImageFix"/>
<feBlend mode="normal" in="SourceGraphic" in2="BackgroundImageFix" result="shape"/>
<feColorMatrix in="SourceAlpha" type="matrix" values="0 0 0 0 0 0 0 0 0 0 0 0 0 0 0 0 0 0 127 0" result="hardAlpha"/>
<feOffset dx="0.25" dy="-0.4"/>
<feGaussianBlur stdDeviation="0.625"/>
<feComposite in2="hardAlpha" operator="arithmetic" k2="-1" k3="1"/>
<feColorMatrix type="matrix" values="0 0 0 0 0.498039 0 0 0 0 0.466667 0 0 0 0 0.529412 0 0 0 1 0"/>
<feBlend mode="normal" in2="shape" result="effect1_innerShadow_6_343"/>
</filter>
<filter id="filter5_f_6_343" x="16.3057" y="24.2044" width="18.975" height="18.975" filterUnits="userSpaceOnUse" color-interpolation-filters="sRGB">
<feFlood flood-opacity="0" result="BackgroundImageFix"/>
<feBlend mode="normal" in="SourceGraphic" in2="BackgroundImageFix" result="shape"/>
<feGaussianBlur stdDeviation="0.1" result="effect1_foregroundBlur_6_343"/>
</filter>
<filter id="filter6_f_6_343" x="42.7557" y="11.3319" width="3.16625" height="7.77312" filterUnits="userSpaceOnUse" color-interpolation-filters="sRGB">
<feFlood flood-opacity="0" result="BackgroundImageFix"/>
<feBlend mode="normal" in="SourceGraphic" in2="BackgroundImageFix" result="shape"/>
<feGaussianBlur stdDeviation="0.05" result="effect1_foregroundBlur_6_343"/>
</filter>
<filter id="filter7_f_6_343" x="36.8442" y="11.1061" width="6.1115" height="8.22463" filterUnits="userSpaceOnUse" color-interpolation-filters="sRGB">
<feFlood flood-opacity="0" result="BackgroundImageFix"/>
<feBlend mode="normal" in="SourceGraphic" in2="BackgroundImageFix" result="shape"/>
<feGaussianBlur stdDeviation="0.05" result="effect1_foregroundBlur_6_343"/>
</filter>
<radialGradient id="paint0_radial_6_343" cx="0" cy="0" r="1" gradientUnits="userSpaceOnUse" gradientTransform="translate(65.3332 29.5928) rotate(130.452) scale(40.9644 55.6098)">
<stop stop-color="#FFF8AB"/>
<stop offset="1" stop-color="#FFB74E"/>
</radialGradient>
<radialGradient id="paint1_radial_6_343" cx="0" cy="0" r="1" gradientUnits="userSpaceOnUse" gradientTransform="translate(35.4716 77.0044) rotate(-57.505) scale(30.539 44.9715)">
<stop stop-color="#FA9F56"/>
<stop offset="1" stop-color="#FA9F56" stop-opacity="0"/>
</radialGradient>
<radialGradient id="paint2_radial_6_343" cx="0" cy="0" r="1" gradientUnits="userSpaceOnUse" gradientTransform="translate(44.4978 32.2124) rotate(75.771) scale(47.3912)">
<stop offset="0.837" stop-color="#D7908F" stop-opacity="0"/>
<stop offset="1" stop-color="#D7908F"/>
</radialGradient>
<linearGradient id="paint3_linear_6_343" x1="31.9173" y1="27.5678" x2="19.6691" y2="39.816" gradientUnits="userSpaceOnUse">
<stop stop-color="#F5C224"/>
<stop offset="1" stop-color="#FFEF71"/>
</linearGradient>
<linearGradient id="paint4_linear_6_343" x1="49.7464" y1="50.7544" x2="44.415" y2="64.533" gradientUnits="userSpaceOnUse">
<stop stop-color="#FEAE52"/>
<stop offset="1" stop-color="#FFB654"/>
</linearGradient>
<radialGradient id="paint5_radial_6_343" cx="0" cy="0" r="1" gradientUnits="userSpaceOnUse" gradientTransform="translate(53.3558 36.0413) rotate(-37.9457) scale(23.0228 7.57625)">
<stop offset="0.2" stop-color="#FFF8B1"/>
<stop offset="1" stop-color="#FFD975"/>
</radialGradient>
<linearGradient id="paint6_linear_6_343" x1="54.8704" y1="24.5044" x2="62.9265" y2="37.6294" gradientUnits="userSpaceOnUse">
<stop stop-color="#FFF9AC"/>
<stop offset="0.492" stop-color="#FFF9AC" stop-opacity="0"/>
<stop offset="1" stop-color="#FFF9AC"/>
</linearGradient>
<linearGradient id="paint7_linear_6_343" x1="48.5441" y1="52.941" x2="39.7923" y2="61.6928" gradientUnits="userSpaceOnUse">
<stop stop-color="#F5C224"/>
<stop offset="1" stop-color="#FFEF71"/>
</linearGradient>
<linearGradient id="paint8_linear_6_343" x1="29.7308" y1="65.1919" x2="11.3558" y2="69.1294" gradientUnits="userSpaceOnUse">
<stop stop-color="#F5C224"/>
<stop offset="1" stop-color="#FCE35D"/>
</linearGradient>
<linearGradient id="paint9_linear_6_343" x1="74.3085" y1="55.1014" x2="65.5331" y2="69.951" gradientUnits="userSpaceOnUse">
<stop stop-color="#F5BD64"/>
<stop offset="1" stop-color="#FFDC75"/>
</linearGradient>
<linearGradient id="paint10_linear_6_343" x1="69.2606" y1="58.1726" x2="68.8826" y2="69.0926" gradientUnits="userSpaceOnUse">
<stop stop-color="#FFD36A"/>
<stop offset="1" stop-color="#EFB872"/>
</linearGradient>
<radialGradient id="paint11_radial_6_343" cx="0" cy="0" r="1" gradientUnits="userSpaceOnUse" gradientTransform="translate(72.6495 71.2871) rotate(-98.7873) scale(14.9861 12.4287)">
<stop offset="0.85" stop-color="#DFA14C" stop-opacity="0"/>
<stop offset="1" stop-color="#C28255"/>
</radialGradient>
<radialGradient id="paint12_radial_6_343" cx="0" cy="0" r="1" gradientUnits="userSpaceOnUse" gradientTransform="translate(72.0941 61.5855) rotate(122.849) scale(12.4008 10.554)">
<stop offset="0.718" stop-color="#FFE38A" stop-opacity="0"/>
<stop offset="0.952" stop-color="#FFE38A"/>
</radialGradient>
<radialGradient id="paint13_radial_6_343" cx="0" cy="0" r="1" gradientUnits="userSpaceOnUse" gradientTransform="translate(42.8586 27.9491) rotate(123.566) scale(42.1357 48.1275)">
<stop stop-color="#764E9F"/>
<stop offset="1" stop-color="#59357A"/>
</radialGradient>
<radialGradient id="paint14_radial_6_343" cx="0" cy="0" r="1" gradientUnits="userSpaceOnUse" gradientTransform="translate(6.92474 47.964) rotate(-21.0375) scale(25.1364 59.0953)">
<stop stop-color="#4B4255"/>
<stop offset="1" stop-color="#4B4255" stop-opacity="0"/>
</radialGradient>
<linearGradient id="paint15_linear_6_343" x1="34.9807" y1="26.985" x2="18.1072" y2="40.425" gradientUnits="userSpaceOnUse">
<stop stop-color="#603D83"/>
<stop offset="1" stop-color="#603D83" stop-opacity="0"/>
</linearGradient>
<radialGradient id="paint16_radial_6_343" cx="0" cy="0" r="1" gradientUnits="userSpaceOnUse" gradientTransform="translate(22.0342 32.9595) rotate(10.3889) scale(14.3683 16.7276)">
<stop stop-color="#6D4A8D"/>
<stop offset="1" stop-color="#60427C"/>
</radialGradient>
<radialGradient id="paint17_radial_6_343" cx="0" cy="0" r="1" gradientUnits="userSpaceOnUse" gradientTransform="translate(26.5728 33.6919) rotate(-166.271) scale(10.2614 11.365)">
<stop offset="0.886" stop-color="#8260A1" stop-opacity="0"/>
<stop offset="1" stop-color="#8260A1"/>
</radialGradient>
<radialGradient id="paint18_radial_6_343" cx="0" cy="0" r="1" gradientUnits="userSpaceOnUse" gradientTransform="translate(31.0846 23.5214) rotate(109.781) scale(20.5723 20.5723)">
<stop offset="0.82" stop-color="#614879" stop-opacity="0"/>
<stop offset="1" stop-color="#614879"/>
</radialGradient>
<linearGradient id="paint19_linear_6_343" x1="29.7308" y1="65.1919" x2="11.3558" y2="69.1294" gradientUnits="userSpaceOnUse">
<stop stop-color="#0F0F0F"/>
<stop offset="1" stop-color="#704E8D"/>
</linearGradient>
<radialGradient id="paint20_radial_6_343" cx="0" cy="0" r="1" gradientUnits="userSpaceOnUse" gradientTransform="translate(44.565 64.957) rotate(-80.322) scale(9.89538 8.11792)">
<stop stop-color="#FFCC72"/>
<stop offset="0.898" stop-color="#F6A465"/>
</radialGradient>
<radialGradient id="paint21_radial_6_343" cx="0" cy="0" r="1" gradientUnits="userSpaceOnUse" gradientTransform="translate(43.5828 59.5901) rotate(-52.0379) scale(8.72773 8.00513)">
<stop offset="0.74" stop-color="#D9895F" stop-opacity="0"/>
<stop offset="1" stop-color="#D9895F"/>
</radialGradient>
<radialGradient id="paint22_radial_6_343" cx="0" cy="0" r="1" gradientUnits="userSpaceOnUse" gradientTransform="translate(40.2308 62.4041) rotate(-68.51) scale(11.1963 6.8624)">
<stop offset="0.222" stop-color="#724D94"/>
<stop offset="1" stop-color="#6F4197"/>
</radialGradient>
<radialGradient id="paint23_radial_6_343" cx="0" cy="0" r="1" gradientUnits="userSpaceOnUse" gradientTransform="translate(42.8558 53.3899) rotate(90) scale(11.2152 7.27765)">
<stop offset="0.692" stop-color="#8B70A4" stop-opacity="0"/>
<stop offset="1" stop-color="#8B70A4"/>
</radialGradient>
<radialGradient id="paint24_radial_6_343" cx="0" cy="0" r="1" gradientUnits="userSpaceOnUse" gradientTransform="translate(43.8165 15.2198) rotate(180) scale(2.71525 3.45594)">
<stop stop-color="#F5BE69"/>
<stop offset="1" stop-color="#C99C56"/>
</radialGradient>
<radialGradient id="paint25_radial_6_343" cx="0" cy="0" r="1" gradientUnits="userSpaceOnUse" gradientTransform="translate(44.3205 15.2198) rotate(180) scale(6.54365 7.30186)">
<stop offset="0.286" stop-color="#79529B"/>
<stop offset="1" stop-color="#A276C9"/>
</radialGradient>
<radialGradient id="paint26_radial_6_343" cx="0" cy="0" r="1" gradientUnits="userSpaceOnUse" gradientTransform="translate(40.2307 15.2198) scale(5.5928 5.05281)">
<stop offset="0.711" stop-color="#664581" stop-opacity="0"/>
<stop offset="1" stop-color="#664581"/>
</radialGradient>
<clipPath id="clip0_6_343">
<rect width="84" height="84" fill="white"/>
</clipPath>
</defs>
</svg>
