<svg width="125" height="15" viewBox="0 0 125 15" fill="none" xmlns="http://www.w3.org/2000/svg">
<path d="M6.23438 14.8906C5.52604 14.8906 4.83854 14.7604 4.17188 14.5C3.50521 14.2396 2.91146 13.8542 2.39062 13.3438C1.88021 12.8333 1.46875 12.2031 1.15625 11.4531C0.854167 10.7031 0.703125 9.83333 0.703125 8.84375C0.703125 7.92708 0.833333 7.02604 1.09375 6.14062C1.35417 5.25521 1.71354 4.46875 2.17188 3.78125C2.63021 3.08333 3.17708 2.52083 3.8125 2.09375C4.45833 1.66667 5.16146 1.45312 5.92188 1.45312C6.47396 1.45312 6.94271 1.56771 7.32812 1.79688C7.71354 2.01562 8.02604 2.28646 8.26562 2.60938C8.50521 2.92188 8.67708 3.26042 8.78125 3.625C8.89583 3.98958 8.95312 4.3125 8.95312 4.59375C8.95312 4.80208 8.89583 4.98958 8.78125 5.15625C8.67708 5.32292 8.54688 5.46354 8.39062 5.57812C8.23438 5.69271 8.0625 5.78125 7.875 5.84375C7.6875 5.89583 7.52083 5.91667 7.375 5.90625C7.22917 5.89583 7.10938 5.84375 7.01562 5.75C6.93229 5.65625 6.90625 5.51562 6.9375 5.32812C6.89583 5.19271 6.85417 5.02604 6.8125 4.82812C6.78125 4.63021 6.71875 4.44271 6.625 4.26562C6.54167 4.07812 6.42188 3.92188 6.26562 3.79688C6.10938 3.66146 5.89583 3.59375 5.625 3.59375C5.33333 3.59375 5.04688 3.73438 4.76562 4.01562C4.49479 4.28646 4.25 4.66146 4.03125 5.14062C3.82292 5.61979 3.65104 6.17708 3.51562 6.8125C3.39062 7.44792 3.32812 8.125 3.32812 8.84375C3.32812 9.47917 3.40625 10.0417 3.5625 10.5312C3.72917 11.0208 3.95833 11.4323 4.25 11.7656C4.54167 12.099 4.88542 12.3542 5.28125 12.5312C5.6875 12.6979 6.125 12.7812 6.59375 12.7812C7.21875 12.7812 7.76042 12.6667 8.21875 12.4375C8.6875 12.1979 9.08333 11.8854 9.40625 11.5C9.72917 11.1146 9.98958 10.6823 10.1875 10.2031C10.3854 9.72396 10.5312 9.23958 10.625 8.75C10.6979 8.39583 10.8438 8.16146 11.0625 8.04688C11.2917 7.92188 11.5208 7.89062 11.75 7.95312C11.9896 8.01562 12.1927 8.15104 12.3594 8.35938C12.5365 8.55729 12.6094 8.79688 12.5781 9.07812C12.5365 9.40104 12.4583 9.77083 12.3438 10.1875C12.2396 10.6042 12.0833 11.026 11.875 11.4531C11.6667 11.8802 11.401 12.3021 11.0781 12.7188C10.7656 13.125 10.3802 13.4896 9.92188 13.8125C9.46354 14.1354 8.92708 14.3958 8.3125 14.5938C7.70833 14.7917 7.01562 14.8906 6.23438 14.8906ZM22.3281 8.71875C22.349 8.59375 22.4167 8.48958 22.5312 8.40625C22.6562 8.32292 22.7969 8.26562 22.9531 8.23438C23.1094 8.20312 23.2708 8.20312 23.4375 8.23438C23.6146 8.26562 23.7656 8.33854 23.8906 8.45312C24.026 8.55729 24.1198 8.70833 24.1719 8.90625C24.2344 9.09375 24.2292 9.33854 24.1562 9.64062C24.0625 10.0781 23.9062 10.4896 23.6875 10.875C23.4792 11.25 23.2135 11.5833 22.8906 11.875C22.5677 12.1667 22.1875 12.3958 21.75 12.5625C21.3125 12.7292 20.8229 12.8125 20.2812 12.8125C19.9896 12.8125 19.7135 12.7969 19.4531 12.7656C19.2031 12.7344 18.9583 12.6771 18.7188 12.5938C18.3229 13.2812 17.8125 13.8333 17.1875 14.25C16.5625 14.6771 15.7917 14.8906 14.875 14.8906C14.0625 14.8906 13.3646 14.7292 12.7812 14.4062C12.1979 14.0938 11.7135 13.6667 11.3281 13.125C10.9427 12.5729 10.6562 11.9375 10.4688 11.2188C10.2917 10.5 10.2031 9.73958 10.2031 8.9375C10.2031 7.76042 10.3385 6.70833 10.6094 5.78125C10.8906 4.84375 11.2135 4.05208 11.5781 3.40625C11.9427 2.75 12.3021 2.25 12.6562 1.90625C13.0208 1.5625 13.2917 1.39062 13.4688 1.39062C13.6771 1.39062 13.8646 1.48438 14.0312 1.67188C14.2083 1.84896 14.3333 2.0625 14.4062 2.3125C14.4896 2.55208 14.5104 2.79688 14.4688 3.04688C14.4375 3.29688 14.3177 3.48958 14.1094 3.625C13.9844 3.82292 13.8333 4.05208 13.6562 4.3125C13.4896 4.57292 13.3281 4.90104 13.1719 5.29688C13.026 5.68229 12.901 6.15625 12.7969 6.71875C12.6927 7.28125 12.6406 7.95833 12.6406 8.75C12.6406 9.42708 12.6979 10.0156 12.8125 10.5156C12.9375 11.0156 13.1042 11.4375 13.3125 11.7812C13.5312 12.1146 13.776 12.3646 14.0469 12.5312C14.3281 12.6979 14.625 12.7812 14.9375 12.7812C15.3958 12.7812 15.7708 12.6719 16.0625 12.4531C16.3646 12.224 16.6198 11.9271 16.8281 11.5625C16.0781 10.9167 15.5052 10.099 15.1094 9.10938C14.724 8.10938 14.5312 7.03125 14.5312 5.875C14.5312 5.375 14.5833 4.90104 14.6875 4.45312C14.8021 3.99479 14.9635 3.59375 15.1719 3.25C15.3906 2.90625 15.6615 2.63542 15.9844 2.4375C16.3073 2.22917 16.6823 2.125 17.1094 2.125C17.4844 2.125 17.8385 2.26042 18.1719 2.53125C18.5052 2.80208 18.7969 3.17708 19.0469 3.65625C19.2969 4.13542 19.4896 4.70312 19.625 5.35938C19.7708 6.01562 19.8438 6.72917 19.8438 7.5C19.8438 8.09375 19.8073 8.68229 19.7344 9.26562C19.6615 9.84896 19.5469 10.4115 19.3906 10.9531C19.5052 10.9948 19.6094 11.0208 19.7031 11.0312C19.8073 11.0312 19.9167 11.0312 20.0312 11.0312C20.375 11.0312 20.6771 10.9688 20.9375 10.8438C21.2083 10.7188 21.4375 10.5521 21.625 10.3438C21.8125 10.1354 21.9635 9.89062 22.0781 9.60938C22.1927 9.32812 22.276 9.03125 22.3281 8.71875ZM16.2188 5.75C16.2188 6.46875 16.3281 7.15104 16.5469 7.79688C16.776 8.44271 17.0729 9.00521 17.4375 9.48438C17.5 8.97396 17.5312 8.48438 17.5312 8.01562C17.5312 7.47396 17.5208 6.97396 17.5 6.51562C17.4896 6.04688 17.4531 5.64583 17.3906 5.3125C17.3385 4.97917 17.2604 4.71875 17.1562 4.53125C17.0625 4.33333 16.9323 4.23438 16.7656 4.23438C16.401 4.23438 16.2188 4.73958 16.2188 5.75ZM22.3438 3.34375C22.3438 3.04167 22.3177 2.82292 22.2656 2.6875C22.224 2.55208 22.2031 2.42708 22.2031 2.3125C22.2031 2.15625 22.2865 2.03125 22.4531 1.9375C22.6198 1.83333 22.8177 1.78125 23.0469 1.78125C23.5781 1.78125 23.9948 1.92188 24.2969 2.20312C24.6094 2.47396 24.7656 2.80208 24.7656 3.1875V4.625C24.9844 4.17708 25.2188 3.76042 25.4688 3.375C25.7292 2.98958 26.0052 2.65625 26.2969 2.375C26.599 2.08333 26.9167 1.85938 27.25 1.70312C27.5938 1.53646 27.9635 1.45312 28.3594 1.45312C28.8906 1.45312 29.3281 1.55208 29.6719 1.75C30.0156 1.94792 30.2865 2.20312 30.4844 2.51562C30.6823 2.82812 30.8177 3.17708 30.8906 3.5625C30.974 3.94792 31.0156 4.32292 31.0156 4.6875V11.3125C31.0156 11.3854 31.0208 11.5052 31.0312 11.6719C31.0417 11.8281 31.0729 11.9896 31.125 12.1562C31.1771 12.3229 31.2552 12.4688 31.3594 12.5938C31.474 12.7188 31.6354 12.7812 31.8438 12.7812C32.1667 12.7812 32.4427 12.6667 32.6719 12.4375C32.9115 12.2083 33.1146 11.9219 33.2812 11.5781C33.4583 11.2344 33.599 10.8646 33.7031 10.4688C33.8177 10.0625 33.9115 9.68229 33.9844 9.32812C34.0469 8.99479 34.151 8.75521 34.2969 8.60938C34.4427 8.45312 34.5938 8.375 34.75 8.375C34.875 8.375 35.0052 8.41667 35.1406 8.5C35.276 8.57292 35.3958 8.67188 35.5 8.79688C35.6146 8.92188 35.7031 9.0625 35.7656 9.21875C35.8385 9.375 35.875 9.53125 35.875 9.6875C35.875 9.70833 35.875 9.73438 35.875 9.76562C35.875 9.79688 35.8646 9.84375 35.8438 9.90625C35.7083 10.4375 35.5208 10.9948 35.2812 11.5781C35.0521 12.1615 34.75 12.6979 34.375 13.1875C34.0104 13.6771 33.5729 14.0833 33.0625 14.4062C32.5521 14.7292 31.9531 14.8906 31.2656 14.8906C30.8385 14.8906 30.4583 14.8073 30.125 14.6406C29.8021 14.4844 29.5208 14.2708 29.2812 14C29.0521 13.7292 28.875 13.4115 28.75 13.0469C28.6354 12.6823 28.5781 12.2969 28.5781 11.8906V5.39062C28.5781 5.14062 28.5729 4.90625 28.5625 4.6875C28.5521 4.46875 28.5208 4.27604 28.4688 4.10938C28.4271 3.94271 28.3594 3.8125 28.2656 3.71875C28.1823 3.61458 28.0625 3.5625 27.9062 3.5625C27.6771 3.5625 27.3958 3.71875 27.0625 4.03125C26.7292 4.34375 26.401 4.75 26.0781 5.25C25.7552 5.75 25.4688 6.31771 25.2188 6.95312C24.9792 7.57812 24.8281 8.20833 24.7656 8.84375V13.5156C24.7656 13.6719 24.7604 13.8333 24.75 14C24.75 14.1562 24.7188 14.2969 24.6562 14.4219C24.6042 14.5573 24.5156 14.6667 24.3906 14.75C24.276 14.8438 24.1042 14.8906 23.875 14.8906C23.7188 14.8906 23.5469 14.8698 23.3594 14.8281C23.1823 14.7969 23.0156 14.7292 22.8594 14.625C22.7135 14.5312 22.5885 14.3906 22.4844 14.2031C22.3906 14.026 22.3438 13.7865 22.3438 13.4844V3.34375ZM33.9062 3.34375C33.9062 3.04167 33.8802 2.82292 33.8281 2.6875C33.7865 2.55208 33.7656 2.42708 33.7656 2.3125C33.7656 2.15625 33.849 2.03125 34.0156 1.9375C34.1823 1.83333 34.3802 1.78125 34.6094 1.78125C35.1406 1.78125 35.5573 1.92188 35.8594 2.20312C36.1719 2.47396 36.3281 2.80208 36.3281 3.1875V11.7969C36.3281 12.099 36.375 12.3385 36.4688 12.5156C36.5625 12.6927 36.75 12.7812 37.0312 12.7812C37.4271 12.7812 37.8229 12.651 38.2188 12.3906C38.625 12.1198 38.9844 11.7344 39.2969 11.2344C39.6198 10.724 39.8802 10.1042 40.0781 9.375C40.2865 8.64583 40.3906 7.81771 40.3906 6.89062C40.3906 6.24479 40.3385 5.70833 40.2344 5.28125C40.1406 4.85417 40.026 4.51042 39.8906 4.25C39.7552 3.97917 39.6094 3.77604 39.4531 3.64062C39.3073 3.50521 39.1823 3.39583 39.0781 3.3125C38.9948 3.25 38.901 3.21354 38.7969 3.20312C38.6927 3.18229 38.6406 3.125 38.6406 3.03125C38.6406 2.88542 38.6771 2.72396 38.75 2.54688C38.8333 2.35938 38.9375 2.1875 39.0625 2.03125C39.1875 1.86458 39.3281 1.72917 39.4844 1.625C39.6406 1.51042 39.7969 1.45312 39.9531 1.45312C40.276 1.45312 40.6042 1.61458 40.9375 1.9375C41.2708 2.25 41.5729 2.66667 41.8438 3.1875C42.125 3.70833 42.3542 4.30208 42.5312 4.96875C42.7083 5.625 42.7969 6.29688 42.7969 6.98438C42.7969 8.06771 42.651 9.08854 42.3594 10.0469C42.0677 11.0052 41.651 11.8438 41.1094 12.5625C40.5781 13.2812 39.9323 13.849 39.1719 14.2656C38.4115 14.6823 37.5625 14.8906 36.625 14.8906C36.1146 14.8906 35.6823 14.8073 35.3281 14.6406C34.9844 14.474 34.7083 14.25 34.5 13.9688C34.2917 13.6875 34.1406 13.3594 34.0469 12.9844C33.9531 12.599 33.9062 12.1927 33.9062 11.7656V3.34375ZM51.6719 4.6875C51.6719 5.28125 51.5677 5.89062 51.3594 6.51562C51.1615 7.14062 50.8594 7.73438 50.4531 8.29688C50.0573 8.84896 49.5625 9.34896 48.9688 9.79688C48.3854 10.2344 47.7083 10.5677 46.9375 10.7969C47.0417 11.0677 47.1771 11.3281 47.3438 11.5781C47.5208 11.8177 47.7292 12.026 47.9688 12.2031C48.2083 12.3802 48.4844 12.5208 48.7969 12.625C49.1198 12.7292 49.4896 12.7812 49.9062 12.7812C50.5312 12.7812 51.0677 12.6667 51.5156 12.4375C51.9635 12.1979 52.3385 11.8854 52.6406 11.5C52.9531 11.1146 53.2031 10.6823 53.3906 10.2031C53.5781 9.72396 53.7188 9.23958 53.8125 8.75C53.8854 8.39583 54.0312 8.16146 54.25 8.04688C54.4792 7.92188 54.7083 7.89062 54.9375 7.95312C55.1771 8.01562 55.3802 8.15104 55.5469 8.35938C55.724 8.55729 55.7969 8.79688 55.7656 9.07812C55.724 9.40104 55.651 9.77083 55.5469 10.1875C55.4531 10.6042 55.3073 11.026 55.1094 11.4531C54.9115 11.8802 54.6562 12.3021 54.3438 12.7188C54.0417 13.125 53.6667 13.4896 53.2188 13.8125C52.7708 14.1354 52.2448 14.3958 51.6406 14.5938C51.0365 14.7917 50.3438 14.8906 49.5625 14.8906C48.8333 14.8906 48.125 14.7448 47.4375 14.4531C46.7604 14.1719 46.1562 13.7656 45.625 13.2344C45.1042 12.6927 44.6823 12.0312 44.3594 11.25C44.0469 10.4583 43.8906 9.5625 43.8906 8.5625C43.8906 7.55208 44.0312 6.61458 44.3125 5.75C44.5938 4.875 44.9635 4.11979 45.4219 3.48438C45.8802 2.84896 46.401 2.35417 46.9844 2C47.5677 1.63542 48.1667 1.45312 48.7812 1.45312C49.2292 1.45312 49.6302 1.53125 49.9844 1.6875C50.349 1.84375 50.6562 2.06771 50.9062 2.35938C51.1562 2.64062 51.3438 2.97917 51.4688 3.375C51.6042 3.77083 51.6719 4.20833 51.6719 4.6875ZM46.5156 8.46875C46.5156 8.5625 46.5208 8.65625 46.5312 8.75C46.5417 8.84375 46.5469 8.94271 46.5469 9.04688C46.9427 8.85938 47.3021 8.61979 47.625 8.32812C47.9479 8.03646 48.224 7.70312 48.4531 7.32812C48.6823 6.95312 48.8594 6.54688 48.9844 6.10938C49.1094 5.66146 49.1719 5.19792 49.1719 4.71875C49.1719 4.36458 49.1094 4.08854 48.9844 3.89062C48.8698 3.69271 48.7083 3.59375 48.5 3.59375C48.2396 3.59375 48.0052 3.68229 47.7969 3.85938C47.599 4.03646 47.4219 4.27083 47.2656 4.5625C47.1198 4.84375 46.9948 5.16667 46.8906 5.53125C46.7969 5.88542 46.7188 6.24479 46.6562 6.60938C46.5938 6.97396 46.5521 7.32292 46.5312 7.65625C46.5104 7.97917 46.5052 8.25 46.5156 8.46875ZM60.7812 14.8906C60.4062 14.8906 60.0208 14.8333 59.625 14.7188C59.2396 14.6042 58.8854 14.4062 58.5625 14.125C58.25 13.8438 57.9896 13.474 57.7812 13.0156C57.5833 12.5469 57.4844 11.9583 57.4844 11.25C57.4844 10.2188 57.6198 9.13021 57.8906 7.98438C58.1719 6.82812 58.5729 5.55729 59.0938 4.17188H56.6562H56.2969C56.2865 4.48438 56.2656 4.88021 56.2344 5.35938C56.2135 5.83854 56.1719 6.34896 56.1094 6.89062C56.0469 7.43229 55.9635 7.97917 55.8594 8.53125C55.7656 9.08333 55.6458 9.59375 55.5 10.0625C55.3958 10.3958 55.2292 10.5885 55 10.6406C54.7812 10.6927 54.5625 10.6562 54.3438 10.5312C54.125 10.3958 53.9479 10.2031 53.8125 9.95312C53.6771 9.70312 53.6458 9.44271 53.7188 9.17188C53.8021 8.84896 53.875 8.45833 53.9375 8C54 7.53125 54.0469 7.04167 54.0781 6.53125C54.1198 6.01042 54.151 5.49479 54.1719 4.98438C54.1927 4.46354 54.2083 4 54.2188 3.59375C53.8229 3.375 53.4948 3.09896 53.2344 2.76562C52.974 2.42188 52.8438 2.01562 52.8438 1.54688C52.8438 1.32812 52.8854 1.13021 52.9688 0.953125C53.0625 0.765625 53.1823 0.609375 53.3281 0.484375C53.474 0.348958 53.6458 0.25 53.8438 0.1875C54.0417 0.114583 54.2448 0.078125 54.4531 0.078125C54.6406 0.078125 54.8333 0.104167 55.0312 0.15625C55.2396 0.208333 55.4323 0.302083 55.6094 0.4375C55.7969 0.572917 55.9635 0.75 56.1094 0.96875C56.2552 1.1875 56.375 1.45833 56.4688 1.78125C56.7292 1.8125 56.9479 1.83854 57.125 1.85938C57.3125 1.86979 57.4688 1.88021 57.5938 1.89062C57.7188 1.90104 57.8229 1.90625 57.9062 1.90625C57.9896 1.90625 58.0729 1.90625 58.1562 1.90625H59.8281C59.9219 1.90625 60.0573 1.96354 60.2344 2.07812C60.4219 2.19271 60.6042 2.34375 60.7812 2.53125C60.9583 2.70833 61.1042 2.90104 61.2188 3.10938C61.3438 3.31771 61.3906 3.51562 61.3594 3.70312C61.3594 3.76562 61.3229 3.91667 61.25 4.15625C61.1771 4.39583 61.0885 4.69792 60.9844 5.0625C60.8802 5.42708 60.7656 5.84896 60.6406 6.32812C60.5156 6.79688 60.401 7.29167 60.2969 7.8125C60.1927 8.33333 60.1042 8.875 60.0312 9.4375C59.9583 9.98958 59.9219 10.5312 59.9219 11.0625C59.9219 11.2812 59.9479 11.4948 60 11.7031C60.0521 11.9115 60.1302 12.099 60.2344 12.2656C60.3385 12.4219 60.4688 12.5469 60.625 12.6406C60.7917 12.7344 60.9844 12.7812 61.2031 12.7812C61.5677 12.7812 61.8802 12.6667 62.1406 12.4375C62.401 12.2083 62.6198 11.9219 62.7969 11.5781C62.974 11.2344 63.1146 10.8646 63.2188 10.4688C63.3333 10.0625 63.4271 9.68229 63.5 9.32812C63.5625 8.99479 63.6667 8.75521 63.8125 8.60938C63.9583 8.45312 64.1094 8.375 64.2656 8.375C64.3906 8.375 64.5208 8.41667 64.6562 8.5C64.7917 8.57292 64.9115 8.67188 65.0156 8.79688C65.1302 8.92188 65.2188 9.0625 65.2812 9.21875C65.3542 9.375 65.3906 9.53125 65.3906 9.6875C65.3906 9.73958 65.3854 9.78125 65.375 9.8125C65.3646 9.84375 65.3594 9.875 65.3594 9.90625C65.2135 10.4375 65.0208 10.9948 64.7812 11.5781C64.5521 12.1615 64.2552 12.6979 63.8906 13.1875C63.526 13.6771 63.0885 14.0833 62.5781 14.4062C62.0677 14.7292 61.4688 14.8906 60.7812 14.8906ZM65.4688 9.60938C65.3854 9.94271 65.2292 10.151 65 10.2344C64.7708 10.3073 64.5417 10.2969 64.3125 10.2031C64.0938 10.1094 63.9062 9.94792 63.75 9.71875C63.6042 9.48958 63.5625 9.23958 63.625 8.96875C63.7812 8.26042 64.0052 7.47917 64.2969 6.625C64.599 5.76042 64.8958 4.90104 65.1875 4.04688C65.0312 3.80729 64.9062 3.56771 64.8125 3.32812C64.7188 3.07812 64.6719 2.81771 64.6719 2.54688C64.6719 2.27604 64.7708 1.99479 64.9688 1.70312C65.1771 1.40104 65.4219 1.125 65.7031 0.875C65.9948 0.625 66.2917 0.421875 66.5938 0.265625C66.9062 0.0989583 67.1719 0.015625 67.3906 0.015625C67.776 0.015625 68.0625 0.145833 68.25 0.40625C68.4479 0.666667 68.5469 1.01562 68.5469 1.45312C68.5469 1.69271 68.5052 1.93229 68.4219 2.17188C68.349 2.40104 68.2656 2.61979 68.1719 2.82812C68.0781 3.02604 67.9896 3.19792 67.9062 3.34375C67.8333 3.48958 67.7917 3.58333 67.7812 3.625C68.1562 4.29167 68.5469 4.88021 68.9531 5.39062C69.3594 5.90104 69.7292 6.40625 70.0625 6.90625C70.4062 7.40625 70.6875 7.9375 70.9062 8.5C71.125 9.0625 71.2344 9.72396 71.2344 10.4844C71.2344 10.6719 71.2188 10.8646 71.1875 11.0625C71.1667 11.2604 71.1302 11.4479 71.0781 11.625C71.4531 11.5521 71.7812 11.4375 72.0625 11.2812C72.3542 11.125 72.6042 10.9479 72.8125 10.75C73.0312 10.5417 73.2083 10.3177 73.3438 10.0781C73.4896 9.83854 73.6094 9.58854 73.7031 9.32812C73.8177 9.02604 73.9323 8.80729 74.0469 8.67188C74.1615 8.53646 74.2917 8.46875 74.4375 8.46875C74.5729 8.46875 74.7083 8.51562 74.8438 8.60938C74.9896 8.69271 75.1146 8.80208 75.2188 8.9375C75.3333 9.07292 75.4219 9.21354 75.4844 9.35938C75.5573 9.50521 75.5938 9.63542 75.5938 9.75C75.5938 9.90625 75.5521 10.0938 75.4688 10.3125C75.3854 10.5312 75.2708 10.7552 75.125 10.9844C74.9896 11.2135 74.8333 11.4375 74.6562 11.6562C74.4792 11.8646 74.2969 12.0469 74.1094 12.2031C73.6094 12.6094 73.0208 12.9531 72.3438 13.2344C71.6667 13.5052 70.8281 13.6771 69.8281 13.75C69.4427 14.0833 68.9844 14.3542 68.4531 14.5625C67.9323 14.7812 67.3438 14.8906 66.6875 14.8906C66.3542 14.8906 66.0104 14.849 65.6562 14.7656C65.3125 14.6823 64.9792 14.5729 64.6562 14.4375C64.3438 14.3125 64.0573 14.1719 63.7969 14.0156C63.5365 13.8594 63.3281 13.7031 63.1719 13.5469C62.776 13.1719 62.5208 12.7969 62.4062 12.4219C62.2917 12.0365 62.2656 11.6927 62.3281 11.3906C62.3802 11.0885 62.4896 10.8438 62.6562 10.6562C62.8229 10.4583 62.9948 10.3594 63.1719 10.3594C63.276 10.3594 63.4375 10.4062 63.6562 10.5C63.8854 10.5833 64.1458 10.6979 64.4375 10.8438C64.7292 10.9792 65.0469 11.125 65.3906 11.2812C65.7344 11.4375 66.0781 11.5885 66.4219 11.7344C66.7656 11.8698 67.099 11.9844 67.4219 12.0781C67.7552 12.1615 68.0573 12.2031 68.3281 12.2031C68.5052 11.9948 68.6667 11.7188 68.8125 11.375C68.9583 11.0312 69.0312 10.6562 69.0312 10.25C69.0312 9.75 68.9635 9.28646 68.8281 8.85938C68.6927 8.43229 68.5156 8.03646 68.2969 7.67188C68.0781 7.30729 67.8281 6.96875 67.5469 6.65625C67.276 6.33333 67 6.03125 66.7188 5.75C66.4688 6.36458 66.25 6.97396 66.0625 7.57812C65.875 8.17188 65.6771 8.84896 65.4688 9.60938ZM81.2344 4.6875C81.2344 5.28125 81.1302 5.89062 80.9219 6.51562C80.724 7.14062 80.4219 7.73438 80.0156 8.29688C79.6198 8.84896 79.125 9.34896 78.5312 9.79688C77.9479 10.2344 77.2708 10.5677 76.5 10.7969C76.6042 11.0677 76.7396 11.3281 76.9062 11.5781C77.0833 11.8177 77.2917 12.026 77.5312 12.2031C77.7708 12.3802 78.0469 12.5208 78.3594 12.625C78.6823 12.7292 79.0521 12.7812 79.4688 12.7812C80.0938 12.7812 80.6302 12.6667 81.0781 12.4375C81.526 12.1979 81.901 11.8854 82.2031 11.5C82.5156 11.1146 82.7656 10.6823 82.9531 10.2031C83.1406 9.72396 83.2812 9.23958 83.375 8.75C83.4479 8.39583 83.5938 8.16146 83.8125 8.04688C84.0417 7.92188 84.2708 7.89062 84.5 7.95312C84.7396 8.01562 84.9427 8.15104 85.1094 8.35938C85.2865 8.55729 85.3594 8.79688 85.3281 9.07812C85.2865 9.40104 85.2135 9.77083 85.1094 10.1875C85.0156 10.6042 84.8698 11.026 84.6719 11.4531C84.474 11.8802 84.2188 12.3021 83.9062 12.7188C83.6042 13.125 83.2292 13.4896 82.7812 13.8125C82.3333 14.1354 81.8073 14.3958 81.2031 14.5938C80.599 14.7917 79.9062 14.8906 79.125 14.8906C78.3958 14.8906 77.6875 14.7448 77 14.4531C76.3229 14.1719 75.7188 13.7656 75.1875 13.2344C74.6667 12.6927 74.2448 12.0312 73.9219 11.25C73.6094 10.4583 73.4531 9.5625 73.4531 8.5625C73.4531 7.55208 73.5938 6.61458 73.875 5.75C74.1562 4.875 74.526 4.11979 74.9844 3.48438C75.4427 2.84896 75.9635 2.35417 76.5469 2C77.1302 1.63542 77.7292 1.45312 78.3438 1.45312C78.7917 1.45312 79.1927 1.53125 79.5469 1.6875C79.9115 1.84375 80.2188 2.06771 80.4688 2.35938C80.7188 2.64062 80.9062 2.97917 81.0312 3.375C81.1667 3.77083 81.2344 4.20833 81.2344 4.6875ZM76.0781 8.46875C76.0781 8.5625 76.0833 8.65625 76.0938 8.75C76.1042 8.84375 76.1094 8.94271 76.1094 9.04688C76.5052 8.85938 76.8646 8.61979 77.1875 8.32812C77.5104 8.03646 77.7865 7.70312 78.0156 7.32812C78.2448 6.95312 78.4219 6.54688 78.5469 6.10938C78.6719 5.66146 78.7344 5.19792 78.7344 4.71875C78.7344 4.36458 78.6719 4.08854 78.5469 3.89062C78.4323 3.69271 78.2708 3.59375 78.0625 3.59375C77.8021 3.59375 77.5677 3.68229 77.3594 3.85938C77.1615 4.03646 76.9844 4.27083 76.8281 4.5625C76.6823 4.84375 76.5573 5.16667 76.4531 5.53125C76.3594 5.88542 76.2812 6.24479 76.2188 6.60938C76.1562 6.97396 76.1146 7.32292 76.0938 7.65625C76.0729 7.97917 76.0677 8.25 76.0781 8.46875ZM102.469 9.90625C102.323 10.4375 102.13 10.9948 101.891 11.5781C101.661 12.1615 101.365 12.6979 101 13.1875C100.635 13.6771 100.198 14.0833 99.6875 14.4062C99.1771 14.7292 98.5781 14.8906 97.8906 14.8906C97.4635 14.8906 97.0833 14.8073 96.75 14.6406C96.4271 14.4844 96.1458 14.2708 95.9062 14C95.6771 13.7292 95.5 13.4115 95.375 13.0469C95.2604 12.6823 95.2031 12.2969 95.2031 11.8906V5.39062C95.2031 5.14062 95.1979 4.90625 95.1875 4.6875C95.1771 4.46875 95.151 4.27604 95.1094 4.10938C95.0677 3.94271 95.0052 3.8125 94.9219 3.71875C94.849 3.61458 94.7448 3.5625 94.6094 3.5625C94.3906 3.5625 94.125 3.71875 93.8125 4.03125C93.5 4.34375 93.1979 4.75 92.9062 5.25C92.6146 5.75 92.3542 6.31771 92.125 6.95312C91.8958 7.57812 91.7604 8.20833 91.7188 8.84375V13.5156C91.7188 13.6719 91.7135 13.8333 91.7031 14C91.7031 14.1562 91.6719 14.2969 91.6094 14.4219C91.5573 14.5573 91.4688 14.6667 91.3438 14.75C91.2292 14.8438 91.0573 14.8906 90.8281 14.8906C90.6719 14.8906 90.5 14.8698 90.3125 14.8281C90.1354 14.7969 89.9688 14.7292 89.8125 14.625C89.6667 14.5312 89.5417 14.3906 89.4375 14.2031C89.3438 14.026 89.2969 13.7865 89.2969 13.4844V5.39062C89.2969 5.14062 89.2865 4.90625 89.2656 4.6875C89.2552 4.46875 89.2292 4.27604 89.1875 4.10938C89.1458 3.94271 89.0833 3.8125 89 3.71875C88.9271 3.61458 88.8229 3.5625 88.6875 3.5625C88.4688 3.5625 88.2031 3.71875 87.8906 4.03125C87.5885 4.34375 87.2865 4.75 86.9844 5.25C86.6927 5.75 86.4323 6.31771 86.2031 6.95312C85.9844 7.57812 85.849 8.20833 85.7969 8.84375V13.5156C85.7969 13.6719 85.7917 13.8333 85.7812 14C85.7812 14.1562 85.75 14.2969 85.6875 14.4219C85.6354 14.5573 85.5469 14.6667 85.4219 14.75C85.3073 14.8438 85.1354 14.8906 84.9062 14.8906C84.75 14.8906 84.5781 14.8698 84.3906 14.8281C84.2135 14.7969 84.0469 14.7292 83.8906 14.625C83.7448 14.5312 83.6198 14.3906 83.5156 14.2031C83.4219 14.026 83.375 13.7865 83.375 13.4844V3.34375C83.375 3.04167 83.349 2.82292 83.2969 2.6875C83.2552 2.55208 83.2344 2.42708 83.2344 2.3125C83.2344 2.15625 83.3177 2.03125 83.4844 1.9375C83.651 1.83333 83.849 1.78125 84.0781 1.78125C84.6094 1.78125 85.026 1.92188 85.3281 2.20312C85.6406 2.47396 85.7969 2.80208 85.7969 3.1875V4.53125C86.0052 4.09375 86.2292 3.6875 86.4688 3.3125C86.7188 2.9375 86.9844 2.61458 87.2656 2.34375C87.5469 2.0625 87.8438 1.84375 88.1562 1.6875C88.4792 1.53125 88.8229 1.45312 89.1875 1.45312C89.6667 1.45312 90.0625 1.54167 90.375 1.71875C90.6979 1.89583 90.9531 2.13021 91.1406 2.42188C91.3385 2.71354 91.4792 3.04167 91.5625 3.40625C91.6458 3.76042 91.6979 4.11458 91.7188 4.46875C91.9167 4.04167 92.1354 3.64583 92.375 3.28125C92.6146 2.91667 92.875 2.59896 93.1562 2.32812C93.4375 2.05729 93.7344 1.84375 94.0469 1.6875C94.3698 1.53125 94.7135 1.45312 95.0781 1.45312C95.599 1.45312 96.026 1.55208 96.3594 1.75C96.6927 1.94792 96.9531 2.20312 97.1406 2.51562C97.3281 2.82812 97.4583 3.17708 97.5312 3.5625C97.6042 3.94792 97.6406 4.32292 97.6406 4.6875V11.3125C97.6406 11.3854 97.6458 11.5052 97.6562 11.6719C97.6667 11.8281 97.6979 11.9896 97.75 12.1562C97.8021 12.3229 97.8802 12.4688 97.9844 12.5938C98.099 12.7188 98.2604 12.7812 98.4688 12.7812C98.7917 12.7812 99.0677 12.6667 99.2969 12.4375C99.5365 12.2083 99.7396 11.9219 99.9062 11.5781C100.083 11.2344 100.229 10.8646 100.344 10.4688C100.458 10.0625 100.552 9.68229 100.625 9.32812C100.688 8.99479 100.786 8.75521 100.922 8.60938C101.068 8.45312 101.224 8.375 101.391 8.375C101.516 8.375 101.641 8.41667 101.766 8.5C101.901 8.57292 102.021 8.67188 102.125 8.79688C102.24 8.92188 102.328 9.0625 102.391 9.21875C102.464 9.375 102.5 9.53125 102.5 9.6875C102.5 9.70833 102.5 9.73438 102.5 9.76562C102.5 9.79688 102.49 9.84375 102.469 9.90625ZM112.453 8.71875C112.474 8.59375 112.542 8.48958 112.656 8.40625C112.781 8.32292 112.922 8.26562 113.078 8.23438C113.234 8.20312 113.396 8.20312 113.562 8.23438C113.74 8.26562 113.891 8.33854 114.016 8.45312C114.151 8.55729 114.245 8.70833 114.297 8.90625C114.359 9.09375 114.354 9.33854 114.281 9.64062C114.188 10.0781 114.031 10.4896 113.812 10.875C113.604 11.25 113.339 11.5833 113.016 11.875C112.693 12.1667 112.312 12.3958 111.875 12.5625C111.438 12.7292 110.948 12.8125 110.406 12.8125C110.115 12.8125 109.839 12.7969 109.578 12.7656C109.328 12.7344 109.083 12.6771 108.844 12.5938C108.448 13.2812 107.938 13.8333 107.312 14.25C106.688 14.6771 105.917 14.8906 105 14.8906C104.188 14.8906 103.49 14.7292 102.906 14.4062C102.323 14.0938 101.839 13.6667 101.453 13.125C101.068 12.5729 100.781 11.9375 100.594 11.2188C100.417 10.5 100.328 9.73958 100.328 8.9375C100.328 7.76042 100.464 6.70833 100.734 5.78125C101.016 4.84375 101.339 4.05208 101.703 3.40625C102.068 2.75 102.427 2.25 102.781 1.90625C103.146 1.5625 103.417 1.39062 103.594 1.39062C103.802 1.39062 103.99 1.48438 104.156 1.67188C104.333 1.84896 104.458 2.0625 104.531 2.3125C104.615 2.55208 104.635 2.79688 104.594 3.04688C104.562 3.29688 104.443 3.48958 104.234 3.625C104.109 3.82292 103.958 4.05208 103.781 4.3125C103.615 4.57292 103.453 4.90104 103.297 5.29688C103.151 5.68229 103.026 6.15625 102.922 6.71875C102.818 7.28125 102.766 7.95833 102.766 8.75C102.766 9.42708 102.823 10.0156 102.938 10.5156C103.062 11.0156 103.229 11.4375 103.438 11.7812C103.656 12.1146 103.901 12.3646 104.172 12.5312C104.453 12.6979 104.75 12.7812 105.062 12.7812C105.521 12.7812 105.896 12.6719 106.188 12.4531C106.49 12.224 106.745 11.9271 106.953 11.5625C106.203 10.9167 105.63 10.099 105.234 9.10938C104.849 8.10938 104.656 7.03125 104.656 5.875C104.656 5.375 104.708 4.90104 104.812 4.45312C104.927 3.99479 105.089 3.59375 105.297 3.25C105.516 2.90625 105.786 2.63542 106.109 2.4375C106.432 2.22917 106.807 2.125 107.234 2.125C107.609 2.125 107.964 2.26042 108.297 2.53125C108.63 2.80208 108.922 3.17708 109.172 3.65625C109.422 4.13542 109.615 4.70312 109.75 5.35938C109.896 6.01562 109.969 6.72917 109.969 7.5C109.969 8.09375 109.932 8.68229 109.859 9.26562C109.786 9.84896 109.672 10.4115 109.516 10.9531C109.63 10.9948 109.734 11.0208 109.828 11.0312C109.932 11.0312 110.042 11.0312 110.156 11.0312C110.5 11.0312 110.802 10.9688 111.062 10.8438C111.333 10.7188 111.562 10.5521 111.75 10.3438C111.938 10.1354 112.089 9.89062 112.203 9.60938C112.318 9.32812 112.401 9.03125 112.453 8.71875ZM106.344 5.75C106.344 6.46875 106.453 7.15104 106.672 7.79688C106.901 8.44271 107.198 9.00521 107.562 9.48438C107.625 8.97396 107.656 8.48438 107.656 8.01562C107.656 7.47396 107.646 6.97396 107.625 6.51562C107.615 6.04688 107.578 5.64583 107.516 5.3125C107.464 4.97917 107.385 4.71875 107.281 4.53125C107.188 4.33333 107.057 4.23438 106.891 4.23438C106.526 4.23438 106.344 4.73958 106.344 5.75ZM114.281 9.60938C114.198 9.94271 114.042 10.151 113.812 10.2344C113.583 10.3073 113.354 10.2969 113.125 10.2031C112.906 10.1094 112.719 9.94792 112.562 9.71875C112.417 9.48958 112.375 9.23958 112.438 8.96875C112.594 8.26042 112.818 7.47917 113.109 6.625C113.411 5.76042 113.708 4.90104 114 4.04688C113.844 3.80729 113.719 3.56771 113.625 3.32812C113.531 3.07812 113.484 2.81771 113.484 2.54688C113.484 2.27604 113.583 1.99479 113.781 1.70312C113.99 1.40104 114.234 1.125 114.516 0.875C114.807 0.625 115.104 0.421875 115.406 0.265625C115.719 0.0989583 115.984 0.015625 116.203 0.015625C116.589 0.015625 116.875 0.145833 117.062 0.40625C117.26 0.666667 117.359 1.01562 117.359 1.45312C117.359 1.69271 117.318 1.93229 117.234 2.17188C117.161 2.40104 117.078 2.61979 116.984 2.82812C116.891 3.02604 116.802 3.19792 116.719 3.34375C116.646 3.48958 116.604 3.58333 116.594 3.625C116.969 4.29167 117.359 4.88021 117.766 5.39062C118.172 5.90104 118.542 6.40625 118.875 6.90625C119.219 7.40625 119.5 7.9375 119.719 8.5C119.938 9.0625 120.047 9.72396 120.047 10.4844C120.047 10.6719 120.031 10.8646 120 11.0625C119.979 11.2604 119.943 11.4479 119.891 11.625C120.266 11.5521 120.594 11.4375 120.875 11.2812C121.167 11.125 121.417 10.9479 121.625 10.75C121.844 10.5417 122.021 10.3177 122.156 10.0781C122.302 9.83854 122.422 9.58854 122.516 9.32812C122.63 9.02604 122.745 8.80729 122.859 8.67188C122.974 8.53646 123.104 8.46875 123.25 8.46875C123.385 8.46875 123.521 8.51562 123.656 8.60938C123.802 8.69271 123.927 8.80208 124.031 8.9375C124.146 9.07292 124.234 9.21354 124.297 9.35938C124.37 9.50521 124.406 9.63542 124.406 9.75C124.406 9.90625 124.365 10.0938 124.281 10.3125C124.198 10.5312 124.083 10.7552 123.938 10.9844C123.802 11.2135 123.646 11.4375 123.469 11.6562C123.292 11.8646 123.109 12.0469 122.922 12.2031C122.422 12.6094 121.833 12.9531 121.156 13.2344C120.479 13.5052 119.641 13.6771 118.641 13.75C118.255 14.0833 117.797 14.3542 117.266 14.5625C116.745 14.7812 116.156 14.8906 115.5 14.8906C115.167 14.8906 114.823 14.849 114.469 14.7656C114.125 14.6823 113.792 14.5729 113.469 14.4375C113.156 14.3125 112.87 14.1719 112.609 14.0156C112.349 13.8594 112.141 13.7031 111.984 13.5469C111.589 13.1719 111.333 12.7969 111.219 12.4219C111.104 12.0365 111.078 11.6927 111.141 11.3906C111.193 11.0885 111.302 10.8438 111.469 10.6562C111.635 10.4583 111.807 10.3594 111.984 10.3594C112.089 10.3594 112.25 10.4062 112.469 10.5C112.698 10.5833 112.958 10.6979 113.25 10.8438C113.542 10.9792 113.859 11.125 114.203 11.2812C114.547 11.4375 114.891 11.5885 115.234 11.7344C115.578 11.8698 115.911 11.9844 116.234 12.0781C116.568 12.1615 116.87 12.2031 117.141 12.2031C117.318 11.9948 117.479 11.7188 117.625 11.375C117.771 11.0312 117.844 10.6562 117.844 10.25C117.844 9.75 117.776 9.28646 117.641 8.85938C117.505 8.43229 117.328 8.03646 117.109 7.67188C116.891 7.30729 116.641 6.96875 116.359 6.65625C116.089 6.33333 115.812 6.03125 115.531 5.75C115.281 6.36458 115.062 6.97396 114.875 7.57812C114.688 8.17188 114.49 8.84896 114.281 9.60938Z" fill="#FF5970"/>
</svg>
