<svg width="86" height="86" viewBox="0 0 86 86" fill="none" xmlns="http://www.w3.org/2000/svg">
<g filter="url(#filter0_iiii_10_1657)">
<path d="M13.7505 8.07147L13.7505 77.8644C13.7505 79.038 14.7019 79.9894 15.8755 79.9894L70.1454 79.9894C71.319 79.9894 72.2704 79.038 72.2704 77.8644V8.07147C72.2704 6.89787 71.319 5.94647 70.1454 5.94647L15.8755 5.94647C14.7019 5.94647 13.7505 6.89787 13.7505 8.07147Z" fill="#5E4F86"/>
</g>
<g filter="url(#filter1_f_10_1657)">
<path d="M58.9466 78.6985H27.1566V69.6991C27.1566 67.1544 29.4144 65.0905 32.2035 65.0905H53.8997C56.6888 65.0905 58.9466 67.1544 58.9466 69.6991V78.6985Z" stroke="#463875" stroke-width="0.65"/>
<path d="M58.9466 78.6985H27.1566V69.6991C27.1566 67.1544 29.4144 65.0905 32.2035 65.0905H53.8997C56.6888 65.0905 58.9466 67.1544 58.9466 69.6991V78.6985Z" stroke="url(#paint0_linear_10_1657)" stroke-width="0.65"/>
</g>
<g filter="url(#filter2_f_10_1657)">
<path d="M27.1566 7.19756L58.9466 7.19756V16.2235C58.9466 18.7761 56.6888 20.8454 53.8997 20.8454L32.2035 20.8454C29.4144 20.8454 27.1566 18.7761 27.1566 16.2235L27.1566 7.19756Z" stroke="#463875" stroke-width="0.65"/>
<path d="M27.1566 7.19756L58.9466 7.19756V16.2235C58.9466 18.7761 56.6888 20.8454 53.8997 20.8454L32.2035 20.8454C29.4144 20.8454 27.1566 18.7761 27.1566 16.2235L27.1566 7.19756Z" stroke="url(#paint1_linear_10_1657)" stroke-width="0.65"/>
</g>
<g filter="url(#filter3_f_10_1657)">
<path d="M32.2035 59.1353C30.865 59.1353 29.5813 58.6035 28.6348 57.6571C27.6883 56.7106 27.1566 55.4269 27.1566 54.0884L27.1566 32.0149C27.1566 30.6764 27.6883 29.3927 28.6348 28.4463C29.5813 27.4998 30.865 26.9681 32.2035 26.9681L53.8997 26.9681C55.2383 26.9681 56.522 27.4998 57.4684 28.4463C58.4149 29.3927 58.9466 30.6764 58.9466 32.0149V54.0884C58.9466 55.4269 58.4149 56.7106 57.4684 57.6571C56.522 58.6035 55.2383 59.1353 53.8997 59.1353L32.2035 59.1353Z" stroke="#463875" stroke-width="0.65"/>
<path d="M32.2035 59.1353C30.865 59.1353 29.5813 58.6035 28.6348 57.6571C27.6883 56.7106 27.1566 55.4269 27.1566 54.0884L27.1566 32.0149C27.1566 30.6764 27.6883 29.3927 28.6348 28.4463C29.5813 27.4998 30.865 26.9681 32.2035 26.9681L53.8997 26.9681C55.2383 26.9681 56.522 27.4998 57.4684 28.4463C58.4149 29.3927 58.9466 30.6764 58.9466 32.0149V54.0884C58.9466 55.4269 58.4149 56.7106 57.4684 57.6571C56.522 58.6035 55.2383 59.1353 53.8997 59.1353L32.2035 59.1353Z" stroke="url(#paint2_linear_10_1657)" stroke-width="0.65"/>
</g>
<g filter="url(#filter4_i_10_1657)">
<path d="M27.1566 5.94646L58.9466 5.94646V15.8011C58.9466 17.1397 58.4149 18.4234 57.4684 19.3698C56.5219 20.3163 55.2383 20.848 53.8997 20.848L32.2035 20.848C30.865 20.848 29.5813 20.3163 28.6348 19.3698C27.6883 18.4234 27.1566 17.1397 27.1566 15.8011L27.1566 5.94646Z" fill="#7BBEE4"/>
</g>
<path d="M27.1566 5.94646L58.9466 5.94646V15.8011C58.9466 17.1397 58.4149 18.4234 57.4684 19.3698C56.5219 20.3163 55.2383 20.848 53.8997 20.848L32.2035 20.848C30.865 20.848 29.5813 20.3163 28.6348 19.3698C27.6883 18.4234 27.1566 17.1397 27.1566 15.8011L27.1566 5.94646Z" fill="url(#paint3_linear_10_1657)"/>
<g filter="url(#filter5_i_10_1657)">
<path d="M32.2035 59.1353C30.865 59.1353 29.5813 58.6035 28.6348 57.6571C27.6883 56.7106 27.1566 55.4269 27.1566 54.0884L27.1566 32.0149C27.1566 30.6764 27.6883 29.3927 28.6348 28.4463C29.5813 27.4998 30.865 26.9681 32.2035 26.9681L53.8997 26.9681C55.2383 26.9681 56.5219 27.4998 57.4684 28.4463C58.4149 29.3927 58.9466 30.6764 58.9466 32.0149V54.0884C58.9466 55.4269 58.4149 56.7106 57.4684 57.6571C56.5219 58.6035 55.2383 59.1353 53.8997 59.1353L32.2035 59.1353Z" fill="#7BBEE4"/>
</g>
<g filter="url(#filter6_i_10_1657)">
<path d="M58.9466 79.9894H27.1566V70.1348C27.1566 68.7962 27.6883 67.5125 28.6348 66.5661C29.5813 65.6196 30.865 65.0879 32.2035 65.0879H53.8997C55.2383 65.0879 56.5219 65.6196 57.4684 66.5661C58.4149 67.5125 58.9466 68.7962 58.9466 70.1348V79.9894Z" fill="#7BBEE4"/>
</g>
<g filter="url(#filter7_f_10_1657)">
<path d="M18.5026 74.7593C18.3264 74.7593 18.1575 74.6893 18.033 74.5648C17.9085 74.4402 17.8385 74.2713 17.8385 74.0952V69.9887C17.8385 69.8125 17.9085 69.6436 18.033 69.5191C18.1575 69.3946 18.3264 69.3246 18.5026 69.3246H22.6118C22.7879 69.3246 22.9568 69.3946 23.0813 69.5191C23.2059 69.6436 23.2758 69.8125 23.2758 69.9887V74.0952C23.2758 74.2713 23.2059 74.4402 23.0813 74.5648C22.9568 74.6893 22.7879 74.7593 22.6118 74.7593H18.5026Z" stroke="#43346D" stroke-width="0.6"/>
<path d="M18.5026 74.7593C18.3264 74.7593 18.1575 74.6893 18.033 74.5648C17.9085 74.4402 17.8385 74.2713 17.8385 74.0952V69.9887C17.8385 69.8125 17.9085 69.6436 18.033 69.5191C18.1575 69.3946 18.3264 69.3246 18.5026 69.3246H22.6118C22.7879 69.3246 22.9568 69.3946 23.0813 69.5191C23.2059 69.6436 23.2758 69.8125 23.2758 69.9887V74.0952C23.2758 74.2713 23.2059 74.4402 23.0813 74.5648C22.9568 74.6893 22.7879 74.7593 22.6118 74.7593H18.5026Z" stroke="url(#paint4_linear_10_1657)" stroke-width="0.6"/>
</g>
<g filter="url(#filter8_f_10_1657)">
<path d="M18.5026 74.7593C18.3264 74.7593 18.1575 74.6893 18.033 74.5648C17.9085 74.4402 17.8385 74.2713 17.8385 74.0952V69.9887C17.8385 69.8125 17.9085 69.6436 18.033 69.5191C18.1575 69.3946 18.3264 69.3246 18.5026 69.3246H22.6118C22.7879 69.3246 22.9568 69.3946 23.0813 69.5191C23.2059 69.6436 23.2758 69.8125 23.2758 69.9887V74.0952C23.2758 74.2713 23.2059 74.4402 23.0813 74.5648C22.9568 74.6893 22.7879 74.7593 22.6118 74.7593H18.5026Z" stroke="#422E6F" stroke-width="0.1"/>
</g>
<g filter="url(#filter9_f_10_1657)">
<path d="M18.5026 60.2349C18.3264 60.2349 18.1575 60.165 18.033 60.0404C17.9085 59.9159 17.8385 59.747 17.8385 59.5709V55.4616C17.8385 55.2855 17.9085 55.1166 18.033 54.9921C18.1575 54.8675 18.3264 54.7976 18.5026 54.7976H22.6118C22.7879 54.7976 22.9568 54.8675 23.0813 54.9921C23.2059 55.1166 23.2758 55.2855 23.2758 55.4616V59.5709C23.2758 59.747 23.2059 59.9159 23.0813 60.0404C22.9568 60.165 22.7879 60.2349 22.6118 60.2349H18.5026Z" stroke="#43346D" stroke-width="0.6"/>
<path d="M18.5026 60.2349C18.3264 60.2349 18.1575 60.165 18.033 60.0404C17.9085 59.9159 17.8385 59.747 17.8385 59.5709V55.4616C17.8385 55.2855 17.9085 55.1166 18.033 54.9921C18.1575 54.8675 18.3264 54.7976 18.5026 54.7976H22.6118C22.7879 54.7976 22.9568 54.8675 23.0813 54.9921C23.2059 55.1166 23.2758 55.2855 23.2758 55.4616V59.5709C23.2758 59.747 23.2059 59.9159 23.0813 60.0404C22.9568 60.165 22.7879 60.2349 22.6118 60.2349H18.5026Z" stroke="url(#paint5_linear_10_1657)" stroke-width="0.6"/>
</g>
<g filter="url(#filter10_f_10_1657)">
<path d="M18.5026 60.2349C18.3264 60.2349 18.1575 60.165 18.033 60.0404C17.9085 59.9159 17.8385 59.747 17.8385 59.5709V55.4616C17.8385 55.2855 17.9085 55.1166 18.033 54.9921C18.1575 54.8675 18.3264 54.7976 18.5026 54.7976H22.6118C22.7879 54.7976 22.9568 54.8675 23.0813 54.9921C23.2059 55.1166 23.2758 55.2855 23.2758 55.4616V59.5709C23.2758 59.747 23.2059 59.9159 23.0813 60.0404C22.9568 60.165 22.7879 60.2349 22.6118 60.2349H18.5026Z" stroke="#422E6F" stroke-width="0.1"/>
</g>
<g filter="url(#filter11_f_10_1657)">
<path d="M18.5026 45.6866C18.3264 45.6866 18.1575 45.6167 18.033 45.4921C17.9085 45.3676 17.8385 45.1987 17.8385 45.0226V40.9133C17.8385 40.7372 17.9085 40.5683 18.033 40.4438C18.1575 40.3192 18.3264 40.2493 18.5026 40.2493H22.6118C22.7879 40.2493 22.9568 40.3192 23.0813 40.4438C23.2059 40.5683 23.2758 40.7372 23.2758 40.9133V45.0226C23.2758 45.1987 23.2059 45.3676 23.0813 45.4921C22.9568 45.6167 22.7879 45.6866 22.6118 45.6866H18.5026Z" stroke="#43346D" stroke-width="0.6"/>
<path d="M18.5026 45.6866C18.3264 45.6866 18.1575 45.6167 18.033 45.4921C17.9085 45.3676 17.8385 45.1987 17.8385 45.0226V40.9133C17.8385 40.7372 17.9085 40.5683 18.033 40.4438C18.1575 40.3192 18.3264 40.2493 18.5026 40.2493H22.6118C22.7879 40.2493 22.9568 40.3192 23.0813 40.4438C23.2059 40.5683 23.2758 40.7372 23.2758 40.9133V45.0226C23.2758 45.1987 23.2059 45.3676 23.0813 45.4921C22.9568 45.6167 22.7879 45.6866 22.6118 45.6866H18.5026Z" stroke="url(#paint6_linear_10_1657)" stroke-width="0.6"/>
</g>
<g filter="url(#filter12_f_10_1657)">
<path d="M18.5026 45.6866C18.3264 45.6866 18.1575 45.6167 18.033 45.4921C17.9085 45.3676 17.8385 45.1987 17.8385 45.0226V40.9133C17.8385 40.7372 17.9085 40.5683 18.033 40.4438C18.1575 40.3192 18.3264 40.2493 18.5026 40.2493H22.6118C22.7879 40.2493 22.9568 40.3192 23.0813 40.4438C23.2059 40.5683 23.2758 40.7372 23.2758 40.9133V45.0226C23.2758 45.1987 23.2059 45.3676 23.0813 45.4921C22.9568 45.6167 22.7879 45.6866 22.6118 45.6866H18.5026Z" stroke="#422E6F" stroke-width="0.1"/>
</g>
<g filter="url(#filter13_f_10_1657)">
<path d="M18.5026 31.1808C18.3264 31.1808 18.1575 31.1109 18.033 30.9863C17.9085 30.8618 17.8385 30.6929 17.8385 30.5168V26.4076C17.8385 26.2314 17.9085 26.0625 18.033 25.938C18.1575 25.8135 18.3264 25.7435 18.5026 25.7435H22.6118C22.7879 25.7435 22.9568 25.8135 23.0813 25.938C23.2059 26.0625 23.2758 26.2314 23.2758 26.4076V30.5168C23.2758 30.6929 23.2059 30.8618 23.0813 30.9863C22.9568 31.1109 22.7879 31.1808 22.6118 31.1808H18.5026Z" stroke="#43346D" stroke-width="0.6"/>
<path d="M18.5026 31.1808C18.3264 31.1808 18.1575 31.1109 18.033 30.9863C17.9085 30.8618 17.8385 30.6929 17.8385 30.5168V26.4076C17.8385 26.2314 17.9085 26.0625 18.033 25.938C18.1575 25.8135 18.3264 25.7435 18.5026 25.7435H22.6118C22.7879 25.7435 22.9568 25.8135 23.0813 25.938C23.2059 26.0625 23.2758 26.2314 23.2758 26.4076V30.5168C23.2758 30.6929 23.2059 30.8618 23.0813 30.9863C22.9568 31.1109 22.7879 31.1808 22.6118 31.1808H18.5026Z" stroke="url(#paint7_linear_10_1657)" stroke-width="0.6"/>
</g>
<g filter="url(#filter14_f_10_1657)">
<path d="M18.5026 31.1808C18.3264 31.1808 18.1575 31.1109 18.033 30.9863C17.9085 30.8618 17.8385 30.6929 17.8385 30.5168V26.4076C17.8385 26.2314 17.9085 26.0625 18.033 25.938C18.1575 25.8135 18.3264 25.7435 18.5026 25.7435H22.6118C22.7879 25.7435 22.9568 25.8135 23.0813 25.938C23.2059 26.0625 23.2758 26.2314 23.2758 26.4076V30.5168C23.2758 30.6929 23.2059 30.8618 23.0813 30.9863C22.9568 31.1109 22.7879 31.1808 22.6118 31.1808H18.5026Z" stroke="#422E6F" stroke-width="0.1"/>
</g>
<g filter="url(#filter15_f_10_1657)">
<path d="M18.5026 16.6538C18.3264 16.6538 18.1575 16.5838 18.033 16.4593C17.9085 16.3348 17.8385 16.1659 17.8385 15.9897V11.8832C17.8385 11.7071 17.9085 11.5382 18.033 11.4136C18.1575 11.2891 18.3264 11.2191 18.5026 11.2191H22.6118C22.7879 11.2191 22.9568 11.2891 23.0813 11.4136C23.2059 11.5382 23.2758 11.7071 23.2758 11.8832V15.9924C23.2758 16.1685 23.2059 16.3374 23.0813 16.462C22.9568 16.5865 22.7879 16.6565 22.6118 16.6565L18.5026 16.6538Z" stroke="#43346D" stroke-width="0.6"/>
<path d="M18.5026 16.6538C18.3264 16.6538 18.1575 16.5838 18.033 16.4593C17.9085 16.3348 17.8385 16.1659 17.8385 15.9897V11.8832C17.8385 11.7071 17.9085 11.5382 18.033 11.4136C18.1575 11.2891 18.3264 11.2191 18.5026 11.2191H22.6118C22.7879 11.2191 22.9568 11.2891 23.0813 11.4136C23.2059 11.5382 23.2758 11.7071 23.2758 11.8832V15.9924C23.2758 16.1685 23.2059 16.3374 23.0813 16.462C22.9568 16.5865 22.7879 16.6565 22.6118 16.6565L18.5026 16.6538Z" stroke="url(#paint8_linear_10_1657)" stroke-width="0.6"/>
</g>
<g filter="url(#filter16_f_10_1657)">
<path d="M18.5026 16.6538C18.3264 16.6538 18.1575 16.5838 18.033 16.4593C17.9085 16.3348 17.8385 16.1659 17.8385 15.9897V11.8832C17.8385 11.7071 17.9085 11.5382 18.033 11.4136C18.1575 11.2891 18.3264 11.2191 18.5026 11.2191H22.6118C22.7879 11.2191 22.9568 11.2891 23.0813 11.4136C23.2059 11.5382 23.2758 11.7071 23.2758 11.8832V15.9924C23.2758 16.1685 23.2059 16.3374 23.0813 16.462C22.9568 16.5865 22.7879 16.6565 22.6118 16.6565L18.5026 16.6538Z" stroke="#422E6F" stroke-width="0.1"/>
</g>
<g filter="url(#filter17_f_10_1657)">
<path d="M63.4915 74.7593C63.3153 74.7593 63.1464 74.6893 63.0219 74.5648C62.8974 74.4402 62.8274 74.2713 62.8274 74.0952V69.9887C62.8274 69.8125 62.8974 69.6436 63.0219 69.5191C63.1464 69.3946 63.3153 69.3246 63.4915 69.3246H67.6007C67.7768 69.3246 67.9457 69.3946 68.0702 69.5191C68.1948 69.6436 68.2647 69.8125 68.2647 69.9887V74.0952C68.2647 74.2713 68.1948 74.4402 68.0702 74.5648C67.9457 74.6893 67.7768 74.7593 67.6007 74.7593H63.4915Z" stroke="#43346D" stroke-width="0.6"/>
<path d="M63.4915 74.7593C63.3153 74.7593 63.1464 74.6893 63.0219 74.5648C62.8974 74.4402 62.8274 74.2713 62.8274 74.0952V69.9887C62.8274 69.8125 62.8974 69.6436 63.0219 69.5191C63.1464 69.3946 63.3153 69.3246 63.4915 69.3246H67.6007C67.7768 69.3246 67.9457 69.3946 68.0702 69.5191C68.1948 69.6436 68.2647 69.8125 68.2647 69.9887V74.0952C68.2647 74.2713 68.1948 74.4402 68.0702 74.5648C67.9457 74.6893 67.7768 74.7593 67.6007 74.7593H63.4915Z" stroke="url(#paint9_linear_10_1657)" stroke-width="0.6"/>
</g>
<g filter="url(#filter18_f_10_1657)">
<path d="M63.4915 60.2349C63.3153 60.2349 63.1464 60.165 63.0219 60.0404C62.8974 59.9159 62.8274 59.747 62.8274 59.5709V55.4616C62.8274 55.2855 62.8974 55.1166 63.0219 54.9921C63.1464 54.8675 63.3153 54.7976 63.4915 54.7976H67.6007C67.7768 54.7976 67.9457 54.8675 68.0702 54.9921C68.1948 55.1166 68.2647 55.2855 68.2647 55.4616V59.5709C68.2647 59.747 68.1948 59.9159 68.0702 60.0404C67.9457 60.165 67.7768 60.2349 67.6007 60.2349H63.4915Z" stroke="#43346D" stroke-width="0.6"/>
<path d="M63.4915 60.2349C63.3153 60.2349 63.1464 60.165 63.0219 60.0404C62.8974 59.9159 62.8274 59.747 62.8274 59.5709V55.4616C62.8274 55.2855 62.8974 55.1166 63.0219 54.9921C63.1464 54.8675 63.3153 54.7976 63.4915 54.7976H67.6007C67.7768 54.7976 67.9457 54.8675 68.0702 54.9921C68.1948 55.1166 68.2647 55.2855 68.2647 55.4616V59.5709C68.2647 59.747 68.1948 59.9159 68.0702 60.0404C67.9457 60.165 67.7768 60.2349 67.6007 60.2349H63.4915Z" stroke="url(#paint10_linear_10_1657)" stroke-width="0.6"/>
</g>
<g filter="url(#filter19_f_10_1657)">
<path d="M63.4915 45.7079C63.3153 45.7079 63.1464 45.6379 63.0219 45.5134C62.8974 45.3889 62.8274 45.2199 62.8274 45.0438V40.9346C62.8274 40.7585 62.8974 40.5896 63.0219 40.465C63.1464 40.3405 63.3153 40.2705 63.4915 40.2705H67.6007C67.7768 40.2705 67.9457 40.3405 68.0702 40.465C68.1948 40.5896 68.2647 40.7585 68.2647 40.9346V45.0438C68.2647 45.2199 68.1948 45.3889 68.0702 45.5134C67.9457 45.6379 67.7768 45.7079 67.6007 45.7079H63.4915Z" stroke="#43346D" stroke-width="0.6"/>
<path d="M63.4915 45.7079C63.3153 45.7079 63.1464 45.6379 63.0219 45.5134C62.8974 45.3889 62.8274 45.2199 62.8274 45.0438V40.9346C62.8274 40.7585 62.8974 40.5896 63.0219 40.465C63.1464 40.3405 63.3153 40.2705 63.4915 40.2705H67.6007C67.7768 40.2705 67.9457 40.3405 68.0702 40.465C68.1948 40.5896 68.2647 40.7585 68.2647 40.9346V45.0438C68.2647 45.2199 68.1948 45.3889 68.0702 45.5134C67.9457 45.6379 67.7768 45.7079 67.6007 45.7079H63.4915Z" stroke="url(#paint11_linear_10_1657)" stroke-width="0.6"/>
</g>
<g filter="url(#filter20_f_10_1657)">
<path d="M63.4915 31.1808C63.3153 31.1808 63.1464 31.1109 63.0219 30.9863C62.8974 30.8618 62.8274 30.6929 62.8274 30.5168V26.4076C62.8274 26.2314 62.8974 26.0625 63.0219 25.938C63.1464 25.8135 63.3153 25.7435 63.4915 25.7435H67.6007C67.7768 25.7435 67.9457 25.8135 68.0702 25.938C68.1948 26.0625 68.2647 26.2314 68.2647 26.4076V30.5168C68.2647 30.6929 68.1948 30.8618 68.0702 30.9863C67.9457 31.1109 67.7768 31.1808 67.6007 31.1808H63.4915Z" stroke="#43346D" stroke-width="0.6"/>
<path d="M63.4915 31.1808C63.3153 31.1808 63.1464 31.1109 63.0219 30.9863C62.8974 30.8618 62.8274 30.6929 62.8274 30.5168V26.4076C62.8274 26.2314 62.8974 26.0625 63.0219 25.938C63.1464 25.8135 63.3153 25.7435 63.4915 25.7435H67.6007C67.7768 25.7435 67.9457 25.8135 68.0702 25.938C68.1948 26.0625 68.2647 26.2314 68.2647 26.4076V30.5168C68.2647 30.6929 68.1948 30.8618 68.0702 30.9863C67.9457 31.1109 67.7768 31.1808 67.6007 31.1808H63.4915Z" stroke="url(#paint12_linear_10_1657)" stroke-width="0.6"/>
</g>
<g filter="url(#filter21_f_10_1657)">
<path d="M63.4915 16.6538C63.3153 16.6538 63.1464 16.5838 63.0219 16.4593C62.8974 16.3348 62.8274 16.1659 62.8274 15.9897V11.8832C62.8274 11.7071 62.8974 11.5382 63.0219 11.4136C63.1464 11.2891 63.3153 11.2191 63.4915 11.2191H67.6007C67.7768 11.2191 67.9457 11.2891 68.0702 11.4136C68.1948 11.5382 68.2647 11.7071 68.2647 11.8832V15.9924C68.2647 16.1685 68.1948 16.3374 68.0702 16.462C67.9457 16.5865 67.7768 16.6565 67.6007 16.6565L63.4915 16.6538Z" stroke="#43346D" stroke-width="0.6"/>
<path d="M63.4915 16.6538C63.3153 16.6538 63.1464 16.5838 63.0219 16.4593C62.8974 16.3348 62.8274 16.1659 62.8274 15.9897V11.8832C62.8274 11.7071 62.8974 11.5382 63.0219 11.4136C63.1464 11.2891 63.3153 11.2191 63.4915 11.2191H67.6007C67.7768 11.2191 67.9457 11.2891 68.0702 11.4136C68.1948 11.5382 68.2647 11.7071 68.2647 11.8832V15.9924C68.2647 16.1685 68.1948 16.3374 68.0702 16.462C67.9457 16.5865 67.7768 16.6565 67.6007 16.6565L63.4915 16.6538Z" stroke="url(#paint13_linear_10_1657)" stroke-width="0.6"/>
</g>
<path d="M18.5026 74.7593C18.3264 74.7593 18.1575 74.6893 18.033 74.5648C17.9085 74.4402 17.8385 74.2713 17.8385 74.0952V69.9887C17.8385 69.8125 17.9085 69.6436 18.033 69.5191C18.1575 69.3946 18.3264 69.3246 18.5026 69.3246H22.6118C22.7879 69.3246 22.9568 69.3946 23.0813 69.5191C23.2059 69.6436 23.2758 69.8125 23.2758 69.9887V74.0952C23.2758 74.2713 23.2059 74.4402 23.0813 74.5648C22.9568 74.6893 22.7879 74.7593 22.6118 74.7593H18.5026ZM18.5026 60.2349C18.3264 60.2349 18.1575 60.1649 18.033 60.0404C17.9085 59.9159 17.8385 59.747 17.8385 59.5708V55.4616C17.8385 55.2855 17.9085 55.1166 18.033 54.9921C18.1575 54.8675 18.3264 54.7976 18.5026 54.7976H22.6118C22.7879 54.7976 22.9568 54.8675 23.0813 54.9921C23.2059 55.1166 23.2758 55.2855 23.2758 55.4616L23.2758 59.5708C23.2758 59.747 23.2059 59.9159 23.0813 60.0404C22.9568 60.1649 22.7879 60.2349 22.6118 60.2349H18.5026ZM18.5026 45.7079C18.3264 45.7079 18.1575 45.6379 18.033 45.5134C17.9085 45.3888 17.8385 45.2199 17.8385 45.0438V40.9346C17.8385 40.7585 17.9085 40.5896 18.033 40.465C18.1575 40.3405 18.3264 40.2705 18.5026 40.2705H22.6118C22.7879 40.2705 22.9568 40.3405 23.0813 40.465C23.2059 40.5896 23.2758 40.7585 23.2758 40.9346L23.2758 45.0438C23.2758 45.2199 23.2059 45.3888 23.0813 45.5134C22.9568 45.6379 22.7879 45.7079 22.6118 45.7079H18.5026ZM18.5026 31.1808C18.3264 31.1808 18.1575 31.1109 18.033 30.9863C17.9085 30.8618 17.8385 30.6929 17.8385 30.5168V26.4076C17.8385 26.2314 17.9085 26.0625 18.033 25.938C18.1575 25.8135 18.3264 25.7435 18.5026 25.7435H22.6118C22.7879 25.7435 22.9568 25.8135 23.0813 25.938C23.2059 26.0625 23.2758 26.2314 23.2758 26.4076V30.5168C23.2758 30.6929 23.2059 30.8618 23.0813 30.9863C22.9568 31.1109 22.7879 31.1808 22.6118 31.1808H18.5026ZM18.5026 16.6538C18.3264 16.6538 18.1575 16.5838 18.033 16.4593C17.9085 16.3348 17.8385 16.1659 17.8385 15.9897L17.8385 11.8832C17.8385 11.7071 17.9085 11.5382 18.033 11.4136C18.1575 11.2891 18.3264 11.2191 18.5026 11.2191H22.6118C22.7879 11.2191 22.9568 11.2891 23.0813 11.4136C23.2059 11.5382 23.2758 11.7071 23.2758 11.8832V15.9924C23.2758 16.1685 23.2059 16.3374 23.0813 16.462C22.9568 16.5865 22.7879 16.6565 22.6118 16.6565L18.5026 16.6538Z" fill="#E5E5E5"/>
<g filter="url(#filter22_f_10_1657)">
<path d="M63.4915 74.7593C63.3153 74.7593 63.1464 74.6893 63.0219 74.5648C62.8974 74.4402 62.8274 74.2713 62.8274 74.0952V69.9887C62.8274 69.8125 62.8974 69.6436 63.0219 69.5191C63.1464 69.3946 63.3153 69.3246 63.4915 69.3246H67.6007C67.7768 69.3246 67.9457 69.3946 68.0702 69.5191C68.1948 69.6436 68.2647 69.8125 68.2647 69.9887V74.0952C68.2647 74.2713 68.1948 74.4402 68.0702 74.5648C67.9457 74.6893 67.7768 74.7593 67.6007 74.7593H63.4915Z" stroke="#422E6F" stroke-width="0.1"/>
</g>
<g filter="url(#filter23_f_10_1657)">
<path d="M63.4915 60.2349C63.3153 60.2349 63.1464 60.165 63.0219 60.0404C62.8974 59.9159 62.8274 59.747 62.8274 59.5709V55.4616C62.8274 55.2855 62.8974 55.1166 63.0219 54.9921C63.1464 54.8675 63.3153 54.7976 63.4915 54.7976H67.6007C67.7768 54.7976 67.9457 54.8675 68.0702 54.9921C68.1948 55.1166 68.2647 55.2855 68.2647 55.4616V59.5709C68.2647 59.747 68.1948 59.9159 68.0702 60.0404C67.9457 60.165 67.7768 60.2349 67.6007 60.2349H63.4915Z" stroke="#422E6F" stroke-width="0.1"/>
</g>
<g filter="url(#filter24_f_10_1657)">
<path d="M63.4915 45.6866C63.3153 45.6866 63.1464 45.6167 63.0219 45.4921C62.8974 45.3676 62.8274 45.1987 62.8274 45.0226V40.9133C62.8274 40.7372 62.8974 40.5683 63.0219 40.4438C63.1464 40.3192 63.3153 40.2493 63.4915 40.2493H67.6007C67.7768 40.2493 67.9457 40.3192 68.0702 40.4438C68.1948 40.5683 68.2647 40.7372 68.2647 40.9133V45.0226C68.2647 45.1987 68.1948 45.3676 68.0702 45.4921C67.9457 45.6167 67.7768 45.6866 67.6007 45.6866H63.4915Z" stroke="#422E6F" stroke-width="0.1"/>
</g>
<g filter="url(#filter25_f_10_1657)">
<path d="M63.4915 31.1808C63.3153 31.1808 63.1464 31.1109 63.0219 30.9863C62.8974 30.8618 62.8274 30.6929 62.8274 30.5168V26.4076C62.8274 26.2314 62.8974 26.0625 63.0219 25.938C63.1464 25.8135 63.3153 25.7435 63.4915 25.7435H67.6007C67.7768 25.7435 67.9457 25.8135 68.0702 25.938C68.1948 26.0625 68.2647 26.2314 68.2647 26.4076V30.5168C68.2647 30.6929 68.1948 30.8618 68.0702 30.9863C67.9457 31.1109 67.7768 31.1808 67.6007 31.1808H63.4915Z" stroke="#422E6F" stroke-width="0.1"/>
</g>
<g filter="url(#filter26_f_10_1657)">
<path d="M63.4915 16.6538C63.3153 16.6538 63.1464 16.5838 63.0219 16.4593C62.8974 16.3348 62.8274 16.1659 62.8274 15.9897V11.8832C62.8274 11.7071 62.8974 11.5382 63.0219 11.4136C63.1464 11.2891 63.3153 11.2191 63.4915 11.2191H67.6007C67.7768 11.2191 67.9457 11.2891 68.0702 11.4136C68.1948 11.5382 68.2647 11.7071 68.2647 11.8832V15.9924C68.2647 16.1685 68.1948 16.3374 68.0702 16.462C67.9457 16.5865 67.7768 16.6565 67.6007 16.6565L63.4915 16.6538Z" stroke="#422E6F" stroke-width="0.1"/>
</g>
<path d="M63.4915 74.7593C63.3153 74.7593 63.1464 74.6893 63.0219 74.5648C62.8974 74.4402 62.8274 74.2713 62.8274 74.0952V69.9887C62.8274 69.8125 62.8974 69.6436 63.0219 69.5191C63.1464 69.3946 63.3153 69.3246 63.4915 69.3246H67.6007C67.7768 69.3246 67.9457 69.3946 68.0702 69.5191C68.1948 69.6436 68.2647 69.8125 68.2647 69.9887V74.0952C68.2647 74.2713 68.1948 74.4402 68.0702 74.5648C67.9457 74.6893 67.7768 74.7593 67.6007 74.7593H63.4915ZM63.4915 60.2349C63.3153 60.2349 63.1464 60.1649 63.0219 60.0404C62.8974 59.9159 62.8274 59.747 62.8274 59.5708V55.4616C62.8274 55.2855 62.8974 55.1166 63.0219 54.9921C63.1464 54.8675 63.3153 54.7976 63.4915 54.7976H67.6007C67.7768 54.7976 67.9457 54.8675 68.0702 54.9921C68.1948 55.1166 68.2647 55.2855 68.2647 55.4616V59.5708C68.2647 59.747 68.1948 59.9159 68.0702 60.0404C67.9457 60.1649 67.7768 60.2349 67.6007 60.2349H63.4915ZM63.4915 45.7079C63.3153 45.7079 63.1464 45.6379 63.0219 45.5134C62.8974 45.3888 62.8274 45.2199 62.8274 45.0438V40.9346C62.8274 40.7585 62.8974 40.5896 63.0219 40.465C63.1464 40.3405 63.3153 40.2705 63.4915 40.2705H67.6007C67.7768 40.2705 67.9457 40.3405 68.0702 40.465C68.1948 40.5896 68.2647 40.7585 68.2647 40.9346V45.0438C68.2647 45.2199 68.1948 45.3888 68.0702 45.5134C67.9457 45.6379 67.7768 45.7079 67.6007 45.7079H63.4915ZM63.4915 31.1808C63.3153 31.1808 63.1464 31.1109 63.0219 30.9863C62.8974 30.8618 62.8274 30.6929 62.8274 30.5168V26.4076C62.8274 26.2314 62.8974 26.0625 63.0219 25.938C63.1464 25.8135 63.3153 25.7435 63.4915 25.7435H67.6007C67.7768 25.7435 67.9457 25.8135 68.0702 25.938C68.1948 26.0625 68.2647 26.2314 68.2647 26.4076V30.5168C68.2647 30.6929 68.1948 30.8618 68.0702 30.9863C67.9457 31.1109 67.7768 31.1808 67.6007 31.1808H63.4915ZM63.4915 16.6538C63.3153 16.6538 63.1464 16.5838 63.0219 16.4593C62.8974 16.3348 62.8274 16.1659 62.8274 15.9897V11.8832C62.8274 11.7071 62.8974 11.5382 63.0219 11.4136C63.1464 11.2891 63.3153 11.2191 63.4915 11.2191H67.6007C67.7768 11.2191 67.9457 11.2891 68.0702 11.4136C68.1948 11.5382 68.2647 11.7071 68.2647 11.8832V15.9924C68.2647 16.1685 68.1948 16.3374 68.0702 16.462C67.9457 16.5865 67.7768 16.6565 67.6007 16.6565L63.4915 16.6538Z" fill="#E5E5E5"/>
<defs>
<filter id="filter0_iiii_10_1657" x="13.4505" y="5.64647" width="59.2198" height="74.643" filterUnits="userSpaceOnUse" color-interpolation-filters="sRGB">
<feFlood flood-opacity="0" result="BackgroundImageFix"/>
<feBlend mode="normal" in="SourceGraphic" in2="BackgroundImageFix" result="shape"/>
<feColorMatrix in="SourceAlpha" type="matrix" values="0 0 0 0 0 0 0 0 0 0 0 0 0 0 0 0 0 0 127 0" result="hardAlpha"/>
<feOffset dy="0.4"/>
<feGaussianBlur stdDeviation="0.15"/>
<feComposite in2="hardAlpha" operator="arithmetic" k2="-1" k3="1"/>
<feColorMatrix type="matrix" values="0 0 0 0 0.356863 0 0 0 0 0.317647 0 0 0 0 0.501961 0 0 0 1 0"/>
<feBlend mode="normal" in2="shape" result="effect1_innerShadow_10_1657"/>
<feColorMatrix in="SourceAlpha" type="matrix" values="0 0 0 0 0 0 0 0 0 0 0 0 0 0 0 0 0 0 127 0" result="hardAlpha"/>
<feOffset dx="-0.4"/>
<feGaussianBlur stdDeviation="0.15"/>
<feComposite in2="hardAlpha" operator="arithmetic" k2="-1" k3="1"/>
<feColorMatrix type="matrix" values="0 0 0 0 0.447059 0 0 0 0 0.407843 0 0 0 0 0.572549 0 0 0 1 0"/>
<feBlend mode="normal" in2="effect1_innerShadow_10_1657" result="effect2_innerShadow_10_1657"/>
<feColorMatrix in="SourceAlpha" type="matrix" values="0 0 0 0 0 0 0 0 0 0 0 0 0 0 0 0 0 0 127 0" result="hardAlpha"/>
<feOffset dy="-0.4"/>
<feGaussianBlur stdDeviation="0.15"/>
<feComposite in2="hardAlpha" operator="arithmetic" k2="-1" k3="1"/>
<feColorMatrix type="matrix" values="0 0 0 0 0.376471 0 0 0 0 0.231373 0 0 0 0 0.584314 0 0 0 1 0"/>
<feBlend mode="normal" in2="effect2_innerShadow_10_1657" result="effect3_innerShadow_10_1657"/>
<feColorMatrix in="SourceAlpha" type="matrix" values="0 0 0 0 0 0 0 0 0 0 0 0 0 0 0 0 0 0 127 0" result="hardAlpha"/>
<feOffset dx="0.4"/>
<feGaussianBlur stdDeviation="0.2"/>
<feComposite in2="hardAlpha" operator="arithmetic" k2="-1" k3="1"/>
<feColorMatrix type="matrix" values="0 0 0 0 0.313726 0 0 0 0 0.262745 0 0 0 0 0.466667 0 0 0 1 0"/>
<feBlend mode="normal" in2="effect3_innerShadow_10_1657" result="effect4_innerShadow_10_1657"/>
</filter>
<filter id="filter1_f_10_1657" x="26.5316" y="64.4655" width="33.04" height="14.858" filterUnits="userSpaceOnUse" color-interpolation-filters="sRGB">
<feFlood flood-opacity="0" result="BackgroundImageFix"/>
<feBlend mode="normal" in="SourceGraphic" in2="BackgroundImageFix" result="shape"/>
<feGaussianBlur stdDeviation="0.15" result="effect1_foregroundBlur_10_1657"/>
</filter>
<filter id="filter2_f_10_1657" x="26.5316" y="6.57256" width="33.04" height="14.8978" filterUnits="userSpaceOnUse" color-interpolation-filters="sRGB">
<feFlood flood-opacity="0" result="BackgroundImageFix"/>
<feBlend mode="normal" in="SourceGraphic" in2="BackgroundImageFix" result="shape"/>
<feGaussianBlur stdDeviation="0.15" result="effect1_foregroundBlur_10_1657"/>
</filter>
<filter id="filter3_f_10_1657" x="26.5316" y="26.3431" width="33.04" height="33.4172" filterUnits="userSpaceOnUse" color-interpolation-filters="sRGB">
<feFlood flood-opacity="0" result="BackgroundImageFix"/>
<feBlend mode="normal" in="SourceGraphic" in2="BackgroundImageFix" result="shape"/>
<feGaussianBlur stdDeviation="0.15" result="effect1_foregroundBlur_10_1657"/>
</filter>
<filter id="filter4_i_10_1657" x="27.1566" y="5.94647" width="32.79" height="14.9016" filterUnits="userSpaceOnUse" color-interpolation-filters="sRGB">
<feFlood flood-opacity="0" result="BackgroundImageFix"/>
<feBlend mode="normal" in="SourceGraphic" in2="BackgroundImageFix" result="shape"/>
<feColorMatrix in="SourceAlpha" type="matrix" values="0 0 0 0 0 0 0 0 0 0 0 0 0 0 0 0 0 0 127 0" result="hardAlpha"/>
<feOffset dx="1"/>
<feGaussianBlur stdDeviation="1.5"/>
<feComposite in2="hardAlpha" operator="arithmetic" k2="-1" k3="1"/>
<feColorMatrix type="matrix" values="0 0 0 0 0.321569 0 0 0 0 0.615686 0 0 0 0 0.764706 0 0 0 1 0"/>
<feBlend mode="normal" in2="shape" result="effect1_innerShadow_10_1657"/>
</filter>
<filter id="filter5_i_10_1657" x="27.1566" y="26.9681" width="31.79" height="32.1672" filterUnits="userSpaceOnUse" color-interpolation-filters="sRGB">
<feFlood flood-opacity="0" result="BackgroundImageFix"/>
<feBlend mode="normal" in="SourceGraphic" in2="BackgroundImageFix" result="shape"/>
<feColorMatrix in="SourceAlpha" type="matrix" values="0 0 0 0 0 0 0 0 0 0 0 0 0 0 0 0 0 0 127 0" result="hardAlpha"/>
<feOffset/>
<feGaussianBlur stdDeviation="2"/>
<feComposite in2="hardAlpha" operator="arithmetic" k2="-1" k3="1"/>
<feColorMatrix type="matrix" values="0 0 0 0 0.321569 0 0 0 0 0.615686 0 0 0 0 0.764706 0 0 0 1 0"/>
<feBlend mode="normal" in2="shape" result="effect1_innerShadow_10_1657"/>
</filter>
<filter id="filter6_i_10_1657" x="26.1566" y="65.0879" width="32.79" height="14.9016" filterUnits="userSpaceOnUse" color-interpolation-filters="sRGB">
<feFlood flood-opacity="0" result="BackgroundImageFix"/>
<feBlend mode="normal" in="SourceGraphic" in2="BackgroundImageFix" result="shape"/>
<feColorMatrix in="SourceAlpha" type="matrix" values="0 0 0 0 0 0 0 0 0 0 0 0 0 0 0 0 0 0 127 0" result="hardAlpha"/>
<feOffset dx="-1"/>
<feGaussianBlur stdDeviation="1.5"/>
<feComposite in2="hardAlpha" operator="arithmetic" k2="-1" k3="1"/>
<feColorMatrix type="matrix" values="0 0 0 0 0.321569 0 0 0 0 0.615686 0 0 0 0 0.764706 0 0 0 1 0"/>
<feBlend mode="normal" in2="shape" result="effect1_innerShadow_10_1657"/>
</filter>
<filter id="filter7_f_10_1657" x="17.2885" y="68.7746" width="6.53735" height="6.53467" filterUnits="userSpaceOnUse" color-interpolation-filters="sRGB">
<feFlood flood-opacity="0" result="BackgroundImageFix"/>
<feBlend mode="normal" in="SourceGraphic" in2="BackgroundImageFix" result="shape"/>
<feGaussianBlur stdDeviation="0.125" result="effect1_foregroundBlur_10_1657"/>
</filter>
<filter id="filter8_f_10_1657" x="17.6385" y="69.1246" width="5.83735" height="5.83467" filterUnits="userSpaceOnUse" color-interpolation-filters="sRGB">
<feFlood flood-opacity="0" result="BackgroundImageFix"/>
<feBlend mode="normal" in="SourceGraphic" in2="BackgroundImageFix" result="shape"/>
<feGaussianBlur stdDeviation="0.075" result="effect1_foregroundBlur_10_1657"/>
</filter>
<filter id="filter9_f_10_1657" x="17.2885" y="54.2476" width="6.53735" height="6.53735" filterUnits="userSpaceOnUse" color-interpolation-filters="sRGB">
<feFlood flood-opacity="0" result="BackgroundImageFix"/>
<feBlend mode="normal" in="SourceGraphic" in2="BackgroundImageFix" result="shape"/>
<feGaussianBlur stdDeviation="0.125" result="effect1_foregroundBlur_10_1657"/>
</filter>
<filter id="filter10_f_10_1657" x="17.6385" y="54.5976" width="5.83735" height="5.83735" filterUnits="userSpaceOnUse" color-interpolation-filters="sRGB">
<feFlood flood-opacity="0" result="BackgroundImageFix"/>
<feBlend mode="normal" in="SourceGraphic" in2="BackgroundImageFix" result="shape"/>
<feGaussianBlur stdDeviation="0.075" result="effect1_foregroundBlur_10_1657"/>
</filter>
<filter id="filter11_f_10_1657" x="17.2885" y="39.6993" width="6.53735" height="6.53732" filterUnits="userSpaceOnUse" color-interpolation-filters="sRGB">
<feFlood flood-opacity="0" result="BackgroundImageFix"/>
<feBlend mode="normal" in="SourceGraphic" in2="BackgroundImageFix" result="shape"/>
<feGaussianBlur stdDeviation="0.125" result="effect1_foregroundBlur_10_1657"/>
</filter>
<filter id="filter12_f_10_1657" x="17.6385" y="40.0493" width="5.83735" height="5.83732" filterUnits="userSpaceOnUse" color-interpolation-filters="sRGB">
<feFlood flood-opacity="0" result="BackgroundImageFix"/>
<feBlend mode="normal" in="SourceGraphic" in2="BackgroundImageFix" result="shape"/>
<feGaussianBlur stdDeviation="0.075" result="effect1_foregroundBlur_10_1657"/>
</filter>
<filter id="filter13_f_10_1657" x="17.2885" y="25.1935" width="6.53735" height="6.53732" filterUnits="userSpaceOnUse" color-interpolation-filters="sRGB">
<feFlood flood-opacity="0" result="BackgroundImageFix"/>
<feBlend mode="normal" in="SourceGraphic" in2="BackgroundImageFix" result="shape"/>
<feGaussianBlur stdDeviation="0.125" result="effect1_foregroundBlur_10_1657"/>
</filter>
<filter id="filter14_f_10_1657" x="17.6385" y="25.5435" width="5.83735" height="5.83732" filterUnits="userSpaceOnUse" color-interpolation-filters="sRGB">
<feFlood flood-opacity="0" result="BackgroundImageFix"/>
<feBlend mode="normal" in="SourceGraphic" in2="BackgroundImageFix" result="shape"/>
<feGaussianBlur stdDeviation="0.075" result="effect1_foregroundBlur_10_1657"/>
</filter>
<filter id="filter15_f_10_1657" x="17.2885" y="10.6691" width="6.53735" height="6.53732" filterUnits="userSpaceOnUse" color-interpolation-filters="sRGB">
<feFlood flood-opacity="0" result="BackgroundImageFix"/>
<feBlend mode="normal" in="SourceGraphic" in2="BackgroundImageFix" result="shape"/>
<feGaussianBlur stdDeviation="0.125" result="effect1_foregroundBlur_10_1657"/>
</filter>
<filter id="filter16_f_10_1657" x="17.6385" y="11.0191" width="5.83735" height="5.83732" filterUnits="userSpaceOnUse" color-interpolation-filters="sRGB">
<feFlood flood-opacity="0" result="BackgroundImageFix"/>
<feBlend mode="normal" in="SourceGraphic" in2="BackgroundImageFix" result="shape"/>
<feGaussianBlur stdDeviation="0.075" result="effect1_foregroundBlur_10_1657"/>
</filter>
<filter id="filter17_f_10_1657" x="62.2774" y="68.7746" width="6.53735" height="6.53467" filterUnits="userSpaceOnUse" color-interpolation-filters="sRGB">
<feFlood flood-opacity="0" result="BackgroundImageFix"/>
<feBlend mode="normal" in="SourceGraphic" in2="BackgroundImageFix" result="shape"/>
<feGaussianBlur stdDeviation="0.125" result="effect1_foregroundBlur_10_1657"/>
</filter>
<filter id="filter18_f_10_1657" x="62.2774" y="54.2476" width="6.53735" height="6.53735" filterUnits="userSpaceOnUse" color-interpolation-filters="sRGB">
<feFlood flood-opacity="0" result="BackgroundImageFix"/>
<feBlend mode="normal" in="SourceGraphic" in2="BackgroundImageFix" result="shape"/>
<feGaussianBlur stdDeviation="0.125" result="effect1_foregroundBlur_10_1657"/>
</filter>
<filter id="filter19_f_10_1657" x="62.2774" y="39.7206" width="6.53735" height="6.53732" filterUnits="userSpaceOnUse" color-interpolation-filters="sRGB">
<feFlood flood-opacity="0" result="BackgroundImageFix"/>
<feBlend mode="normal" in="SourceGraphic" in2="BackgroundImageFix" result="shape"/>
<feGaussianBlur stdDeviation="0.125" result="effect1_foregroundBlur_10_1657"/>
</filter>
<filter id="filter20_f_10_1657" x="62.2774" y="25.1935" width="6.53735" height="6.53732" filterUnits="userSpaceOnUse" color-interpolation-filters="sRGB">
<feFlood flood-opacity="0" result="BackgroundImageFix"/>
<feBlend mode="normal" in="SourceGraphic" in2="BackgroundImageFix" result="shape"/>
<feGaussianBlur stdDeviation="0.125" result="effect1_foregroundBlur_10_1657"/>
</filter>
<filter id="filter21_f_10_1657" x="62.2774" y="10.6691" width="6.53735" height="6.53732" filterUnits="userSpaceOnUse" color-interpolation-filters="sRGB">
<feFlood flood-opacity="0" result="BackgroundImageFix"/>
<feBlend mode="normal" in="SourceGraphic" in2="BackgroundImageFix" result="shape"/>
<feGaussianBlur stdDeviation="0.125" result="effect1_foregroundBlur_10_1657"/>
</filter>
<filter id="filter22_f_10_1657" x="62.6274" y="69.1246" width="5.83735" height="5.83467" filterUnits="userSpaceOnUse" color-interpolation-filters="sRGB">
<feFlood flood-opacity="0" result="BackgroundImageFix"/>
<feBlend mode="normal" in="SourceGraphic" in2="BackgroundImageFix" result="shape"/>
<feGaussianBlur stdDeviation="0.075" result="effect1_foregroundBlur_10_1657"/>
</filter>
<filter id="filter23_f_10_1657" x="62.6274" y="54.5976" width="5.83735" height="5.83735" filterUnits="userSpaceOnUse" color-interpolation-filters="sRGB">
<feFlood flood-opacity="0" result="BackgroundImageFix"/>
<feBlend mode="normal" in="SourceGraphic" in2="BackgroundImageFix" result="shape"/>
<feGaussianBlur stdDeviation="0.075" result="effect1_foregroundBlur_10_1657"/>
</filter>
<filter id="filter24_f_10_1657" x="62.6274" y="40.0493" width="5.83735" height="5.83732" filterUnits="userSpaceOnUse" color-interpolation-filters="sRGB">
<feFlood flood-opacity="0" result="BackgroundImageFix"/>
<feBlend mode="normal" in="SourceGraphic" in2="BackgroundImageFix" result="shape"/>
<feGaussianBlur stdDeviation="0.075" result="effect1_foregroundBlur_10_1657"/>
</filter>
<filter id="filter25_f_10_1657" x="62.6274" y="25.5435" width="5.83735" height="5.83732" filterUnits="userSpaceOnUse" color-interpolation-filters="sRGB">
<feFlood flood-opacity="0" result="BackgroundImageFix"/>
<feBlend mode="normal" in="SourceGraphic" in2="BackgroundImageFix" result="shape"/>
<feGaussianBlur stdDeviation="0.075" result="effect1_foregroundBlur_10_1657"/>
</filter>
<filter id="filter26_f_10_1657" x="62.6274" y="11.0191" width="5.83735" height="5.83732" filterUnits="userSpaceOnUse" color-interpolation-filters="sRGB">
<feFlood flood-opacity="0" result="BackgroundImageFix"/>
<feBlend mode="normal" in="SourceGraphic" in2="BackgroundImageFix" result="shape"/>
<feGaussianBlur stdDeviation="0.075" result="effect1_foregroundBlur_10_1657"/>
</filter>
<linearGradient id="paint0_linear_10_1657" x1="57.4804" y1="78.1965" x2="56.8615" y2="69.2582" gradientUnits="userSpaceOnUse">
<stop stop-color="#564D7C"/>
<stop offset="1" stop-color="#564D7C" stop-opacity="0"/>
</linearGradient>
<linearGradient id="paint1_linear_10_1657" x1="57.4804" y1="20.3407" x2="57.2121" y2="17.0204" gradientUnits="userSpaceOnUse">
<stop stop-color="#7D769C"/>
<stop offset="1" stop-color="#7D769C" stop-opacity="0"/>
</linearGradient>
<linearGradient id="paint2_linear_10_1657" x1="57.4804" y1="57.9399" x2="56.0327" y2="50.3431" gradientUnits="userSpaceOnUse">
<stop stop-color="#7D769C"/>
<stop offset="1" stop-color="#7D769C" stop-opacity="0"/>
</linearGradient>
<linearGradient id="paint3_linear_10_1657" x1="58.9466" y1="3.70458" x2="58.9466" y2="14.6616" gradientUnits="userSpaceOnUse">
<stop stop-color="#87CDED"/>
<stop offset="1" stop-color="#87CDED" stop-opacity="0"/>
</linearGradient>
<linearGradient id="paint4_linear_10_1657" x1="23.2758" y1="75.1763" x2="23.0049" y2="72.7671" gradientUnits="userSpaceOnUse">
<stop stop-color="#7A7294"/>
<stop offset="1" stop-color="#7A7294" stop-opacity="0"/>
</linearGradient>
<linearGradient id="paint5_linear_10_1657" x1="23.2758" y1="60.6493" x2="23.0049" y2="58.2427" gradientUnits="userSpaceOnUse">
<stop stop-color="#7A7294"/>
<stop offset="1" stop-color="#7A7294" stop-opacity="0"/>
</linearGradient>
<linearGradient id="paint6_linear_10_1657" x1="23.2758" y1="46.101" x2="23.0049" y2="43.6944" gradientUnits="userSpaceOnUse">
<stop stop-color="#7A7294"/>
<stop offset="1" stop-color="#7A7294" stop-opacity="0"/>
</linearGradient>
<linearGradient id="paint7_linear_10_1657" x1="23.2758" y1="31.5952" x2="23.0049" y2="29.1887" gradientUnits="userSpaceOnUse">
<stop stop-color="#7A7294"/>
<stop offset="1" stop-color="#7A7294" stop-opacity="0"/>
</linearGradient>
<linearGradient id="paint8_linear_10_1657" x1="23.2758" y1="17.0708" x2="23.0049" y2="14.6616" gradientUnits="userSpaceOnUse">
<stop stop-color="#7A7294"/>
<stop offset="1" stop-color="#7A7294" stop-opacity="0"/>
</linearGradient>
<linearGradient id="paint9_linear_10_1657" x1="68.2647" y1="75.1763" x2="67.9965" y2="72.7671" gradientUnits="userSpaceOnUse">
<stop stop-color="#7A7294"/>
<stop offset="1" stop-color="#7A7294" stop-opacity="0"/>
</linearGradient>
<linearGradient id="paint10_linear_10_1657" x1="68.2647" y1="60.6493" x2="67.9965" y2="58.2427" gradientUnits="userSpaceOnUse">
<stop stop-color="#7A7294"/>
<stop offset="1" stop-color="#7A7294" stop-opacity="0"/>
</linearGradient>
<linearGradient id="paint11_linear_10_1657" x1="68.2647" y1="46.1223" x2="67.9965" y2="43.7157" gradientUnits="userSpaceOnUse">
<stop stop-color="#7A7294"/>
<stop offset="1" stop-color="#7A7294" stop-opacity="0"/>
</linearGradient>
<linearGradient id="paint12_linear_10_1657" x1="68.2647" y1="31.5952" x2="67.9965" y2="29.1887" gradientUnits="userSpaceOnUse">
<stop stop-color="#7A7294"/>
<stop offset="1" stop-color="#7A7294" stop-opacity="0"/>
</linearGradient>
<linearGradient id="paint13_linear_10_1657" x1="68.2647" y1="17.0708" x2="67.9965" y2="14.6616" gradientUnits="userSpaceOnUse">
<stop stop-color="#7A7294"/>
<stop offset="1" stop-color="#7A7294" stop-opacity="0"/>
</linearGradient>
</defs>
</svg>
