<svg width="85" height="85" viewBox="0 0 85 85" fill="none" xmlns="http://www.w3.org/2000/svg">
<g clip-path="url(#clip0_6_31)">
<g filter="url(#filter0_d_6_31)">
<mask id="mask0_6_31" style="mask-type:luminance" maskUnits="userSpaceOnUse" x="5" y="5" width="80" height="80">
<path d="M5.6044 5.60439H85V85H5.6044V5.60439Z" fill="white"/>
</mask>
<g mask="url(#mask0_6_31)">
<path d="M20.2926 50.2346L10.9388 40.8808C9.8223 39.7643 10.6163 37.8291 12.2042 37.8291H20.2926V50.2346Z" fill="url(#paint0_radial_6_31)"/>
<path d="M20.2926 50.2346L10.9388 40.8808C9.8223 39.7643 10.6163 37.8291 12.2042 37.8291H20.2926V50.2346Z" fill="url(#paint1_linear_6_31)" fill-opacity="0.75"/>
<path d="M20.2926 50.2346L10.9388 40.8808C9.8223 39.7643 10.6163 37.8291 12.2042 37.8291H20.2926V50.2346Z" fill="url(#paint2_linear_6_31)" fill-opacity="0.75"/>
<path d="M20.2926 50.2346L10.9388 40.8808C9.8223 39.7643 10.6163 37.8291 12.2042 37.8291H20.2926V50.2346Z" fill="url(#paint3_radial_6_31)"/>
<path d="M69.9396 50.2346L79.2934 40.8808C80.4099 39.7643 79.616 37.8291 78.0281 37.8291H69.9396V50.2346Z" fill="url(#paint4_radial_6_31)"/>
<path d="M69.9396 50.2346L79.2934 40.8808C80.4099 39.7643 79.616 37.8291 78.0281 37.8291H69.9396V50.2346Z" fill="url(#paint5_linear_6_31)" fill-opacity="0.75"/>
<path d="M69.9396 50.2346L79.2934 40.8808C80.4099 39.7643 79.616 37.8291 78.0281 37.8291H69.9396V50.2346Z" fill="url(#paint6_linear_6_31)" fill-opacity="0.75"/>
<g filter="url(#filter1_f_6_31)">
<path d="M78.765 39.747C79.1089 39.747 79.3877 39.4682 79.3877 39.1242C79.3877 38.7803 79.1089 38.5015 78.765 38.5015C78.421 38.5015 78.1422 38.7803 78.1422 39.1242C78.1422 39.4682 78.421 39.747 78.765 39.747Z" fill="white"/>
</g>
<path d="M70.0811 31.5692C68.3244 19.5135 57.7003 10.5368 45.1682 10.5368C32.6361 10.5368 22.0393 19.5135 20.2554 31.5692L15.442 73.8846C15.0078 76.7131 16.9183 79.5664 19.8485 79.9385C22.3941 80.2611 23.7537 80.1668 27.0065 77.5567C30.3436 74.3064 35.7698 74.3064 39.1044 77.5567C42.4415 80.8069 47.8677 80.8069 51.2048 77.5567C54.5419 74.3064 59.9681 74.3064 63.3052 77.5567C65.0891 79.2934 67.4312 80.0874 69.7486 79.9881C72.9592 79.8393 75.3286 76.9364 74.8696 73.835L70.0811 31.5692Z" fill="url(#paint7_radial_6_31)"/>
<path d="M70.0811 31.5692C68.3244 19.5135 57.7003 10.5368 45.1682 10.5368C32.6361 10.5368 22.0393 19.5135 20.2554 31.5692L15.442 73.8846C15.0078 76.7131 16.9183 79.5664 19.8485 79.9385C22.3941 80.2611 23.7537 80.1668 27.0065 77.5567C30.3436 74.3064 35.7698 74.3064 39.1044 77.5567C42.4415 80.8069 47.8677 80.8069 51.2048 77.5567C54.5419 74.3064 59.9681 74.3064 63.3052 77.5567C65.0891 79.2934 67.4312 80.0874 69.7486 79.9881C72.9592 79.8393 75.3286 76.9364 74.8696 73.835L70.0811 31.5692Z" fill="url(#paint8_radial_6_31)"/>
<path d="M70.0811 31.5692C68.3244 19.5135 57.7003 10.5368 45.1682 10.5368C32.6361 10.5368 22.0393 19.5135 20.2554 31.5692L15.442 73.8846C15.0078 76.7131 16.9183 79.5664 19.8485 79.9385C22.3941 80.2611 23.7537 80.1668 27.0065 77.5567C30.3436 74.3064 35.7698 74.3064 39.1044 77.5567C42.4415 80.8069 47.8677 80.8069 51.2048 77.5567C54.5419 74.3064 59.9681 74.3064 63.3052 77.5567C65.0891 79.2934 67.4312 80.0874 69.7486 79.9881C72.9592 79.8393 75.3286 76.9364 74.8696 73.835L70.0811 31.5692Z" fill="url(#paint9_radial_6_31)"/>
<path d="M70.0811 31.5692C68.3244 19.5135 57.7003 10.5368 45.1682 10.5368C32.6361 10.5368 22.0393 19.5135 20.2554 31.5692L15.442 73.8846C15.0078 76.7131 16.9183 79.5664 19.8485 79.9385C22.3941 80.2611 23.7537 80.1668 27.0065 77.5567C30.3436 74.3064 35.7698 74.3064 39.1044 77.5567C42.4415 80.8069 47.8677 80.8069 51.2048 77.5567C54.5419 74.3064 59.9681 74.3064 63.3052 77.5567C65.0891 79.2934 67.4312 80.0874 69.7486 79.9881C72.9592 79.8393 75.3286 76.9364 74.8696 73.835L70.0811 31.5692Z" fill="url(#paint10_radial_6_31)" fill-opacity="0.75"/>
<path d="M70.0811 31.5692C68.3244 19.5135 57.7003 10.5368 45.1682 10.5368C32.6361 10.5368 22.0393 19.5135 20.2554 31.5692L15.442 73.8846C15.0078 76.7131 16.9183 79.5664 19.8485 79.9385C22.3941 80.2611 23.7537 80.1668 27.0065 77.5567C30.3436 74.3064 35.7698 74.3064 39.1044 77.5567C42.4415 80.8069 47.8677 80.8069 51.2048 77.5567C54.5419 74.3064 59.9681 74.3064 63.3052 77.5567C65.0891 79.2934 67.4312 80.0874 69.7486 79.9881C72.9592 79.8393 75.3286 76.9364 74.8696 73.835L70.0811 31.5692Z" fill="url(#paint11_linear_6_31)"/>
<g filter="url(#filter2_f_6_31)">
<path d="M72.7508 74.6091C70.8503 74.7881 68.9353 74.4839 67.1838 73.7248C65.4323 72.9657 63.9009 71.7764 62.7321 70.2671L58.9012 65.3272C58.5644 64.8927 58.1369 64.5368 57.6485 64.2842C57.1601 64.0317 56.6225 63.8887 56.0732 63.865C55.5239 63.8414 54.976 63.9378 54.4678 64.1475C53.9595 64.3572 53.503 64.6751 53.1301 65.0791L46.8182 71.9171C45.9875 72.8169 44.8535 73.3777 43.6342 73.4918C42.415 73.6058 41.1966 73.265 40.2135 72.5349L38.8687 71.5375C37.2181 70.3114 35.2275 69.6283 33.1718 69.5825C31.1162 69.5368 29.0971 70.1306 27.3936 71.2819L22.2279 74.7728C21.9445 74.9647 21.6246 75.0958 21.2881 75.158C20.9516 75.2202 20.6059 75.2122 20.2727 75.1343C19.9395 75.0565 19.626 74.9106 19.3518 74.7058C19.0777 74.501 18.849 74.2417 18.6799 73.9442L16.7744 70.5922L16.4643 73.0733C16.0425 75.8273 17.6552 78.234 20.5085 78.5938C22.9896 78.9089 24.312 78.8171 27.4804 76.2764C29.0639 74.754 31.1752 73.9036 33.3718 73.9036C35.5684 73.9036 37.6798 74.754 39.2632 76.2764C42.5135 79.4398 47.8156 79.611 51.0659 76.4451C55.3681 73.2271 59.5934 73.7134 62.8313 76.2764C64.5681 77.966 66.8507 78.7401 69.1085 78.6434C70.2374 78.5938 72.0511 77.6336 72.7508 74.6091Z" fill="url(#paint12_linear_6_31)"/>
<path d="M72.7508 74.6091C70.8503 74.7881 68.9353 74.4839 67.1838 73.7248C65.4323 72.9657 63.9009 71.7764 62.7321 70.2671L58.9012 65.3272C58.5644 64.8927 58.1369 64.5368 57.6485 64.2842C57.1601 64.0317 56.6225 63.8887 56.0732 63.865C55.5239 63.8414 54.976 63.9378 54.4678 64.1475C53.9595 64.3572 53.503 64.6751 53.1301 65.0791L46.8182 71.9171C45.9875 72.8169 44.8535 73.3777 43.6342 73.4918C42.415 73.6058 41.1966 73.265 40.2135 72.5349L38.8687 71.5375C37.2181 70.3114 35.2275 69.6283 33.1718 69.5825C31.1162 69.5368 29.0971 70.1306 27.3936 71.2819L22.2279 74.7728C21.9445 74.9647 21.6246 75.0958 21.2881 75.158C20.9516 75.2202 20.6059 75.2122 20.2727 75.1343C19.9395 75.0565 19.626 74.9106 19.3518 74.7058C19.0777 74.501 18.849 74.2417 18.6799 73.9442L16.7744 70.5922L16.4643 73.0733C16.0425 75.8273 17.6552 78.234 20.5085 78.5938C22.9896 78.9089 24.312 78.8171 27.4804 76.2764C29.0639 74.754 31.1752 73.9036 33.3718 73.9036C35.5684 73.9036 37.6798 74.754 39.2632 76.2764C42.5135 79.4398 47.8156 79.611 51.0659 76.4451C55.3681 73.2271 59.5934 73.7134 62.8313 76.2764C64.5681 77.966 66.8507 78.7401 69.1085 78.6434C70.2374 78.5938 72.0511 77.6336 72.7508 74.6091Z" fill="url(#paint13_linear_6_31)"/>
</g>
<g filter="url(#filter3_f_6_31)">
<path d="M42.6202 56.9982C50.7929 56.9982 52.098 46.8182 52.3511 44.7737C52.5446 43.1188 51.6688 42.2827 50.7135 41.717C49.7608 41.1538 46.9001 40.6278 42.6202 40.6278C38.3378 40.6278 39.3798 37.0376 38.4072 37.6008C37.4346 38.164 34.6359 33.6633 33.2118 37.6008C31.5891 42.0991 28.9815 56.9982 42.6202 56.9982Z" fill="url(#paint14_radial_6_31)" fill-opacity="0.75"/>
</g>
<path d="M45.2749 47.7833C32.8495 47.7833 32.8495 35.3554 32.8495 35.3554H57.7003C57.7003 35.3554 57.6978 47.7833 45.2749 47.7833Z" fill="url(#paint15_radial_6_31)"/>
<path d="M45.3022 53.1078C52.7604 53.1078 53.9489 45.652 54.1796 43.7887C54.3583 42.2802 53.5593 41.516 52.6909 41.0024C51.8201 40.4864 49.2099 40.0075 45.3047 40.0075C41.3994 40.0075 38.8066 40.4864 37.9209 40.9999C37.0326 41.516 36.2337 42.2802 36.4297 43.7887C36.6605 45.652 37.8464 53.1078 45.3022 53.1078Z" fill="url(#paint16_radial_6_31)"/>
<g opacity="0.5" filter="url(#filter4_f_6_31)">
<path d="M48.8254 48.6691C50.6019 47.7833 52.3783 46.0068 52.3783 43.3446" stroke="white"/>
</g>
<path d="M35.539 30.3312C35.3874 30.414 35.2207 30.4655 35.0488 30.4825C34.8769 30.4995 34.7033 30.4817 34.5384 30.4301C34.3736 30.3785 34.2208 30.2941 34.0892 30.1822C33.9577 30.0702 33.8501 29.9328 33.7728 29.7783C33.6956 29.6238 33.6503 29.4553 33.6396 29.2828C33.6289 29.1104 33.6531 28.9376 33.7108 28.7748C33.7684 28.6119 33.8583 28.4623 33.975 28.335C34.0918 28.2077 34.233 28.1052 34.3903 28.0336L37.2262 26.6144H41.392C41.3912 26.8527 41.3242 27.0861 41.1985 27.2886C41.0727 27.491 40.8932 27.6545 40.6799 27.7607L35.539 30.3312Z" fill="url(#paint17_linear_6_31)"/>
<path d="M35.539 22.8977C35.3874 22.8149 35.2207 22.7634 35.0488 22.7464C34.8769 22.7294 34.7033 22.7472 34.5384 22.7988C34.3736 22.8504 34.2208 22.9348 34.0892 23.0467C33.9577 23.1587 33.8501 23.2961 33.7728 23.4506C33.6956 23.6051 33.6503 23.7736 33.6396 23.946C33.6289 24.1185 33.6531 24.2913 33.7108 24.4541C33.7684 24.617 33.8583 24.7666 33.975 24.8939C34.0918 25.0212 34.233 25.1237 34.3903 25.1953L37.2262 26.6144H41.392C41.3912 26.3762 41.3242 26.1428 41.1985 25.9403C41.0727 25.7379 40.8932 25.5744 40.6799 25.4682L35.539 22.8977Z" fill="url(#paint18_linear_6_31)"/>
<path d="M53.9787 30.3709C56.0355 30.3709 57.7004 28.7284 57.7004 26.7038C57.7004 24.6792 56.0355 23.0392 53.9787 23.0392C51.9243 23.0392 50.257 24.6792 50.257 26.7038C50.2649 27.6834 50.6613 28.6198 51.3591 29.3074C52.0569 29.995 52.9991 30.3775 53.9787 30.3709Z" fill="url(#paint19_radial_6_31)"/>
<g filter="url(#filter5_f_6_31)">
<path d="M37.0897 35.8169L62.8338 72.525C59.2659 69.1134 58.333 70.5525 53.5271 74.2741C48.7187 77.9958 43.6027 80.013 35.539 74.2741C31.3087 71.2645 25.6642 74.7927 23.1335 77.842L37.0897 35.8169Z" fill="url(#paint20_linear_6_31)"/>
</g>
<g filter="url(#filter6_f_6_31)">
<path d="M65.6176 57.2438L70.2696 78.1769" stroke="url(#paint21_linear_6_31)" stroke-width="1.1" stroke-linecap="round"/>
</g>
</g>
</g>
</g>
<defs>
<filter id="filter0_d_6_31" x="8.41724" y="10.5368" width="77.3978" height="77.5329" filterUnits="userSpaceOnUse" color-interpolation-filters="sRGB">
<feFlood flood-opacity="0" result="BackgroundImageFix"/>
<feColorMatrix in="SourceAlpha" type="matrix" values="0 0 0 0 0 0 0 0 0 0 0 0 0 0 0 0 0 0 127 0" result="hardAlpha"/>
<feOffset dx="2" dy="4"/>
<feGaussianBlur stdDeviation="2"/>
<feComposite in2="hardAlpha" operator="out"/>
<feColorMatrix type="matrix" values="0 0 0 0 0 0 0 0 0 0 0 0 0 0 0 0 0 0 0.1 0"/>
<feBlend mode="normal" in2="BackgroundImageFix" result="effect1_dropShadow_6_31"/>
<feBlend mode="normal" in="SourceGraphic" in2="effect1_dropShadow_6_31" result="shape"/>
</filter>
<filter id="filter1_f_6_31" x="77.3922" y="37.7515" width="2.74554" height="2.74552" filterUnits="userSpaceOnUse" color-interpolation-filters="sRGB">
<feFlood flood-opacity="0" result="BackgroundImageFix"/>
<feBlend mode="normal" in="SourceGraphic" in2="BackgroundImageFix" result="shape"/>
<feGaussianBlur stdDeviation="0.375" result="effect1_foregroundBlur_6_31"/>
</filter>
<filter id="filter2_f_6_31" x="15.3978" y="62.8616" width="58.353" height="16.8744" filterUnits="userSpaceOnUse" color-interpolation-filters="sRGB">
<feFlood flood-opacity="0" result="BackgroundImageFix"/>
<feBlend mode="normal" in="SourceGraphic" in2="BackgroundImageFix" result="shape"/>
<feGaussianBlur stdDeviation="0.5" result="effect1_foregroundBlur_6_31"/>
</filter>
<filter id="filter3_f_6_31" x="30.3789" y="34.4694" width="23.4992" height="24.0287" filterUnits="userSpaceOnUse" color-interpolation-filters="sRGB">
<feFlood flood-opacity="0" result="BackgroundImageFix"/>
<feBlend mode="normal" in="SourceGraphic" in2="BackgroundImageFix" result="shape"/>
<feGaussianBlur stdDeviation="0.75" result="effect1_foregroundBlur_6_31"/>
</filter>
<filter id="filter4_f_6_31" x="47.6023" y="42.3446" width="6.27606" height="7.77193" filterUnits="userSpaceOnUse" color-interpolation-filters="sRGB">
<feFlood flood-opacity="0" result="BackgroundImageFix"/>
<feBlend mode="normal" in="SourceGraphic" in2="BackgroundImageFix" result="shape"/>
<feGaussianBlur stdDeviation="0.5" result="effect1_foregroundBlur_6_31"/>
</filter>
<filter id="filter5_f_6_31" x="21.1335" y="33.8169" width="43.7003" height="46.0444" filterUnits="userSpaceOnUse" color-interpolation-filters="sRGB">
<feFlood flood-opacity="0" result="BackgroundImageFix"/>
<feBlend mode="normal" in="SourceGraphic" in2="BackgroundImageFix" result="shape"/>
<feGaussianBlur stdDeviation="1" result="effect1_foregroundBlur_6_31"/>
</filter>
<filter id="filter6_f_6_31" x="62.5674" y="54.1937" width="10.7523" height="27.0334" filterUnits="userSpaceOnUse" color-interpolation-filters="sRGB">
<feFlood flood-opacity="0" result="BackgroundImageFix"/>
<feBlend mode="normal" in="SourceGraphic" in2="BackgroundImageFix" result="shape"/>
<feGaussianBlur stdDeviation="1.25" result="effect1_foregroundBlur_6_31"/>
</filter>
<radialGradient id="paint0_radial_6_31" cx="0" cy="0" r="1" gradientUnits="userSpaceOnUse" gradientTransform="translate(24.6842 36.9036) rotate(103.951) scale(18.2153 22.0333)">
<stop offset="0.213" stop-color="#F2F0F4"/>
<stop offset="0.887" stop-color="#D1BBE0"/>
</radialGradient>
<linearGradient id="paint1_linear_6_31" x1="6.38596" y1="37.8291" x2="20.4415" y2="45.6272" gradientUnits="userSpaceOnUse">
<stop offset="0.392" stop-color="#D4CDCC" stop-opacity="0"/>
<stop offset="0.984" stop-color="#D4CDCC"/>
</linearGradient>
<linearGradient id="paint2_linear_6_31" x1="16.1938" y1="44.5008" x2="16.1541" y2="36.4" gradientUnits="userSpaceOnUse">
<stop offset="0.736" stop-color="#D4CDCC" stop-opacity="0"/>
<stop offset="0.917" stop-color="#D4CDCC"/>
</linearGradient>
<radialGradient id="paint3_radial_6_31" cx="0" cy="0" r="1" gradientUnits="userSpaceOnUse" gradientTransform="translate(10.4178 33.105) rotate(56.9178) scale(10.0864 11.4451)">
<stop stop-color="#FFD099"/>
<stop offset="1" stop-color="#E5C9C5" stop-opacity="0"/>
</radialGradient>
<radialGradient id="paint4_radial_6_31" cx="0" cy="0" r="1" gradientUnits="userSpaceOnUse" gradientTransform="translate(82.7572 45.9751) rotate(57.779) scale(10.9063 27.8661)">
<stop stop-color="#D1BBE0"/>
<stop offset="0.885" stop-color="#F2F0F4"/>
</radialGradient>
<linearGradient id="paint5_linear_6_31" x1="75.6239" y1="40.1588" x2="75.7802" y2="32.7155" gradientUnits="userSpaceOnUse">
<stop offset="0.174" stop-color="#D4CDCC" stop-opacity="0"/>
<stop offset="0.644" stop-color="#D4CDCC"/>
</linearGradient>
<linearGradient id="paint6_linear_6_31" x1="75.3137" y1="41.3225" x2="80.4323" y2="46.0515" gradientUnits="userSpaceOnUse">
<stop offset="0.174" stop-color="#D4CDCC" stop-opacity="0"/>
<stop offset="0.644" stop-color="#D4CDCC"/>
</linearGradient>
<radialGradient id="paint7_radial_6_31" cx="0" cy="0" r="1" gradientUnits="userSpaceOnUse" gradientTransform="translate(63.1429 24.4942) rotate(128.033) scale(70.4738 66.3641)">
<stop offset="0.213" stop-color="#F2F0F4"/>
<stop offset="0.887" stop-color="#D1BBE0"/>
</radialGradient>
<radialGradient id="paint8_radial_6_31" cx="0" cy="0" r="1" gradientUnits="userSpaceOnUse" gradientTransform="translate(49.6442 34.1372) rotate(112.86) scale(65.4636 106.051)">
<stop offset="0.78" stop-color="#CB9DEB" stop-opacity="0"/>
<stop offset="0.834" stop-color="#CB9DEB" stop-opacity="0.75"/>
</radialGradient>
<radialGradient id="paint9_radial_6_31" cx="0" cy="0" r="1" gradientUnits="userSpaceOnUse" gradientTransform="translate(53.8292 40.6503) rotate(88.694) scale(47.6187 105.78)">
<stop offset="0.768" stop-color="#CB9DEB" stop-opacity="0"/>
<stop offset="0.897" stop-color="#CB9DEB" stop-opacity="0.75"/>
</radialGradient>
<radialGradient id="paint10_radial_6_31" cx="0" cy="0" r="1" gradientUnits="userSpaceOnUse" gradientTransform="translate(47.3243 57.6829) rotate(-97.595) scale(56.319 60.5198)">
<stop offset="0.677" stop-color="#D4CDCC" stop-opacity="0"/>
<stop offset="0.984" stop-color="#D4CDCC"/>
</radialGradient>
<linearGradient id="paint11_linear_6_31" x1="38.9506" y1="46.3616" x2="3.96935" y2="35.9385" gradientUnits="userSpaceOnUse">
<stop stop-color="#E5C9C5" stop-opacity="0"/>
<stop offset="1" stop-color="#FFD099"/>
</linearGradient>
<linearGradient id="paint12_linear_6_31" x1="50.6019" y1="66.0393" x2="78.9213" y2="80.2387" gradientUnits="userSpaceOnUse">
<stop offset="0.62" stop-color="#CB9DEB" stop-opacity="0"/>
<stop offset="1" stop-color="#CB9DEB"/>
</linearGradient>
<linearGradient id="paint13_linear_6_31" x1="48.0066" y1="63.6302" x2="49.3266" y2="89.141" gradientUnits="userSpaceOnUse">
<stop offset="0.302" stop-color="#CB9DEB" stop-opacity="0"/>
<stop offset="0.865" stop-color="#CB9DEB"/>
</linearGradient>
<radialGradient id="paint14_radial_6_31" cx="0" cy="0" r="1" gradientUnits="userSpaceOnUse" gradientTransform="translate(19.6475 67.6074) rotate(-36.765) scale(33.9163 30.0837)">
<stop offset="0.573" stop-color="#C8B1D8" stop-opacity="0"/>
<stop offset="1" stop-color="#B9A4C8"/>
</radialGradient>
<radialGradient id="paint15_radial_6_31" cx="0" cy="0" r="1" gradientUnits="userSpaceOnUse" gradientTransform="translate(45.2749 50.5448) rotate(-90) scale(13.0204 26.0408)">
<stop stop-color="#F70A8D"/>
<stop offset="1" stop-color="#89029C"/>
</radialGradient>
<radialGradient id="paint16_radial_6_31" cx="0" cy="0" r="1" gradientUnits="userSpaceOnUse" gradientTransform="translate(46.1654 54.8844) rotate(-93.013) scale(16.8874 29.3575)">
<stop stop-color="#FF1C4A"/>
<stop offset="0.766" stop-color="#FF2B8F"/>
<stop offset="0.864" stop-color="#BB0773"/>
<stop offset="0.886" stop-color="#9F0762"/>
</radialGradient>
<linearGradient id="paint17_linear_6_31" x1="36.9929" y1="31.4154" x2="33.6782" y2="24.5452" gradientUnits="userSpaceOnUse">
<stop offset="0.25" stop-color="#482641"/>
<stop offset="0.406" stop-color="#503A4A"/>
<stop offset="0.511" stop-color="#482641"/>
</linearGradient>
<linearGradient id="paint18_linear_6_31" x1="34.7847" y1="26.7956" x2="37.8564" y2="20.7689" gradientUnits="userSpaceOnUse">
<stop offset="0.25" stop-color="#482641"/>
<stop offset="0.406" stop-color="#503A4A"/>
<stop offset="0.511" stop-color="#482641"/>
</linearGradient>
<radialGradient id="paint19_radial_6_31" cx="0" cy="0" r="1" gradientUnits="userSpaceOnUse" gradientTransform="translate(55.0282 25.6394) rotate(130.344) scale(4.91052 4.01876)">
<stop stop-color="#664D5F"/>
<stop offset="0.691" stop-color="#482641"/>
<stop offset="1" stop-color="#3E2338"/>
</radialGradient>
<linearGradient id="paint20_linear_6_31" x1="44.6671" y1="37.3676" x2="44.7663" y2="93.0388" gradientUnits="userSpaceOnUse">
<stop offset="0.362" stop-color="#CB9DEB" stop-opacity="0"/>
<stop offset="1" stop-color="#CB9DEB"/>
</linearGradient>
<linearGradient id="paint21_linear_6_31" x1="65.037" y1="65.5009" x2="69.0688" y2="73.7184" gradientUnits="userSpaceOnUse">
<stop stop-color="white" stop-opacity="0"/>
<stop offset="1" stop-color="white"/>
</linearGradient>
<clipPath id="clip0_6_31">
<rect width="85" height="85" fill="white"/>
</clipPath>
</defs>
</svg>
