<svg width="85" height="85" viewBox="0 0 85 85" fill="none" xmlns="http://www.w3.org/2000/svg">
<g filter="url(#filter0_i_7_1251)">
<path d="M24.625 38.2031C20.9408 43.7281 19.3125 47.5 19.3125 52.8125H67.125C67.125 47.5 65.4967 43.7281 61.8125 38.2031C59.1562 34.2188 57.8281 26.25 57.8281 23.5938C57.8281 17.3967 56.5 5 43.2188 5C29.9375 5 28.6094 17.3967 28.6094 23.5938C28.6094 26.25 27.2812 34.2188 24.625 38.2031Z" fill="url(#paint0_linear_7_1251)"/>
<path d="M24.625 38.2031C20.9408 43.7281 19.3125 47.5 19.3125 52.8125H67.125C67.125 47.5 65.4967 43.7281 61.8125 38.2031C59.1562 34.2188 57.8281 26.25 57.8281 23.5938C57.8281 17.3967 56.5 5 43.2188 5C29.9375 5 28.6094 17.3967 28.6094 23.5938C28.6094 26.25 27.2812 34.2188 24.625 38.2031Z" fill="url(#paint1_radial_7_1251)"/>
<path d="M24.625 38.2031C20.9408 43.7281 19.3125 47.5 19.3125 52.8125H67.125C67.125 47.5 65.4967 43.7281 61.8125 38.2031C59.1562 34.2188 57.8281 26.25 57.8281 23.5938C57.8281 17.3967 56.5 5 43.2188 5C29.9375 5 28.6094 17.3967 28.6094 23.5938C28.6094 26.25 27.2812 34.2188 24.625 38.2031Z" fill="url(#paint2_radial_7_1251)"/>
<path d="M24.625 38.2031C20.9408 43.7281 19.3125 47.5 19.3125 52.8125H67.125C67.125 47.5 65.4967 43.7281 61.8125 38.2031C59.1562 34.2188 57.8281 26.25 57.8281 23.5938C57.8281 17.3967 56.5 5 43.2188 5C29.9375 5 28.6094 17.3967 28.6094 23.5938C28.6094 26.25 27.2812 34.2188 24.625 38.2031Z" fill="url(#paint3_radial_7_1251)"/>
</g>
<path d="M56.5 52.8125C51.1875 51.4844 44.5469 36.875 43.2188 31.5625C41.8906 36.875 35.25 51.4844 29.9375 52.8125H56.5Z" fill="url(#paint4_radial_7_1251)"/>
<g filter="url(#filter1_i_7_1251)">
<path d="M14 52.8125C14 52.108 14.2799 51.4324 14.778 50.9342C15.2761 50.4361 15.9518 50.1562 16.6562 50.1562H69.7812C70.4857 50.1562 71.1614 50.4361 71.6595 50.9342C72.1576 51.4324 72.4375 52.108 72.4375 52.8125V55.4688C72.4375 61.8091 69.9188 67.8897 65.4355 72.373C60.9522 76.8563 54.8716 79.375 48.5312 79.375H37.9062C31.5659 79.375 25.4853 76.8563 21.002 72.373C16.5187 67.8897 14 61.8091 14 55.4688V52.8125Z" fill="url(#paint5_linear_7_1251)"/>
<path d="M14 52.8125C14 52.108 14.2799 51.4324 14.778 50.9342C15.2761 50.4361 15.9518 50.1562 16.6562 50.1562H69.7812C70.4857 50.1562 71.1614 50.4361 71.6595 50.9342C72.1576 51.4324 72.4375 52.108 72.4375 52.8125V55.4688C72.4375 61.8091 69.9188 67.8897 65.4355 72.373C60.9522 76.8563 54.8716 79.375 48.5312 79.375H37.9062C31.5659 79.375 25.4853 76.8563 21.002 72.373C16.5187 67.8897 14 61.8091 14 55.4688V52.8125Z" fill="url(#paint6_radial_7_1251)"/>
<path d="M14 52.8125C14 52.108 14.2799 51.4324 14.778 50.9342C15.2761 50.4361 15.9518 50.1562 16.6562 50.1562H69.7812C70.4857 50.1562 71.1614 50.4361 71.6595 50.9342C72.1576 51.4324 72.4375 52.108 72.4375 52.8125V55.4688C72.4375 61.8091 69.9188 67.8897 65.4355 72.373C60.9522 76.8563 54.8716 79.375 48.5312 79.375H37.9062C31.5659 79.375 25.4853 76.8563 21.002 72.373C16.5187 67.8897 14 61.8091 14 55.4688V52.8125Z" fill="url(#paint7_linear_7_1251)"/>
<path d="M14 52.8125C14 52.108 14.2799 51.4324 14.778 50.9342C15.2761 50.4361 15.9518 50.1562 16.6562 50.1562H69.7812C70.4857 50.1562 71.1614 50.4361 71.6595 50.9342C72.1576 51.4324 72.4375 52.108 72.4375 52.8125V55.4688C72.4375 61.8091 69.9188 67.8897 65.4355 72.373C60.9522 76.8563 54.8716 79.375 48.5312 79.375H37.9062C31.5659 79.375 25.4853 76.8563 21.002 72.373C16.5187 67.8897 14 61.8091 14 55.4688V52.8125Z" fill="url(#paint8_radial_7_1251)"/>
</g>
<path d="M25.228 50.1562H61.2095V54.972C61.2095 58.4944 59.8103 61.8726 57.3195 64.3633C54.8288 66.854 51.4507 68.2533 47.9283 68.2533H38.5092C34.9868 68.2533 31.6087 66.854 29.118 64.3633C26.6272 61.8726 25.228 58.4944 25.228 54.972V50.1562Z" fill="url(#paint9_linear_7_1251)"/>
<path d="M25.228 50.1562H61.2095V54.972C61.2095 58.4944 59.8103 61.8726 57.3195 64.3633C54.8288 66.854 51.4507 68.2533 47.9283 68.2533H38.5092C34.9868 68.2533 31.6087 66.854 29.118 64.3633C26.6272 61.8726 25.228 58.4944 25.228 54.972V50.1562Z" fill="url(#paint10_linear_7_1251)"/>
<path d="M38.7509 31.5625C37.4702 31.5625 36.2419 32.0713 35.3363 32.9769C34.4307 33.8825 33.9219 35.1108 33.9219 36.3916C33.9219 36.6572 34.137 36.875 34.4053 36.875H37.9062C39.8719 36.875 42.2997 35.1644 43.2188 33.5759C42.8283 32.9013 43.6305 32.9119 43.2188 33.5759C44.1378 35.1644 46.5656 36.875 48.5312 36.875H52.0322C52.2978 36.875 52.5156 36.6598 52.5156 36.3916C52.5156 35.1108 52.0068 33.8825 51.1012 32.9769C50.1956 32.0713 48.9673 31.5625 47.6866 31.5625H38.7509Z" fill="url(#paint11_linear_7_1251)"/>
<path d="M43.2188 31.5625C49.0868 31.5625 53.8438 26.8055 53.8438 20.9375C53.8438 15.0695 49.0868 10.3125 43.2188 10.3125C37.3507 10.3125 32.5938 15.0695 32.5938 20.9375C32.5938 26.8055 37.3507 31.5625 43.2188 31.5625Z" fill="url(#paint12_linear_7_1251)"/>
<path d="M40.5625 22.2656C40.5625 21.5321 39.9679 20.9375 39.2344 20.9375C38.5009 20.9375 37.9062 21.5321 37.9062 22.2656V23.5938C37.9062 24.3273 38.5009 24.9219 39.2344 24.9219C39.9679 24.9219 40.5625 24.3273 40.5625 23.5938V22.2656Z" fill="url(#paint13_linear_7_1251)"/>
<path d="M48.5312 22.2656C48.5312 21.5321 47.9366 20.9375 47.2031 20.9375C46.4696 20.9375 45.875 21.5321 45.875 22.2656V23.5938C45.875 24.3273 46.4696 24.9219 47.2031 24.9219C47.9366 24.9219 48.5312 24.3273 48.5312 23.5938V22.2656Z" fill="url(#paint14_linear_7_1251)"/>
<path d="M43.2188 10.3125C46.0367 10.3125 48.7392 11.4319 50.7318 13.4245C52.7243 15.4171 53.8438 18.1196 53.8438 20.9375C51.0258 20.9375 48.3233 19.8181 46.3307 17.8255C44.3382 15.8329 43.2188 13.1304 43.2188 10.3125Z" fill="url(#paint15_linear_7_1251)"/>
<path d="M43.2188 10.3125C40.4008 10.3125 37.6983 11.4319 35.7057 13.4245C33.7132 15.4171 32.5938 18.1196 32.5938 20.9375C35.4117 20.9375 38.1142 19.8181 40.1068 17.8255C42.0993 15.8329 43.2188 13.1304 43.2188 10.3125Z" fill="url(#paint16_linear_7_1251)"/>
<defs>
<filter id="filter0_i_7_1251" x="19.3125" y="5" width="48.0625" height="47.9125" filterUnits="userSpaceOnUse" color-interpolation-filters="sRGB">
<feFlood flood-opacity="0" result="BackgroundImageFix"/>
<feBlend mode="normal" in="SourceGraphic" in2="BackgroundImageFix" result="shape"/>
<feColorMatrix in="SourceAlpha" type="matrix" values="0 0 0 0 0 0 0 0 0 0 0 0 0 0 0 0 0 0 127 0" result="hardAlpha"/>
<feOffset dx="0.25" dy="0.1"/>
<feGaussianBlur stdDeviation="0.25"/>
<feComposite in2="hardAlpha" operator="arithmetic" k2="-1" k3="1"/>
<feColorMatrix type="matrix" values="0 0 0 0 0.8 0 0 0 0 0.447059 0 0 0 0 0.517647 0 0 0 1 0"/>
<feBlend mode="normal" in2="shape" result="effect1_innerShadow_7_1251"/>
</filter>
<filter id="filter1_i_7_1251" x="14" y="49.9062" width="58.4375" height="29.4688" filterUnits="userSpaceOnUse" color-interpolation-filters="sRGB">
<feFlood flood-opacity="0" result="BackgroundImageFix"/>
<feBlend mode="normal" in="SourceGraphic" in2="BackgroundImageFix" result="shape"/>
<feColorMatrix in="SourceAlpha" type="matrix" values="0 0 0 0 0 0 0 0 0 0 0 0 0 0 0 0 0 0 127 0" result="hardAlpha"/>
<feOffset dy="-0.25"/>
<feGaussianBlur stdDeviation="0.25"/>
<feComposite in2="hardAlpha" operator="arithmetic" k2="-1" k3="1"/>
<feColorMatrix type="matrix" values="0 0 0 0 0.792157 0 0 0 0 0.388235 0 0 0 0 0.639216 0 0 0 1 0"/>
<feBlend mode="normal" in2="shape" result="effect1_innerShadow_7_1251"/>
</filter>
<linearGradient id="paint0_linear_7_1251" x1="43.2188" y1="5" x2="43.2188" y2="52.8125" gradientUnits="userSpaceOnUse">
<stop stop-color="#F1358C"/>
<stop offset="1" stop-color="#D82E4A"/>
</linearGradient>
<radialGradient id="paint1_radial_7_1251" cx="0" cy="0" r="1" gradientUnits="userSpaceOnUse" gradientTransform="translate(52.5147 6.49713) rotate(119.814) scale(17.0294 16.3901)">
<stop stop-color="#FF59AA"/>
<stop offset="1" stop-color="#FF59AA" stop-opacity="0"/>
</radialGradient>
<radialGradient id="paint2_radial_7_1251" cx="0" cy="0" r="1" gradientUnits="userSpaceOnUse" gradientTransform="translate(50.8561 28.0754) rotate(66.037) scale(14.7156 12.7771)">
<stop stop-color="#FF739B"/>
<stop offset="1" stop-color="#FF739B" stop-opacity="0"/>
</radialGradient>
<radialGradient id="paint3_radial_7_1251" cx="0" cy="0" r="1" gradientUnits="userSpaceOnUse" gradientTransform="translate(52.683 53.9759) rotate(-81.5111) scale(22.4925 27.2754)">
<stop stop-color="#FF7288"/>
<stop offset="1" stop-color="#FF7288" stop-opacity="0"/>
</radialGradient>
<radialGradient id="paint4_radial_7_1251" cx="0" cy="0" r="1" gradientUnits="userSpaceOnUse" gradientTransform="translate(37.3856 52.8125) rotate(-50.1944) scale(19.5256 33.8765)">
<stop offset="0.115" stop-color="#BFB4B3"/>
<stop offset="0.768" stop-color="#F9F1F7"/>
</radialGradient>
<linearGradient id="paint5_linear_7_1251" x1="75.4258" y1="57.4609" x2="24.7923" y2="57.2963" gradientUnits="userSpaceOnUse">
<stop stop-color="#FA4E95"/>
<stop offset="1" stop-color="#C02D59"/>
</linearGradient>
<radialGradient id="paint6_radial_7_1251" cx="0" cy="0" r="1" gradientUnits="userSpaceOnUse" gradientTransform="translate(65.4642 77.3814) rotate(-131.112) scale(24.2383 45.1972)">
<stop stop-color="#E1295E"/>
<stop offset="1" stop-color="#E1295E" stop-opacity="0"/>
</radialGradient>
<linearGradient id="paint7_linear_7_1251" x1="43.2188" y1="50.1562" x2="43.2188" y2="53.6439" gradientUnits="userSpaceOnUse">
<stop stop-color="#D93E70"/>
<stop offset="1" stop-color="#D93E70" stop-opacity="0"/>
</linearGradient>
<radialGradient id="paint8_radial_7_1251" cx="0" cy="0" r="1" gradientUnits="userSpaceOnUse" gradientTransform="translate(60.402 51.8988) rotate(180) scale(17.5977 1.32812)">
<stop stop-color="#FF71B0"/>
<stop offset="1" stop-color="#FF71B0" stop-opacity="0"/>
</radialGradient>
<linearGradient id="paint9_linear_7_1251" x1="43.2187" y1="53.8086" x2="43.2187" y2="68.2533" gradientUnits="userSpaceOnUse">
<stop stop-color="#D4C7DF"/>
<stop offset="1" stop-color="#B59DCD"/>
</linearGradient>
<linearGradient id="paint10_linear_7_1251" x1="43.2187" y1="50.1562" x2="43.2187" y2="52.8125" gradientUnits="userSpaceOnUse">
<stop stop-color="#E9DFDF"/>
<stop offset="1" stop-color="#E9DFDF" stop-opacity="0"/>
</linearGradient>
<linearGradient id="paint11_linear_7_1251" x1="37.0775" y1="35.0502" x2="51.6019" y2="35.0502" gradientUnits="userSpaceOnUse">
<stop stop-color="#B42948"/>
<stop offset="1" stop-color="#DD647A"/>
</linearGradient>
<linearGradient id="paint12_linear_7_1251" x1="41.7259" y1="18.1166" x2="50.8555" y2="29.5703" gradientUnits="userSpaceOnUse">
<stop stop-color="#E7A668"/>
<stop offset="1" stop-color="#FFEFBF"/>
</linearGradient>
<linearGradient id="paint13_linear_7_1251" x1="39.2344" y1="20.9375" x2="39.2344" y2="24.9219" gradientUnits="userSpaceOnUse">
<stop stop-color="#463552"/>
<stop offset="1" stop-color="#342F36"/>
</linearGradient>
<linearGradient id="paint14_linear_7_1251" x1="47.2031" y1="20.9375" x2="47.2031" y2="24.9219" gradientUnits="userSpaceOnUse">
<stop stop-color="#685D73"/>
<stop offset="1" stop-color="#5D5960"/>
</linearGradient>
<linearGradient id="paint15_linear_7_1251" x1="44.5469" y1="10.3125" x2="53.1797" y2="20.9375" gradientUnits="userSpaceOnUse">
<stop stop-color="#794B41"/>
<stop offset="0.245" stop-color="#81534A"/>
<stop offset="1" stop-color="#BE8B7D"/>
</linearGradient>
<linearGradient id="paint16_linear_7_1251" x1="40.7298" y1="12.14" x2="32.5938" y2="20.9375" gradientUnits="userSpaceOnUse">
<stop stop-color="#794B41"/>
<stop offset="1" stop-color="#935749"/>
</linearGradient>
</defs>
</svg>
